<svg xmlns="http://www.w3.org/2000/svg" xmlns:xlink="http://www.w3.org/1999/xlink" viewBox="0 0 56.79 42.62"><defs><style>.cls-1,.cls-3,.cls-4,.cls-6,.cls-7{fill:none;}.cls-2{fill:#fff;}.cls-3,.cls-4,.cls-6,.cls-7{stroke:#231f20;stroke-miterlimit:10;}.cls-3,.cls-4,.cls-6{stroke-linecap:round;}.cls-3{stroke-width:0.2px;}.cls-4{stroke-width:0.2px;}.cls-5{fill:#1c75bc;}.cls-6{stroke-width:0.5px;}.cls-7{stroke-width:0.1px;}.cls-8{isolation:isolate;}.cls-9{clip-path:url(#clip-path);}.cls-10{fill:#231f20;}.cls-11{fill:url(#linear-gradient);}.cls-12{fill:url(#linear-gradient-2);}.cls-13{fill:url(#linear-gradient-3);}.cls-14{fill:url(#linear-gradient-4);}</style><clipPath id="clip-path"><polygon class="cls-1" points="16.74 25.61 26.46 19.97 36.24 25.61 26.52 31.26 16.74 25.61"/></clipPath><linearGradient id="linear-gradient" x1="7.99" y1="27.8" x2="27.34" y2="27.8" gradientUnits="userSpaceOnUse"><stop offset="0"/><stop offset="1" stop-opacity="0.1"/></linearGradient><linearGradient id="linear-gradient-2" x1="12.75" y1="25.06" x2="32.1" y2="25.06" xlink:href="#linear-gradient"/><linearGradient id="linear-gradient-3" x1="17.52" y1="22.32" x2="36.86" y2="22.32" xlink:href="#linear-gradient"/><linearGradient id="linear-gradient-4" x1="22.28" y1="19.57" x2="41.63" y2="19.57" xlink:href="#linear-gradient"/></defs><g id="Layer_2" data-name="Layer 2"><g id="Layer_1-2" data-name="Layer 1"><polygon class="cls-2" points="9.58 12.62 9.59 25.64 7.99 26.56 7.98 13.54 9.58 12.62"/><polygon class="cls-2" points="9.58 12.62 7.98 13.54 6.4 12.62 7.99 11.7 9.58 12.62"/><polygon class="cls-2" points="7.98 13.54 7.99 26.56 6.4 25.64 6.4 12.62 7.98 13.54"/><line class="cls-3" x1="9.58" y1="12.62" x2="7.99" y2="11.7"/><line class="cls-3" x1="9.58" y1="12.62" x2="9.59" y2="25.64"/><line class="cls-3" x1="9.59" y1="25.64" x2="7.99" y2="26.56"/><line class="cls-3" x1="7.99" y1="26.56" x2="6.4" y2="25.64"/><line class="cls-3" x1="6.4" y1="25.64" x2="6.4" y2="12.62"/><line class="cls-3" x1="6.4" y1="12.62" x2="7.99" y2="11.7"/><line class="cls-4" x1="7.98" y1="13.54" x2="7.99" y2="26.56"/><line class="cls-4" x1="7.98" y1="13.54" x2="9.58" y2="12.62"/><line class="cls-4" x1="7.98" y1="13.54" x2="6.4" y2="12.62"/><polygon class="cls-2" points="14.35 9.87 14.36 22.89 12.76 23.81 12.76 10.79 14.35 9.87"/><polygon class="cls-2" points="14.35 9.87 12.76 10.79 11.17 9.87 12.77 8.95 14.35 9.87"/><polygon class="cls-2" points="12.76 10.79 12.76 23.81 11.18 22.89 11.17 9.87 12.76 10.79"/><line class="cls-3" x1="14.35" y1="9.87" x2="12.77" y2="8.95"/><line class="cls-3" x1="14.35" y1="9.87" x2="14.36" y2="22.89"/><line class="cls-3" x1="14.36" y1="22.89" x2="12.76" y2="23.81"/><line class="cls-3" x1="12.76" y1="23.81" x2="11.18" y2="22.89"/><line class="cls-3" x1="11.18" y1="22.89" x2="11.17" y2="9.87"/><line class="cls-3" x1="11.17" y1="9.87" x2="12.77" y2="8.95"/><line class="cls-4" x1="12.76" y1="10.79" x2="12.76" y2="23.81"/><line class="cls-4" x1="12.76" y1="10.79" x2="14.35" y2="9.87"/><line class="cls-4" x1="12.76" y1="10.79" x2="11.17" y2="9.87"/><polygon class="cls-2" points="14.36 9.87 14.36 22.89 12.77 23.81 12.76 10.79 14.36 9.87"/><polygon class="cls-2" points="14.36 9.87 12.76 10.79 11.18 9.87 12.77 8.95 14.36 9.87"/><polygon class="cls-2" points="12.76 10.79 12.77 23.81 11.18 22.89 11.18 9.87 12.76 10.79"/><line class="cls-3" x1="14.36" y1="9.87" x2="12.77" y2="8.95"/><line class="cls-3" x1="14.36" y1="9.87" x2="14.36" y2="22.89"/><line class="cls-3" x1="14.36" y1="22.89" x2="12.77" y2="23.81"/><line class="cls-3" x1="12.77" y1="23.81" x2="11.18" y2="22.89"/><line class="cls-3" x1="11.18" y1="22.89" x2="11.18" y2="9.87"/><line class="cls-3" x1="11.18" y1="9.87" x2="12.77" y2="8.95"/><line class="cls-4" x1="12.76" y1="10.79" x2="12.77" y2="23.81"/><line class="cls-4" x1="12.76" y1="10.79" x2="14.36" y2="9.87"/><line class="cls-4" x1="12.76" y1="10.79" x2="11.18" y2="9.87"/><polygon class="cls-2" points="19.13 7.12 19.13 20.14 17.53 21.06 17.53 8.04 19.13 7.12"/><polygon class="cls-2" points="19.13 7.12 17.53 8.04 15.95 7.12 17.54 6.2 19.13 7.12"/><polygon class="cls-2" points="17.53 8.04 17.53 21.06 15.95 20.14 15.95 7.12 17.53 8.04"/><line class="cls-3" x1="19.13" y1="7.12" x2="17.54" y2="6.2"/><line class="cls-3" x1="19.13" y1="7.12" x2="19.13" y2="20.14"/><line class="cls-3" x1="19.13" y1="20.14" x2="17.53" y2="21.06"/><line class="cls-3" x1="17.53" y1="21.06" x2="15.95" y2="20.14"/><line class="cls-3" x1="15.95" y1="20.14" x2="15.95" y2="7.12"/><line class="cls-3" x1="15.95" y1="7.12" x2="17.54" y2="6.2"/><line class="cls-4" x1="17.53" y1="8.05" x2="17.53" y2="21.06"/><line class="cls-4" x1="17.53" y1="8.05" x2="19.13" y2="7.12"/><line class="cls-4" x1="17.53" y1="8.05" x2="15.95" y2="7.12"/><polygon class="cls-2" points="19.13 7.12 19.14 20.14 17.54 21.06 17.54 8.04 19.13 7.12"/><polygon class="cls-2" points="19.13 7.12 17.54 8.04 15.95 7.12 17.54 6.2 19.13 7.12"/><polygon class="cls-2" points="17.54 8.04 17.54 21.06 15.96 20.14 15.95 7.12 17.54 8.04"/><line class="cls-3" x1="19.13" y1="7.12" x2="17.54" y2="6.2"/><line class="cls-3" x1="19.13" y1="7.12" x2="19.14" y2="20.14"/><line class="cls-3" x1="19.14" y1="20.14" x2="17.54" y2="21.06"/><line class="cls-3" x1="17.54" y1="21.06" x2="15.96" y2="20.14"/><line class="cls-3" x1="15.96" y1="20.14" x2="15.95" y2="7.12"/><line class="cls-3" x1="15.95" y1="7.12" x2="17.54" y2="6.2"/><line class="cls-4" x1="17.53" y1="8.04" x2="17.54" y2="21.06"/><line class="cls-4" x1="17.53" y1="8.04" x2="19.13" y2="7.12"/><line class="cls-4" x1="17.53" y1="8.04" x2="15.95" y2="7.12"/><polygon class="cls-2" points="23.9 4.37 23.91 17.39 22.31 18.31 22.3 5.3 23.9 4.37"/><polygon class="cls-2" points="23.9 4.37 22.3 5.3 20.72 4.37 22.31 3.45 23.9 4.37"/><polygon class="cls-2" points="22.3 5.3 22.31 18.31 20.72 17.39 20.72 4.37 22.3 5.3"/><line class="cls-3" x1="23.9" y1="4.37" x2="22.31" y2="3.45"/><line class="cls-3" x1="23.9" y1="4.37" x2="23.9" y2="17.39"/><line class="cls-3" x1="23.9" y1="17.39" x2="22.31" y2="18.31"/><line class="cls-3" x1="22.31" y1="18.31" x2="20.72" y2="17.39"/><line class="cls-3" x1="20.72" y1="17.39" x2="20.72" y2="4.37"/><line class="cls-3" x1="20.72" y1="4.37" x2="22.31" y2="3.45"/><line class="cls-4" x1="22.3" y1="5.3" x2="22.31" y2="18.31"/><line class="cls-4" x1="22.3" y1="5.3" x2="23.9" y2="4.37"/><line class="cls-4" x1="22.3" y1="5.3" x2="20.72" y2="4.37"/><polygon class="cls-2" points="23.91 4.37 23.91 17.39 22.31 18.31 22.31 5.29 23.91 4.37"/><polygon class="cls-2" points="23.91 4.37 22.31 5.29 20.72 4.37 22.32 3.45 23.91 4.37"/><polygon class="cls-2" points="22.31 5.29 22.31 18.31 20.73 17.39 20.72 4.37 22.31 5.29"/><line class="cls-3" x1="23.91" y1="4.37" x2="22.32" y2="3.45"/><line class="cls-3" x1="23.91" y1="4.37" x2="23.91" y2="17.39"/><line class="cls-3" x1="23.91" y1="17.39" x2="22.31" y2="18.31"/><line class="cls-3" x1="22.31" y1="18.31" x2="20.73" y2="17.39"/><line class="cls-3" x1="20.73" y1="17.39" x2="20.72" y2="4.37"/><line class="cls-3" x1="20.72" y1="4.37" x2="22.32" y2="3.45"/><line class="cls-4" x1="22.31" y1="5.3" x2="22.31" y2="18.31"/><line class="cls-4" x1="22.31" y1="5.3" x2="23.91" y2="4.37"/><line class="cls-4" x1="22.31" y1="5.3" x2="20.72" y2="4.37"/><rect class="cls-5" x="0.05" y="36.62" width="22.42" height="5.95"/><path class="cls-2" d="M1.47,41.16V38h1a1.22,1.22,0,0,1,.58.12.73.73,0,0,1,.34.33,1,1,0,0,1,.11.45,1,1,0,0,1-.06.35.84.84,0,0,1-.18.28,1,1,0,0,1-.31.19,1.52,1.52,0,0,1-.45.07H2v1.33ZM2,39.41H2.5a.67.67,0,0,0,.3-.06A.4.4,0,0,0,3,39.19a.51.51,0,0,0,0-.48.42.42,0,0,0-.18-.17.67.67,0,0,0-.3-.06H2Z"/><path class="cls-2" d="M4,41.16V38h1a1.51,1.51,0,0,1,.61.11.73.73,0,0,1,.35.32A1,1,0,0,1,6,39a.83.83,0,0,1-.07.34,1,1,0,0,1-.21.31.8.8,0,0,1-.32.19l.69,1.37H5.56l-.65-1.33H4.46v1.33Zm.5-1.74H5a.56.56,0,0,0,.41-.13A.45.45,0,0,0,5.5,39a.54.54,0,0,0-.06-.25.46.46,0,0,0-.17-.17A.68.68,0,0,0,5,38.48h-.5Z"/><path class="cls-2" d="M6.5,41.16V38h2v.41H7v.88H8.22v.41H7v1h1.5v.41Z"/><path class="cls-2" d="M9.36,41.12a1.17,1.17,0,0,1-.45-.29l.24-.41,0-.05,0,0a.25.25,0,0,0,0,.07.31.31,0,0,0,.08.1,1.28,1.28,0,0,0,.28.16,1,1,0,0,0,.35.06.88.88,0,0,0,.24,0,.76.76,0,0,0,.18-.09.3.3,0,0,0,.11-.14.34.34,0,0,0,0-.18.57.57,0,0,0,0-.13.24.24,0,0,0-.06-.11.38.38,0,0,0-.11-.11l-.19-.11a2.23,2.23,0,0,0-.27-.14,2,2,0,0,1-.51-.28.76.76,0,0,1-.27-.3A.77.77,0,0,1,9,38.8a.7.7,0,0,1,.12-.4.89.89,0,0,1,.35-.28A1.19,1.19,0,0,1,10,38a1.34,1.34,0,0,1,.35,0,1.07,1.07,0,0,1,.31.13.92.92,0,0,1,.26.22l-.29.34,0,0,0,0s0-.05,0-.08a.26.26,0,0,0-.07-.1.56.56,0,0,0-.22-.13,1.11,1.11,0,0,0-.28,0,.58.58,0,0,0-.19,0,.53.53,0,0,0-.15.08.47.47,0,0,0-.09.12.23.23,0,0,0,0,.14.5.5,0,0,0,0,.12.3.3,0,0,0,.06.11.33.33,0,0,0,.12.11,1,1,0,0,0,.19.12,2.23,2.23,0,0,0,.3.13,2.75,2.75,0,0,1,.39.21.88.88,0,0,1,.25.2A.56.56,0,0,1,11,40a.79.79,0,0,1,0,.28.84.84,0,0,1-.11.43.82.82,0,0,1-.35.34,1.27,1.27,0,0,1-.62.13A1.7,1.7,0,0,1,9.36,41.12Z"/><path class="cls-2" d="M11.49,41.16V38h2v.41H12v.88h1.24v.41H12v1h1.5v.41Z"/><path class="cls-2" d="M13.91,38h.5l1.15,2.14,0-2.14H16v0s0,.05,0,.07a.35.35,0,0,0,0,.12v2.89h-.44l-1.19-2.27v2.27h-.45Z"/><path class="cls-2" d="M17.2,41.12a1.11,1.11,0,0,1-.39-.29,1.29,1.29,0,0,1-.27-.49,2.17,2.17,0,0,1-.1-.71,2.91,2.91,0,0,1,.07-.64,1.77,1.77,0,0,1,.2-.46,1,1,0,0,1,.29-.29,1,1,0,0,1,.33-.17,1.41,1.41,0,0,1,.35,0,1.08,1.08,0,0,1,.6.16,1,1,0,0,1,.37.45l-.33.23,0,0,0,0a.11.11,0,0,0,0-.08.37.37,0,0,0-.06-.1.53.53,0,0,0-.23-.2.8.8,0,0,0-.26,0,.61.61,0,0,0-.3.08.65.65,0,0,0-.25.22,1.25,1.25,0,0,0-.16.37,2,2,0,0,0-.06.51,2.49,2.49,0,0,0,.05.5,1.67,1.67,0,0,0,.16.38.75.75,0,0,0,.24.23.56.56,0,0,0,.3.08.85.85,0,0,0,.23,0,.47.47,0,0,0,.2-.12,1,1,0,0,0,.16-.19l.35.24a1.09,1.09,0,0,1-.4.4,1.13,1.13,0,0,1-.54.12A1.28,1.28,0,0,1,17.2,41.12Z"/><path class="cls-2" d="M19.07,41.16V38h2v.41H19.54v.88h1.25v.41H19.54v1H21v.41Z"/><polygon class="cls-2" points="37.44 31.98 37.42 28.06 40.83 26.1 40.84 30.02 37.44 31.98"/><line class="cls-6" x1="37.42" y1="28.06" x2="40.83" y2="26.1"/><line class="cls-6" x1="37.44" y1="31.98" x2="37.42" y2="28.06"/><line class="cls-6" x1="37.44" y1="31.98" x2="40.84" y2="30.02"/><line class="cls-6" x1="40.84" y1="30.02" x2="40.83" y2="26.1"/><line class="cls-4" x1="40.83" y1="26.1" x2="40.67" y2="27.59"/><line class="cls-4" x1="37.42" y1="28.06" x2="38.65" y2="28.76"/><line class="cls-4" x1="37.44" y1="31.98" x2="38.65" y2="31.1"/><line class="cls-4" x1="40.68" y1="29.93" x2="40.84" y2="30.02"/><polygon class="cls-2" points="47.18 28.75 47.21 33.69 42.92 36.16 42.9 31.22 47.18 28.75"/><polygon class="cls-2" points="47.18 28.75 42.9 31.22 38.64 28.75 42.93 26.28 47.18 28.75"/><polygon class="cls-2" points="42.9 31.22 42.92 36.16 38.65 33.69 38.64 28.75 42.9 31.22"/><line class="cls-6" x1="47.18" y1="28.75" x2="42.93" y2="26.28"/><line class="cls-6" x1="47.18" y1="28.75" x2="47.21" y2="33.69"/><line class="cls-6" x1="47.21" y1="33.69" x2="42.92" y2="36.16"/><line class="cls-6" x1="42.92" y1="36.16" x2="38.65" y2="33.69"/><line class="cls-6" x1="38.65" y1="33.69" x2="38.64" y2="28.75"/><line class="cls-6" x1="38.64" y1="28.75" x2="42.93" y2="26.28"/><line class="cls-4" x1="42.9" y1="31.22" x2="42.92" y2="36.16"/><line class="cls-4" x1="42.9" y1="31.22" x2="47.18" y2="28.75"/><line class="cls-4" x1="42.9" y1="31.22" x2="38.64" y2="28.75"/><rect class="cls-7" x="0.05" y="0.05" width="56.69" height="42.52"/><g class="cls-8"><g class="cls-9"><path class="cls-2" d="M18.92,25.62l.82-.48,2.47,1.43-.82.47-2.47-1.42m2.46-.48.82-.48.83.48-.83.48-.82-.48m3.58.48-3.59-2.08L17.8,25.62l3.59,2.07L25,25.62"/><path class="cls-10" d="M17.8,25.62l3.57-2.08L25,25.62l-3.57,2.07L17.8,25.62m7.43-.16.27.16-.27-.16m.54,0-4.14-2.38a.59.59,0,0,0-.52,0L17,25.46a.21.21,0,0,0-.12.16.19.19,0,0,0,.11.15l4.13,2.38a.54.54,0,0,0,.27.06.53.53,0,0,0,.26-.06l4.1-2.38a.19.19,0,0,0,.11-.15.18.18,0,0,0-.1-.16"/><polyline class="cls-10" points="22.21 26.57 19.74 25.14 18.92 25.61 21.39 27.04 22.21 26.57"/><polyline class="cls-10" points="23.03 25.14 22.2 24.66 21.38 25.14 22.2 25.61 23.03 25.14"/><path class="cls-2" d="M24,22.66l.81-.48,2.47,1.43-.81.48L24,22.66m.81-.48.83-.48.82.48-.82.48-.83-.48m2.48.48.81-.48.83.48-.82.47-.82-.47m2.76,0-3.6-2.08-3.57,2.08,3.6,2.07,3.57-2.07"/><path class="cls-10" d="M22.89,22.66l3.57-2.08,3.6,2.08-3.57,2.07-3.6-2.07m7.43-.16.27.16-.27-.16m.53,0-4.13-2.38a.53.53,0,0,0-.26-.06.57.57,0,0,0-.27.06L22.1,22.5a.21.21,0,0,0-.12.16.22.22,0,0,0,.11.15l4.13,2.38a.56.56,0,0,0,.26.07.57.57,0,0,0,.27-.07l4.1-2.38a.19.19,0,0,0,.11-.15.22.22,0,0,0-.11-.16"/><polyline class="cls-10" points="27.3 23.61 24.82 22.18 24 22.66 26.48 24.09 27.3 23.61"/><polyline class="cls-10" points="28.94 22.66 28.11 22.18 27.3 22.66 28.12 23.13 28.94 22.66"/><polyline class="cls-10" points="26.47 22.18 25.65 21.7 24.82 22.18 25.65 22.66 26.47 22.18"/><path class="cls-2" d="M24,28.57l.82-.47,2.47,1.43-.81.47L24,28.57m3.28-.95.83.47-.83.48-.82-.47-.82-.48.82-.48.82.48m2.76.95L26.49,26.5l-3.57,2.07,3.59,2.08,3.57-2.08"/><path class="cls-10" d="M22.92,28.57l3.57-2.07,3.59,2.07-3.57,2.08-3.59-2.08m7.43-.15.27.15-.27-.15m.54,0L26.76,26a.47.47,0,0,0-.27-.07.44.44,0,0,0-.26.07l-4.1,2.38c-.07,0-.12.09-.11.15a.19.19,0,0,0,.11.16l4.12,2.38a.6.6,0,0,0,.27.06.57.57,0,0,0,.27-.06l4.1-2.38a.18.18,0,0,0,.1-.16.18.18,0,0,0-.1-.15"/><polyline class="cls-10" points="27.33 29.53 24.86 28.1 24.04 28.57 26.52 30 27.33 29.53"/><polyline class="cls-10" points="28.15 28.09 27.32 27.62 26.5 28.1 27.32 28.57 28.15 28.09"/><polyline class="cls-10" points="27.32 27.62 26.5 27.14 25.68 27.62 26.5 28.1 27.32 27.62"/><path class="cls-2" d="M29.13,25.62l.81-.48,2.48,1.43-.82.48-2.47-1.43m2.46.47.83-.48.83.48-.83.48-.83-.48m0-.95.82-.48.82.48-.81.47-.83-.47m3.59.47-3.6-2.07L28,25.61l3.6,2.08,3.57-2.08"/><path class="cls-10" d="M28,25.61l3.57-2.07,3.6,2.07-3.57,2.08L28,25.61m7.43-.15.27.16-.27-.16m.53,0-4.12-2.38a.71.71,0,0,0-.27-.07.57.57,0,0,0-.27.07l-4.09,2.38a.21.21,0,0,0-.12.16.24.24,0,0,0,.12.15l4.12,2.38a.55.55,0,0,0,.26.06.58.58,0,0,0,.28-.06L36,25.77a.16.16,0,0,0,0-.31"/><polyline class="cls-10" points="32.42 26.57 29.94 25.14 29.13 25.61 31.6 27.05 32.42 26.57"/><polyline class="cls-10" points="33.23 25.14 32.41 24.66 31.59 25.14 32.42 25.61 33.23 25.14"/><polyline class="cls-10" points="33.25 26.09 32.42 25.61 31.59 26.09 32.42 26.57 33.25 26.09"/></g></g><polyline class="cls-11" points="7.99 26.56 25.75 30.55 27.34 29.62 27.34 29.04 9.58 25.05 9.58 25.63 7.99 26.56"/><polyline class="cls-12" points="12.75 23.82 30.51 27.81 32.1 26.88 32.1 26.3 14.34 22.31 14.34 22.88 12.75 23.82"/><polyline class="cls-13" points="17.52 21.07 35.28 25.07 36.86 24.13 36.86 23.56 19.1 19.57 19.1 20.14 17.52 21.07"/><polyline class="cls-14" points="22.28 18.33 40.04 22.32 41.63 21.39 41.63 20.82 23.87 16.83 23.87 17.4 22.28 18.33"/></g></g></svg>