<svg xmlns="http://www.w3.org/2000/svg" xmlns:xlink="http://www.w3.org/1999/xlink" viewBox="0 0 56.79 42.62"><defs><style>.cls-1,.cls-7,.cls-8,.cls-9{fill:none;}.cls-2{fill:#1c75bc;}.cls-3{fill:#fff;}.cls-4{isolation:isolate;}.cls-5{clip-path:url(#clip-path);}.cls-6{fill:#231f20;}.cls-7,.cls-8,.cls-9{stroke:#231f20;stroke-miterlimit:10;}.cls-7,.cls-8{stroke-linecap:round;}.cls-7{stroke-width:0.5px;}.cls-8{stroke-width:0.2px;}.cls-9{stroke-width:0.1px;}.cls-10{clip-path:url(#clip-path-2);}</style><clipPath id="clip-path"><polygon class="cls-1" points="21.01 28.39 20.97 15.35 32.32 8.8 32.35 21.84 21.01 28.39"/></clipPath><clipPath id="clip-path-2"><polygon class="cls-1" points="14.55 26.95 14.57 18.16 23.93 23.56 23.9 32.35 14.55 26.95"/></clipPath></defs><g id="Layer_2" data-name="Layer 2"><g id="Layer_1-2" data-name="Layer 1"><rect class="cls-2" x="0.05" y="36.62" width="22.42" height="5.95"/><path class="cls-3" d="M1.47,41.15V38h1a1.22,1.22,0,0,1,.58.12.73.73,0,0,1,.34.33,1,1,0,0,1,0,.79.75.75,0,0,1-.18.28.71.71,0,0,1-.31.19,1.25,1.25,0,0,1-.45.07H2v1.33ZM2,39.41H2.5a.67.67,0,0,0,.3-.06A.37.37,0,0,0,3,39.18a.51.51,0,0,0,0-.48.4.4,0,0,0-.18-.16.56.56,0,0,0-.3-.07H2Z"/><path class="cls-3" d="M4,41.15V38h1a1.51,1.51,0,0,1,.61.11.72.72,0,0,1,.35.31,1.06,1.06,0,0,1,.11.48.87.87,0,0,1-.07.35.81.81,0,0,1-.21.3.83.83,0,0,1-.32.2l.69,1.36H5.56l-.65-1.32H4.46v1.32Zm.5-1.73H5a.61.61,0,0,0,.41-.13A.49.49,0,0,0,5.5,39a.53.53,0,0,0-.06-.24.46.46,0,0,0-.17-.17A.57.57,0,0,0,5,38.47h-.5Z"/><path class="cls-3" d="M6.5,41.15V38h2v.41H7v.87H8.22v.42H7v1h1.5v.41Z"/><path class="cls-3" d="M9.36,41.11a1.15,1.15,0,0,1-.45-.28l.24-.42,0,0,0,0a.24.24,0,0,0,0,.08.48.48,0,0,0,.08.1,1.25,1.25,0,0,0,.28.15.84.84,0,0,0,.35.07.88.88,0,0,0,.24,0l.18-.09a.36.36,0,0,0,.11-.14.34.34,0,0,0,0-.18.53.53,0,0,0,0-.13.24.24,0,0,0-.06-.11.38.38,0,0,0-.11-.11,1,1,0,0,0-.19-.12l-.27-.13a2,2,0,0,1-.51-.28.78.78,0,0,1-.27-.31A.73.73,0,0,1,9,38.8a.68.68,0,0,1,.12-.4.89.89,0,0,1,.35-.28A1.19,1.19,0,0,1,10,38a1.34,1.34,0,0,1,.35,0,1.46,1.46,0,0,1,.31.14.92.92,0,0,1,.26.22l-.29.34,0,0,0,0s0-.06,0-.08a.26.26,0,0,0-.07-.1.46.46,0,0,0-.22-.13.79.79,0,0,0-.28,0,.58.58,0,0,0-.19,0,.36.36,0,0,0-.15.08.31.31,0,0,0-.09.11.25.25,0,0,0,0,.14.51.51,0,0,0,0,.13.41.41,0,0,0,.06.11l.11.11.2.12.3.13.39.2a1.1,1.1,0,0,1,.25.21A.59.59,0,0,1,11,40a.88.88,0,0,1,0,.29.83.83,0,0,1-.46.76,1.26,1.26,0,0,1-.62.14A1.48,1.48,0,0,1,9.36,41.11Z"/><path class="cls-3" d="M11.49,41.15V38h2v.41H12v.87h1.24v.42H12v1h1.5v.41Z"/><path class="cls-3" d="M13.91,38h.5l1.15,2.14,0-2.14H16v0a.09.09,0,0,0,0,.07.35.35,0,0,0,0,.12v2.88h-.44l-1.19-2.27v2.27h-.45Z"/><path class="cls-3" d="M17.2,41.11a1.08,1.08,0,0,1-.39-.28,1.26,1.26,0,0,1-.27-.5,2.13,2.13,0,0,1-.1-.71,2.88,2.88,0,0,1,.07-.63,1.77,1.77,0,0,1,.2-.46,1.18,1.18,0,0,1,.29-.3,1,1,0,0,1,.33-.16,1.41,1.41,0,0,1,.35,0,1.08,1.08,0,0,1,.6.16,1,1,0,0,1,.37.45l-.33.22,0,0,0,0a.11.11,0,0,0,0-.08l-.06-.1a.57.57,0,0,0-.23-.19.69.69,0,0,0-.56,0,.78.78,0,0,0-.25.23,1.15,1.15,0,0,0-.16.37,2,2,0,0,0-.06.51,2.57,2.57,0,0,0,.05.5,1.58,1.58,0,0,0,.16.37.69.69,0,0,0,.24.24.67.67,0,0,0,.3.08.85.85,0,0,0,.23,0,.59.59,0,0,0,.2-.12,1.08,1.08,0,0,0,.16-.2l.35.25a1.06,1.06,0,0,1-.4.39,1,1,0,0,1-.54.13A1.12,1.12,0,0,1,17.2,41.11Z"/><path class="cls-3" d="M19.07,41.15V38h2v.41H19.54v.87h1.25v.42H19.54v1H21v.41Z"/><g class="cls-4"><g class="cls-5"><path class="cls-3" d="M27.75,19.22V16.73l2.16-1.25V18l-2.16,1.25m-4.32,5,0-7.46,2.16-1.25,0,7.46L23.43,24.2M31.79,9.72,21.5,15.66l0,11.82,10.28-5.94,0-11.82"/><path class="cls-6" d="M21.54,27.48l0-11.82L31.79,9.72l0,11.82L21.54,27.48M32.05,9,21.23,15.2a.51.51,0,0,0-.18.2.56.56,0,0,0-.08.26l0,12.43a.18.18,0,0,0,.08.17.17.17,0,0,0,.18,0L32.09,22a.57.57,0,0,0,.19-.19.56.56,0,0,0,.07-.26l-.26.15v0l.26-.15,0-12.43a.18.18,0,0,0-.08-.17.19.19,0,0,0-.19,0"/><polyline class="cls-6" points="25.57 15.49 23.41 16.74 23.43 24.2 25.59 22.95 25.57 15.49"/><polyline class="cls-6" points="29.9 15.48 27.74 16.73 27.75 19.21 29.91 17.97 29.9 15.48"/></g></g><polygon class="cls-3" points="35.35 28.19 38.75 26.23 38.76 30.15 35.37 32.11 35.35 28.19"/><line class="cls-7" x1="35.35" y1="28.19" x2="38.75" y2="26.23"/><line class="cls-7" x1="35.37" y1="32.11" x2="35.35" y2="28.19"/><line class="cls-7" x1="35.37" y1="32.11" x2="38.76" y2="30.15"/><line class="cls-7" x1="38.76" y1="30.15" x2="38.75" y2="26.23"/><line class="cls-8" x1="38.75" y1="26.23" x2="38.6" y2="27.72"/><line class="cls-8" x1="35.35" y1="28.19" x2="36.58" y2="28.89"/><line class="cls-8" x1="35.37" y1="32.11" x2="36.58" y2="31.23"/><line class="cls-8" x1="38.61" y1="30.06" x2="38.76" y2="30.15"/><polygon class="cls-3" points="45.11 28.88 45.13 33.82 40.84 36.29 40.83 31.36 45.11 28.88"/><polygon class="cls-3" points="45.11 28.88 40.83 31.36 36.56 28.88 40.85 26.41 45.11 28.88"/><polygon class="cls-3" points="40.83 31.36 40.84 36.29 36.58 33.82 36.56 28.88 40.83 31.36"/><line class="cls-7" x1="45.11" y1="28.88" x2="40.85" y2="26.41"/><line class="cls-7" x1="45.11" y1="28.88" x2="45.13" y2="33.82"/><line class="cls-7" x1="45.13" y1="33.82" x2="40.84" y2="36.29"/><line class="cls-7" x1="40.84" y1="36.29" x2="36.58" y2="33.82"/><line class="cls-7" x1="36.58" y1="33.82" x2="36.56" y2="28.88"/><line class="cls-7" x1="36.56" y1="28.88" x2="40.85" y2="26.41"/><line class="cls-8" x1="40.83" y1="31.35" x2="40.84" y2="36.29"/><line class="cls-8" x1="40.83" y1="31.35" x2="45.11" y2="28.88"/><line class="cls-8" x1="40.83" y1="31.35" x2="36.56" y2="28.88"/><rect class="cls-9" x="0.05" y="0.05" width="56.69" height="42.52"/><g class="cls-4"><g class="cls-10"><path class="cls-6" d="M22.5,22.74a.13.13,0,0,0-.13,0c-.06.05-.06.18,0,.3a8.24,8.24,0,0,1,1.19,4,2.86,2.86,0,0,1-1.21,2.64,3,3,0,0,1-2.9-.3,8.4,8.4,0,0,1-2.88-3,8.28,8.28,0,0,1-1.19-4,4,4,0,0,1,.24-1.44l-.31-.4A4.56,4.56,0,0,0,15,22.1a9,9,0,0,0,1.3,4.37,9,9,0,0,0,3.13,3.31,3.2,3.2,0,0,0,3.16.32,3.14,3.14,0,0,0,1.31-2.86,9.11,9.11,0,0,0-1.29-4.37.4.4,0,0,0-.13-.13"/><polyline class="cls-6" points="16.46 19.46 14.57 19.48 15.31 20.47 15.62 20.87 16.34 21.83 16.46 19.46"/></g></g></g></g></svg>