<svg xmlns="http://www.w3.org/2000/svg" xmlns:xlink="http://www.w3.org/1999/xlink" viewBox="0 0 56.79 42.62"><defs><style>.cls-1,.cls-13,.cls-7,.cls-8,.cls-9{fill:none;}.cls-2{fill:#1c75bc;}.cls-10,.cls-3{fill:#fff;}.cls-4{isolation:isolate;}.cls-5{clip-path:url(#clip-path);}.cls-6{fill:#231f20;}.cls-10,.cls-13,.cls-7,.cls-8,.cls-9{stroke:#231f20;stroke-miterlimit:10;}.cls-10,.cls-13,.cls-7,.cls-8{stroke-linecap:round;}.cls-7{stroke-width:0.5px;}.cls-10,.cls-8{stroke-width:0.2px;}.cls-9{stroke-width:0.1px;}.cls-11{clip-path:url(#clip-path-2);}.cls-12{clip-path:url(#clip-path-3);}.cls-13{stroke-width:0.4px;}</style><clipPath id="clip-path"><polygon class="cls-1" points="16.03 26.24 16.01 19.23 29.88 11.22 29.9 18.23 16.03 26.24"/></clipPath><clipPath id="clip-path-2"><polygon class="cls-1" points="17.21 20.23 17.2 13.74 22.84 10.48 22.86 16.97 17.21 20.23"/></clipPath><clipPath id="clip-path-3"><polygon class="cls-1" points="18 20.65 17.98 14.16 23.62 10.9 23.64 17.39 18 20.65"/></clipPath></defs><g id="Layer_2" data-name="Layer 2"><g id="Layer_1-2" data-name="Layer 1"><rect class="cls-2" x="0.05" y="36.62" width="22.42" height="5.95"/><path class="cls-3" d="M1.47,41.15V38h1a1.22,1.22,0,0,1,.58.12.73.73,0,0,1,.34.33,1,1,0,0,1,0,.79.75.75,0,0,1-.18.28.71.71,0,0,1-.31.19,1.25,1.25,0,0,1-.45.07H2v1.33ZM2,39.41H2.5a.67.67,0,0,0,.3-.06A.37.37,0,0,0,3,39.18a.51.51,0,0,0,0-.48.49.49,0,0,0-.18-.17.67.67,0,0,0-.3-.06H2Z"/><path class="cls-3" d="M4,41.15V38h1a1.36,1.36,0,0,1,.61.11.76.76,0,0,1,.35.31,1,1,0,0,1,.11.48.87.87,0,0,1-.07.35.81.81,0,0,1-.21.3.83.83,0,0,1-.32.2l.69,1.36H5.56l-.65-1.32H4.46v1.32Zm.5-1.73H5a.61.61,0,0,0,.41-.13A.49.49,0,0,0,5.5,39a.53.53,0,0,0-.06-.24.46.46,0,0,0-.17-.17A.57.57,0,0,0,5,38.47h-.5Z"/><path class="cls-3" d="M6.5,41.15V38h2v.41H7v.87H8.23v.42H7v1h1.5v.41Z"/><path class="cls-3" d="M9.36,41.11a1.15,1.15,0,0,1-.45-.28l.24-.42,0,0,0,0,0,.08a.48.48,0,0,0,.08.1,1.25,1.25,0,0,0,.28.15.84.84,0,0,0,.35.07.88.88,0,0,0,.24,0l.18-.09a.36.36,0,0,0,.11-.14.34.34,0,0,0,0-.18.53.53,0,0,0,0-.13.24.24,0,0,0-.06-.11.29.29,0,0,0-.11-.11,1,1,0,0,0-.19-.12l-.27-.13a2,2,0,0,1-.51-.28.78.78,0,0,1-.27-.31A.86.86,0,0,1,9,38.8a.68.68,0,0,1,.12-.4.89.89,0,0,1,.35-.28A1.19,1.19,0,0,1,10,38a1.29,1.29,0,0,1,.35,0,1.46,1.46,0,0,1,.31.14.92.92,0,0,1,.26.22l-.29.34,0,0,0,0s0-.06,0-.08a.26.26,0,0,0-.07-.1.46.46,0,0,0-.22-.13.79.79,0,0,0-.28,0,.58.58,0,0,0-.19,0,.36.36,0,0,0-.15.08.31.31,0,0,0-.09.11.25.25,0,0,0,0,.14.51.51,0,0,0,0,.13.41.41,0,0,0,.06.11.44.44,0,0,0,.12.11l.19.12.3.13.39.2a1.1,1.1,0,0,1,.25.21A.59.59,0,0,1,11,40a.88.88,0,0,1,0,.29.86.86,0,0,1-.11.43.93.93,0,0,1-.35.33,1.26,1.26,0,0,1-.62.14A1.48,1.48,0,0,1,9.36,41.11Z"/><path class="cls-3" d="M11.49,41.15V38h2v.41H12v.87h1.24v.42H12v1h1.5v.41Z"/><path class="cls-3" d="M13.91,38h.5l1.15,2.14,0-2.14H16v0a.08.08,0,0,0,0,.07.35.35,0,0,0,0,.12v2.88h-.44l-1.19-2.27v2.27h-.45Z"/><path class="cls-3" d="M17.2,41.11a1,1,0,0,1-.39-.29,1.16,1.16,0,0,1-.27-.49,2.13,2.13,0,0,1-.1-.71,2.88,2.88,0,0,1,.07-.63,1.77,1.77,0,0,1,.2-.46,1.38,1.38,0,0,1,.29-.3,1.12,1.12,0,0,1,.33-.16,1.06,1.06,0,0,1,.35,0,1.08,1.08,0,0,1,.6.16,1,1,0,0,1,.37.45l-.33.22,0,0,0,0a.11.11,0,0,0,0-.08l-.06-.1a.57.57,0,0,0-.23-.19.69.69,0,0,0-.56,0,.78.78,0,0,0-.25.23,1.15,1.15,0,0,0-.16.37,2,2,0,0,0-.06.51,2.57,2.57,0,0,0,.05.5,1.25,1.25,0,0,0,.16.37.69.69,0,0,0,.24.24.64.64,0,0,0,.3.08.85.85,0,0,0,.23,0,.59.59,0,0,0,.2-.12,1.08,1.08,0,0,0,.16-.2l.35.25a1,1,0,0,1-.4.39,1,1,0,0,1-.54.13A1.12,1.12,0,0,1,17.2,41.11Z"/><path class="cls-3" d="M19.07,41.15V38h2v.41H19.54v.87h1.25v.42H19.54v1H21v.41Z"/><g class="cls-4"><g class="cls-5"><path class="cls-3" d="M19.63,21.29V20l1.12-.65v1.28l-1.12.65m-2.22,2.57V20l1.11-.64v3.84l-1.11.65m4.18-7.25-5,2.92v5.79l5.05-2.91,0-5.8"/><path class="cls-6" d="M16.56,25.32V19.53l5-2.92,0,5.8-5.05,2.91m5.29-9.47-5.57,3.22a.6.6,0,0,0-.27.46l0,6.4a.18.18,0,0,0,.08.17.17.17,0,0,0,.19,0l5.57-3.22a.53.53,0,0,0,.19-.2.56.56,0,0,0,.08-.27l-.27.16v0l.27-.16,0-6.4a.19.19,0,0,0-.08-.17.19.19,0,0,0-.19,0"/><polyline class="cls-6" points="18.51 19.37 17.4 20.01 17.41 23.86 18.52 23.21 18.51 19.37"/><polyline class="cls-6" points="20.75 19.36 19.63 20.01 19.64 21.29 20.75 20.64 20.75 19.36"/><path class="cls-3" d="M27.4,16.8V15.53l1.12-.65v1.28l-1.11.64m-2.23,2.58V15.53l1.11-.64v2.56l1.11-.64v1.28l-1.11.64-1.11.65m4.18-7.24L24.3,15.05l0,5.79,5-2.91V12.14"/><path class="cls-6" d="M24.32,20.84l0-5.79,5.05-2.91v5.79l-5,2.91m5.29-9.47L24,14.59a.53.53,0,0,0-.19.2.61.61,0,0,0-.08.26l0,6.4a.22.22,0,0,0,.08.18.23.23,0,0,0,.19,0l5.57-3.22a.5.5,0,0,0,.19-.19.59.59,0,0,0,.08-.27l-.27.16v0l.27-.16,0-6.4a.19.19,0,0,0-.08-.17s-.11,0-.19,0"/><polyline class="cls-6" points="26.27 14.89 25.16 15.53 25.17 19.38 26.29 18.73 26.27 18.74 26.27 17.45 26.28 17.45 26.27 14.89"/><polyline class="cls-6" points="28.51 14.88 27.39 15.53 27.4 16.8 28.51 16.16 28.51 14.88"/><polyline class="cls-6" points="27.39 16.81 26.28 17.45 26.27 17.45 26.27 18.74 26.29 18.73 27.39 18.09 27.39 16.81"/></g></g><polygon class="cls-3" points="38.76 30.15 35.37 32.11 35.35 28.19 38.75 26.23 38.76 30.15"/><line class="cls-7" x1="35.35" y1="28.19" x2="38.75" y2="26.23"/><line class="cls-7" x1="35.37" y1="32.11" x2="35.35" y2="28.19"/><line class="cls-7" x1="35.37" y1="32.11" x2="38.76" y2="30.15"/><line class="cls-7" x1="38.76" y1="30.15" x2="38.75" y2="26.23"/><line class="cls-8" x1="38.75" y1="26.23" x2="38.6" y2="27.72"/><line class="cls-8" x1="35.35" y1="28.19" x2="36.58" y2="28.89"/><line class="cls-8" x1="35.37" y1="32.11" x2="36.58" y2="31.23"/><line class="cls-8" x1="38.61" y1="30.06" x2="38.76" y2="30.15"/><polygon class="cls-3" points="45.11 28.88 45.13 33.82 40.84 36.29 40.83 31.36 45.11 28.88"/><polygon class="cls-3" points="45.11 28.88 40.83 31.36 36.56 28.88 40.85 26.41 45.11 28.88"/><polygon class="cls-3" points="40.83 31.36 40.84 36.29 36.58 33.82 36.56 28.88 40.83 31.36"/><line class="cls-7" x1="45.11" y1="28.88" x2="40.85" y2="26.41"/><line class="cls-7" x1="45.11" y1="28.88" x2="45.13" y2="33.82"/><line class="cls-7" x1="45.13" y1="33.82" x2="40.84" y2="36.29"/><line class="cls-7" x1="40.84" y1="36.29" x2="36.58" y2="33.82"/><line class="cls-7" x1="36.58" y1="33.82" x2="36.56" y2="28.88"/><line class="cls-7" x1="36.56" y1="28.88" x2="40.85" y2="26.41"/><line class="cls-8" x1="40.83" y1="31.35" x2="40.84" y2="36.29"/><line class="cls-8" x1="40.83" y1="31.35" x2="45.11" y2="28.88"/><line class="cls-8" x1="40.83" y1="31.35" x2="36.56" y2="28.88"/><rect class="cls-9" x="0.05" y="0.05" width="56.69" height="42.52"/><polygon class="cls-10" points="14.62 13.08 16.75 14.32 16.76 30.82 14.63 29.58 14.62 13.08"/><polygon class="cls-10" points="22.51 8.55 24.64 9.78 24.64 26.29 22.51 25.05 22.51 8.55"/><polygon class="cls-10" points="30.39 4.01 32.52 5.25 32.53 21.75 30.4 20.52 30.39 4.01"/><g class="cls-4"><g class="cls-11"><path class="cls-3" d="M20,12.68a5.13,5.13,0,0,0-2.32,4c0,1.47,1.05,2.06,2.33,1.32a5.09,5.09,0,0,0,2.32-4l.25-.14-.25.14c0-1.47-1.05-2.07-2.33-1.33"/><path class="cls-6" d="M20,12.11A6.21,6.21,0,0,0,17.2,17c0,1.79,1.28,2.52,2.84,1.62a6.25,6.25,0,0,0,2.81-4.88l-.25.15-.25.14A5.09,5.09,0,0,1,20,18c-1.28.74-2.32.15-2.33-1.32a5.13,5.13,0,0,1,2.32-4c1.28-.74,2.33-.14,2.33,1.33l.25-.14.25-.15c0-1.79-1.27-2.51-2.83-1.61"/></g></g><g class="cls-4"><g class="cls-12"><path class="cls-3" d="M20.8,13.11a5.08,5.08,0,0,0-2.31,4c0,1.47,1,2.07,2.33,1.33a5.1,5.1,0,0,0,2.31-4l.25-.14-.25.14c0-1.47-1-2.07-2.33-1.32"/><path class="cls-6" d="M20.8,12.53A6.2,6.2,0,0,0,18,17.41c0,1.79,1.27,2.51,2.83,1.61a6.18,6.18,0,0,0,2.81-4.87l-.25.14-.25.14a5.1,5.1,0,0,1-2.31,4c-1.29.74-2.33.14-2.33-1.33a5.08,5.08,0,0,1,2.31-4c1.29-.75,2.33-.15,2.33,1.32l.25-.14.25-.14c0-1.79-1.27-2.52-2.83-1.62"/></g></g><line class="cls-13" x1="18.5" y1="12.33" x2="18.5" y2="8.91"/><line class="cls-13" x1="19.79" y1="11.18" x2="19.79" y2="8.32"/><line class="cls-13" x1="21.17" y1="11.03" x2="21.17" y2="9.9"/><line class="cls-13" x1="21.17" y1="9.27" x2="21.17" y2="8.91"/><line class="cls-13" x1="18.5" y1="8.25" x2="18.5" y2="7.9"/><line class="cls-13" x1="19.79" y1="7.71" x2="19.79" y2="6.65"/></g></g></svg>