<svg xmlns="http://www.w3.org/2000/svg" xmlns:xlink="http://www.w3.org/1999/xlink" viewBox="0 0 56.79 42.62"><defs><style>.cls-1,.cls-4,.cls-5,.cls-6{fill:none;}.cls-2{fill:#1c75bc;}.cls-3{fill:#fff;}.cls-4,.cls-5,.cls-6{stroke:#231f20;stroke-miterlimit:10;}.cls-4,.cls-5{stroke-linecap:round;}.cls-4{stroke-width:0.5px;}.cls-5{stroke-width:0.2px;}.cls-6{stroke-width:0.1px;}.cls-7{isolation:isolate;}.cls-8{clip-path:url(#clip-path);}.cls-9{fill:#231f20;}.cls-10{clip-path:url(#clip-path-2);}</style><clipPath id="clip-path"><polygon class="cls-1" points="29.8 25.95 29.78 18.94 35.89 15.41 35.91 22.43 29.8 25.95"/></clipPath><clipPath id="clip-path-2"><polygon class="cls-1" points="17.76 31.65 17.74 24.63 23.84 21.1 23.86 28.12 17.76 31.65"/></clipPath></defs><g id="Layer_2" data-name="Layer 2"><g id="Layer_1-2" data-name="Layer 1"><rect class="cls-2" x="0.05" y="36.62" width="22.42" height="5.95"/><path class="cls-3" d="M1.47,41.15V38h1a1.22,1.22,0,0,1,.58.12.73.73,0,0,1,.34.33.84.84,0,0,1,.11.45.93.93,0,0,1-.06.34.75.75,0,0,1-.18.28.83.83,0,0,1-.31.2,1.53,1.53,0,0,1-.45.06H2v1.33ZM2,39.41H2.5a.67.67,0,0,0,.3-.06A.37.37,0,0,0,3,39.18a.51.51,0,0,0,0-.48.4.4,0,0,0-.18-.16.56.56,0,0,0-.3-.07H2Z"/><path class="cls-3" d="M4,41.15V38h1a1.51,1.51,0,0,1,.61.11.73.73,0,0,1,.35.32.88.88,0,0,1,.11.47.84.84,0,0,1-.07.35.86.86,0,0,1-.53.5l.69,1.36H5.56l-.65-1.32H4.46v1.32Zm.5-1.73H5a.56.56,0,0,0,.41-.13A.48.48,0,0,0,5.5,39a.53.53,0,0,0-.06-.24.46.46,0,0,0-.17-.17A.57.57,0,0,0,5,38.47h-.5Z"/><path class="cls-3" d="M6.5,41.15V38h2v.41H7v.87H8.22v.42H7v1h1.5v.41Z"/><path class="cls-3" d="M9.36,41.11a1.15,1.15,0,0,1-.45-.28l.24-.42,0,0,0,0a.24.24,0,0,0,0,.08.48.48,0,0,0,.08.1,1.87,1.87,0,0,0,.28.16,1,1,0,0,0,.35.06.88.88,0,0,0,.24,0l.18-.09a.36.36,0,0,0,.11-.14.34.34,0,0,0,0-.18.53.53,0,0,0,0-.13.24.24,0,0,0-.06-.11.38.38,0,0,0-.11-.11,1,1,0,0,0-.19-.12l-.27-.13a2,2,0,0,1-.51-.28.78.78,0,0,1-.27-.31A.86.86,0,0,1,9,38.8a.68.68,0,0,1,.12-.4.89.89,0,0,1,.35-.28A1.19,1.19,0,0,1,10,38a1.29,1.29,0,0,1,.35,0,1.46,1.46,0,0,1,.31.14.92.92,0,0,1,.26.22l-.29.34,0,0,0,0s0-.06,0-.08a.26.26,0,0,0-.07-.1.46.46,0,0,0-.22-.13.79.79,0,0,0-.28,0,.58.58,0,0,0-.19,0,.36.36,0,0,0-.15.08.31.31,0,0,0-.09.11.25.25,0,0,0,0,.14.51.51,0,0,0,0,.13.41.41,0,0,0,.06.11.44.44,0,0,0,.12.11,1,1,0,0,0,.19.12l.3.13a2.75,2.75,0,0,1,.39.21.88.88,0,0,1,.25.2A.59.59,0,0,1,11,40a.88.88,0,0,1,0,.29.84.84,0,0,1-.11.43.86.86,0,0,1-.35.33,1.26,1.26,0,0,1-.62.14A1.48,1.48,0,0,1,9.36,41.11Z"/><path class="cls-3" d="M11.49,41.15V38h2v.41H12v.87h1.24v.42H12v1h1.5v.41Z"/><path class="cls-3" d="M13.91,38h.51l1.14,2.14,0-2.14H16v0a.08.08,0,0,0,0,.07.35.35,0,0,0,0,.12v2.88h-.44l-1.19-2.27v2.27h-.45Z"/><path class="cls-3" d="M17.2,41.11a1.08,1.08,0,0,1-.39-.28,1.26,1.26,0,0,1-.27-.5,2.13,2.13,0,0,1-.1-.71,2.88,2.88,0,0,1,.07-.63,1.77,1.77,0,0,1,.2-.46,1.38,1.38,0,0,1,.29-.3,1.12,1.12,0,0,1,.33-.16,1.41,1.41,0,0,1,.35,0,1.05,1.05,0,0,1,.6.16,1,1,0,0,1,.37.45l-.33.22,0,0,0,0a.09.09,0,0,0,0-.07.64.64,0,0,0-.06-.11.57.57,0,0,0-.23-.19.69.69,0,0,0-.56,0,.78.78,0,0,0-.25.23,1.15,1.15,0,0,0-.16.37,2,2,0,0,0-.06.51,2.57,2.57,0,0,0,.05.5,1.58,1.58,0,0,0,.16.37.69.69,0,0,0,.24.24.56.56,0,0,0,.3.08.85.85,0,0,0,.23,0,.59.59,0,0,0,.2-.12.83.83,0,0,0,.16-.2l.35.25a1.09,1.09,0,0,1-.4.4,1.13,1.13,0,0,1-.54.12A1.12,1.12,0,0,1,17.2,41.11Z"/><path class="cls-3" d="M19.07,41.15V38h2v.41H19.54v.87h1.25v.42H19.54v1H21v.41Z"/><polygon class="cls-3" points="35.35 28.19 38.75 26.23 38.76 30.15 35.37 32.11 35.35 28.19"/><line class="cls-4" x1="35.35" y1="28.19" x2="38.75" y2="26.23"/><line class="cls-4" x1="35.37" y1="32.11" x2="35.35" y2="28.19"/><line class="cls-4" x1="35.37" y1="32.11" x2="38.76" y2="30.15"/><line class="cls-4" x1="38.76" y1="30.15" x2="38.75" y2="26.23"/><line class="cls-5" x1="38.75" y1="26.23" x2="38.6" y2="27.72"/><line class="cls-5" x1="35.35" y1="28.19" x2="36.58" y2="28.89"/><line class="cls-5" x1="35.37" y1="32.11" x2="36.58" y2="31.23"/><line class="cls-5" x1="38.61" y1="30.06" x2="38.76" y2="30.15"/><polygon class="cls-3" points="45.11 28.88 45.13 33.82 40.84 36.29 40.83 31.36 45.11 28.88"/><polygon class="cls-3" points="45.11 28.88 40.83 31.36 36.56 28.88 40.85 26.41 45.11 28.88"/><polygon class="cls-3" points="40.83 31.36 40.84 36.29 36.58 33.82 36.56 28.88 40.83 31.36"/><line class="cls-4" x1="45.11" y1="28.88" x2="40.85" y2="26.41"/><line class="cls-4" x1="45.11" y1="28.88" x2="45.13" y2="33.82"/><line class="cls-4" x1="45.13" y1="33.82" x2="40.84" y2="36.29"/><line class="cls-4" x1="40.84" y1="36.29" x2="36.58" y2="33.82"/><line class="cls-4" x1="36.58" y1="33.82" x2="36.56" y2="28.88"/><line class="cls-4" x1="36.56" y1="28.88" x2="40.85" y2="26.41"/><line class="cls-5" x1="40.83" y1="31.35" x2="40.84" y2="36.29"/><line class="cls-5" x1="40.83" y1="31.35" x2="45.11" y2="28.88"/><line class="cls-5" x1="40.83" y1="31.35" x2="36.56" y2="28.88"/><rect class="cls-6" x="0.05" y="0.05" width="56.69" height="42.52"/><polygon class="cls-3" points="36.22 10.9 36.24 22.68 29.47 26.59 29.45 14.81 36.22 10.9"/><polygon class="cls-3" points="36.22 10.9 29.45 14.81 22.71 10.9 29.48 6.98 36.22 10.9"/><polygon class="cls-3" points="29.45 14.81 29.47 26.59 22.73 22.68 22.71 10.9 29.45 14.81"/><line class="cls-4" x1="36.22" y1="10.9" x2="29.48" y2="6.98"/><line class="cls-4" x1="36.22" y1="10.9" x2="36.24" y2="22.68"/><line class="cls-4" x1="36.24" y1="22.68" x2="29.47" y2="26.59"/><line class="cls-4" x1="29.47" y1="26.59" x2="22.73" y2="22.68"/><line class="cls-4" x1="22.73" y1="22.68" x2="22.71" y2="10.9"/><line class="cls-4" x1="22.71" y1="10.9" x2="29.48" y2="6.98"/><line class="cls-5" x1="29.45" y1="14.81" x2="29.47" y2="26.59"/><line class="cls-5" x1="29.45" y1="14.81" x2="36.22" y2="10.9"/><line class="cls-5" x1="29.45" y1="14.81" x2="22.71" y2="10.9"/><g class="cls-7"><g class="cls-8"><path class="cls-3" d="M33.4,21V19.72l1.12-.64v1.27L33.4,21m-2.22,2.57V19.73l1.11-.65v2.56L33.4,21v1.29l-1.11.63-1.11.65m4.18-7.24-5.05,2.91,0,5.8,5-2.92V16.33"/><path class="cls-9" d="M30.33,25l0-5.8,5.05-2.91v5.79l-5,2.92m5.29-9.47L30,18.79a.47.47,0,0,0-.18.19.56.56,0,0,0-.08.27l0,6.4a.19.19,0,0,0,.08.17.17.17,0,0,0,.18,0l5.58-3.22a.53.53,0,0,0,.19-.2.49.49,0,0,0,.08-.25l-.27.15v0l.27-.15,0-6.41a.18.18,0,0,0-.08-.17.19.19,0,0,0-.19,0"/><polyline class="cls-9" points="32.28 19.08 31.17 19.73 31.18 23.57 32.3 22.93 32.28 22.93 32.28 21.65 32.29 21.64 32.28 19.08"/><polyline class="cls-9" points="34.52 19.08 33.4 19.72 33.4 21 34.52 20.36 34.52 19.08"/><polyline class="cls-9" points="33.4 21 32.29 21.64 32.28 21.65 32.28 22.93 32.3 22.93 33.4 22.29 33.4 21"/></g></g><polygon class="cls-3" points="24.18 20.58 24.2 28.38 17.43 32.28 17.41 24.51 24.18 20.58"/><polygon class="cls-3" points="24.18 20.58 17.41 24.51 10.67 20.58 17.44 16.67 24.18 20.58"/><polygon class="cls-3" points="17.41 24.51 17.43 32.28 10.69 28.38 10.67 20.58 17.41 24.51"/><line class="cls-4" x1="24.18" y1="20.58" x2="17.44" y2="16.67"/><line class="cls-4" x1="24.18" y1="20.58" x2="24.2" y2="28.38"/><line class="cls-4" x1="24.2" y1="28.38" x2="17.42" y2="32.28"/><line class="cls-4" x1="17.42" y1="32.28" x2="10.69" y2="28.38"/><line class="cls-4" x1="10.69" y1="28.38" x2="10.67" y2="20.58"/><line class="cls-4" x1="10.67" y1="20.58" x2="17.44" y2="16.67"/><line class="cls-5" x1="17.41" y1="24.51" x2="17.42" y2="32.28"/><line class="cls-5" x1="17.41" y1="24.51" x2="24.18" y2="20.58"/><line class="cls-5" x1="17.41" y1="24.51" x2="10.67" y2="20.58"/><g class="cls-7"><g class="cls-10"><path class="cls-3" d="M21.36,26.7V25.41l1.11-.64v1.28l-1.12.65m-2.22,2.57,0-3.85,1.12-.64v3.84l-1.11.65M23.32,22l-5.05,2.92,0,5.79,5-2.91V22"/><path class="cls-9" d="M18.29,30.73l0-5.79L23.32,22v5.8l-5,2.91m5.29-9.48L18,24.47a.63.63,0,0,0-.18.21.49.49,0,0,0-.08.25l0,6.41a.18.18,0,0,0,.08.17.17.17,0,0,0,.18,0l5.58-3.23a.43.43,0,0,0,.19-.19.54.54,0,0,0,.07-.27L23.6,28v0l.26-.16v-6.4a.18.18,0,0,0-.08-.17.21.21,0,0,0-.19,0"/><polyline class="cls-9" points="20.24 24.78 19.12 25.42 19.14 29.27 20.25 28.62 20.24 24.78"/><polyline class="cls-9" points="22.47 24.77 21.36 25.41 21.36 26.7 22.48 26.05 22.47 24.77"/></g></g></g></g></svg>