<svg xmlns="http://www.w3.org/2000/svg" xmlns:xlink="http://www.w3.org/1999/xlink" viewBox="0 0 56.79 42.62"><defs><style>.cls-1,.cls-10,.cls-2,.cls-8,.cls-9{fill:none;}.cls-10,.cls-11,.cls-2,.cls-8,.cls-9{stroke:#231f20;}.cls-11,.cls-2,.cls-8,.cls-9{stroke-linecap:round;}.cls-11,.cls-2{stroke-linejoin:round;}.cls-11,.cls-2,.cls-8{stroke-width:0.5px;}.cls-3{fill:#1c75bc;}.cls-11,.cls-4{fill:#fff;}.cls-5{isolation:isolate;}.cls-6{clip-path:url(#clip-path);}.cls-7{fill:#231f20;}.cls-10,.cls-8,.cls-9{stroke-miterlimit:10;}.cls-9{stroke-width:0.2px;}.cls-10{stroke-width:0.1px;}.cls-11{fill-opacity:0.75;}.cls-12{clip-path:url(#clip-path-2);}</style><clipPath id="clip-path"><polygon class="cls-1" points="23.58 29.18 23.56 20.28 31.3 15.81 31.33 24.71 23.58 29.18"/></clipPath><clipPath id="clip-path-2"><polygon class="cls-1" points="4.45 13.73 20 4.7 28.05 9.34 12.49 18.38 4.45 13.73"/></clipPath></defs><g id="Layer_2" data-name="Layer 2"><g id="Layer_1-2" data-name="Layer 1"><polyline class="cls-2" points="32.84 22.12 20.55 15.06 20.55 9.15 32.84 16.21"/><polygon class="cls-2" points="21.89 20.22 21.89 26.08 11.57 20.12 11.57 14.26 21.89 20.22"/><rect class="cls-3" x="0.05" y="36.62" width="22.42" height="5.95"/><path class="cls-4" d="M1.47,41.15V38h1a1.22,1.22,0,0,1,.58.12.73.73,0,0,1,.34.33.84.84,0,0,1,.11.45.93.93,0,0,1-.06.34.75.75,0,0,1-.18.28.71.71,0,0,1-.31.19,1.25,1.25,0,0,1-.45.07H2v1.33ZM2,39.41H2.5a.67.67,0,0,0,.3-.06A.37.37,0,0,0,3,39.18a.51.51,0,0,0,0-.48.4.4,0,0,0-.18-.16.56.56,0,0,0-.3-.07H2Z"/><path class="cls-4" d="M4,41.15V38h1a1.51,1.51,0,0,1,.61.11.72.72,0,0,1,.35.31,1,1,0,0,1,.11.48.87.87,0,0,1-.07.35.81.81,0,0,1-.21.3.83.83,0,0,1-.32.2l.69,1.36H5.56l-.65-1.32H4.46v1.32Zm.5-1.73H5a.61.61,0,0,0,.41-.13A.49.49,0,0,0,5.5,39a.53.53,0,0,0-.06-.24.46.46,0,0,0-.17-.17A.57.57,0,0,0,5,38.47h-.5Z"/><path class="cls-4" d="M6.5,41.15V38h2v.41H7v.87H8.22v.42H7v1h1.5v.41Z"/><path class="cls-4" d="M9.36,41.11a1.15,1.15,0,0,1-.45-.28l.24-.42,0,0,0,0a.24.24,0,0,0,0,.08.48.48,0,0,0,.08.1,1.25,1.25,0,0,0,.28.15.84.84,0,0,0,.35.07.88.88,0,0,0,.24,0l.18-.09a.36.36,0,0,0,.11-.14.34.34,0,0,0,0-.18.53.53,0,0,0,0-.13.24.24,0,0,0-.06-.11.38.38,0,0,0-.11-.11,1,1,0,0,0-.19-.12l-.27-.13a2,2,0,0,1-.51-.28.78.78,0,0,1-.27-.31A.86.86,0,0,1,9,38.8a.68.68,0,0,1,.12-.4.89.89,0,0,1,.35-.28A1.19,1.19,0,0,1,10,38a1.29,1.29,0,0,1,.35,0,1.46,1.46,0,0,1,.31.14.92.92,0,0,1,.26.22l-.29.34,0,0,0,0s0-.06,0-.08a.26.26,0,0,0-.07-.1.46.46,0,0,0-.22-.13.79.79,0,0,0-.28,0,.58.58,0,0,0-.19,0,.36.36,0,0,0-.15.08.31.31,0,0,0-.09.11.25.25,0,0,0,0,.14.51.51,0,0,0,0,.13.41.41,0,0,0,.06.11.44.44,0,0,0,.12.11l.19.12.3.13.39.2a1.1,1.1,0,0,1,.25.21A.59.59,0,0,1,11,40a.88.88,0,0,1,0,.29.83.83,0,0,1-.46.76,1.26,1.26,0,0,1-.62.14A1.48,1.48,0,0,1,9.36,41.11Z"/><path class="cls-4" d="M11.49,41.15V38h2v.41H12v.87h1.24v.42H12v1h1.5v.41Z"/><path class="cls-4" d="M13.91,38h.51l1.14,2.14,0-2.14H16v0a.08.08,0,0,0,0,.07.35.35,0,0,0,0,.12v2.88h-.44l-1.19-2.27v2.27h-.45Z"/><path class="cls-4" d="M17.2,41.11a1.08,1.08,0,0,1-.39-.28,1.26,1.26,0,0,1-.27-.5,2.13,2.13,0,0,1-.1-.71,2.88,2.88,0,0,1,.07-.63,1.77,1.77,0,0,1,.2-.46,1.38,1.38,0,0,1,.29-.3,1.12,1.12,0,0,1,.33-.16,1.41,1.41,0,0,1,.35,0,1.05,1.05,0,0,1,.6.16,1,1,0,0,1,.37.45l-.33.22,0,0,0,0a.11.11,0,0,0,0-.08l-.06-.1a.57.57,0,0,0-.23-.19.69.69,0,0,0-.56,0,.78.78,0,0,0-.25.23,1.15,1.15,0,0,0-.16.37,2,2,0,0,0-.06.51,2.57,2.57,0,0,0,.05.5,1.58,1.58,0,0,0,.16.37.69.69,0,0,0,.24.24.67.67,0,0,0,.3.08.85.85,0,0,0,.23,0,.59.59,0,0,0,.2-.12,1.08,1.08,0,0,0,.16-.2l.35.25a1,1,0,0,1-.4.39,1,1,0,0,1-.54.13A1.12,1.12,0,0,1,17.2,41.11Z"/><path class="cls-4" d="M19.07,41.15V38h2v.41H19.54v.87h1.25v.42H19.54v1H21v.41Z"/><g class="cls-5"><g class="cls-6"><path class="cls-4" d="M28.16,22.91V21.25l1.44-.83v1.66l-1.44.83m-2.87,3.31,0-5,1.44-.83v5l-1.43.82m5.48-9.49-6.68,3.86,0,7.67,6.68-3.85,0-7.68"/><path class="cls-7" d="M24.11,28.26l0-7.67,6.68-3.86,0,7.68-6.68,3.85M31,16l-7.21,4.16a.65.65,0,0,0-.19.21.51.51,0,0,0-.07.26l0,8.28a.21.21,0,0,0,.08.18.2.2,0,0,0,.19,0l7.21-4.16a.47.47,0,0,0,.18-.19.62.62,0,0,0,.09-.27l-.27.15v0l.27-.15,0-8.28a.18.18,0,0,0-.08-.17A.19.19,0,0,0,31,16"/><polyline class="cls-7" points="26.71 20.43 25.27 21.26 25.29 26.23 26.72 25.39 26.71 20.43"/><polyline class="cls-7" points="29.6 20.42 28.16 21.25 28.16 22.91 29.61 22.08 29.6 20.42"/></g></g><polygon class="cls-4" points="35.37 32.11 35.35 28.19 38.75 26.23 38.76 30.15 35.37 32.11"/><line class="cls-8" x1="35.35" y1="28.19" x2="38.75" y2="26.23"/><line class="cls-8" x1="35.37" y1="32.11" x2="35.35" y2="28.19"/><line class="cls-8" x1="35.37" y1="32.11" x2="38.76" y2="30.15"/><line class="cls-8" x1="38.76" y1="30.15" x2="38.75" y2="26.23"/><line class="cls-9" x1="38.75" y1="26.23" x2="38.6" y2="27.72"/><line class="cls-9" x1="35.35" y1="28.19" x2="36.58" y2="28.89"/><line class="cls-9" x1="35.37" y1="32.11" x2="36.58" y2="31.23"/><line class="cls-9" x1="38.61" y1="30.06" x2="38.76" y2="30.15"/><polygon class="cls-4" points="45.11 28.88 45.13 33.82 40.84 36.29 40.83 31.36 45.11 28.88"/><polygon class="cls-4" points="45.11 28.88 40.83 31.36 36.56 28.88 40.85 26.41 45.11 28.88"/><polygon class="cls-4" points="40.83 31.36 40.84 36.29 36.58 33.82 36.56 28.88 40.83 31.36"/><line class="cls-8" x1="45.11" y1="28.88" x2="40.85" y2="26.41"/><line class="cls-8" x1="45.11" y1="28.88" x2="45.13" y2="33.82"/><line class="cls-8" x1="45.13" y1="33.82" x2="40.84" y2="36.29"/><line class="cls-8" x1="40.84" y1="36.29" x2="36.58" y2="33.82"/><line class="cls-8" x1="36.58" y1="33.82" x2="36.56" y2="28.88"/><line class="cls-8" x1="36.56" y1="28.88" x2="40.85" y2="26.41"/><line class="cls-9" x1="40.83" y1="31.35" x2="40.84" y2="36.29"/><line class="cls-9" x1="40.83" y1="31.35" x2="45.11" y2="28.88"/><line class="cls-9" x1="40.83" y1="31.35" x2="36.56" y2="28.88"/><rect class="cls-10" x="0.05" y="0.05" width="56.69" height="42.52"/><polyline class="cls-11" points="32.84 16.21 32.84 22.12 30.39 28.3 30.39 22.1 32.84 16.21"/><g class="cls-5"><g class="cls-12"><path class="cls-7" d="M27.88,9.24A17.19,17.19,0,0,0,16.42,7.73L16.6,8A16.45,16.45,0,0,1,27.53,9.44a.34.34,0,0,0,.34,0c.1-.06.1-.15,0-.2"/><polyline class="cls-7" points="15.95 7.05 14.1 8.41 17.06 8.66 16.6 8 16.42 7.73 15.95 7.05"/><path class="cls-7" d="M10.14,11.75l-.46-.1c-1.34,2.24-.46,4.83,2.64,6.63a.39.39,0,0,0,.35,0c.1-.05.1-.14,0-.2-3-1.71-3.81-4.18-2.54-6.32"/><polyline class="cls-7" points="10.84 10.3 8.5 11.38 9.68 11.65 10.14 11.75 11.29 12.02 10.84 10.3"/></g></g></g></g></svg>