<svg xmlns="http://www.w3.org/2000/svg" xmlns:xlink="http://www.w3.org/1999/xlink" viewBox="0 0 56.79 42.62"><defs><style>.cls-1,.cls-11,.cls-4,.cls-5,.cls-6{fill:none;}.cls-2{fill:#1c75bc;}.cls-10,.cls-3{fill:#fff;}.cls-10,.cls-11,.cls-4,.cls-5,.cls-6{stroke:#231f20;}.cls-10,.cls-11,.cls-4,.cls-5{stroke-linecap:round;}.cls-4,.cls-5,.cls-6{stroke-miterlimit:10;}.cls-10,.cls-4{stroke-width:0.5px;}.cls-11,.cls-5{stroke-width:0.2px;}.cls-6{stroke-width:0.1px;}.cls-7{isolation:isolate;}.cls-8{clip-path:url(#clip-path);}.cls-9{fill:#231f20;}.cls-10{fill-opacity:0.75;}.cls-10,.cls-11{stroke-linejoin:round;}.cls-12{clip-path:url(#clip-path-2);}</style><clipPath id="clip-path"><polygon class="cls-1" points="21.14 29.49 21.12 20.59 28.86 16.12 28.89 25.02 21.14 29.49"/></clipPath><clipPath id="clip-path-2"><polygon class="cls-1" points="35.45 17.73 35.42 7.7 37.54 6.48 37.57 16.5 35.45 17.73"/></clipPath></defs><g id="Layer_2" data-name="Layer 2"><g id="Layer_1-2" data-name="Layer 1"><rect class="cls-2" x="0.05" y="36.62" width="22.42" height="5.95"/><path class="cls-3" d="M1.47,41.15V38h1a1.22,1.22,0,0,1,.58.12.73.73,0,0,1,.34.33,1,1,0,0,1,0,.79.75.75,0,0,1-.18.28.71.71,0,0,1-.31.19,1.25,1.25,0,0,1-.45.07H2v1.33ZM2,39.41H2.5a.67.67,0,0,0,.3-.06A.37.37,0,0,0,3,39.18a.51.51,0,0,0,0-.48.49.49,0,0,0-.18-.17.67.67,0,0,0-.3-.06H2Z"/><path class="cls-3" d="M4,41.15V38h1a1.36,1.36,0,0,1,.61.11.72.72,0,0,1,.35.31,1.06,1.06,0,0,1,.11.48.87.87,0,0,1-.07.35.81.81,0,0,1-.21.3.83.83,0,0,1-.32.2l.69,1.36H5.56l-.65-1.32H4.46v1.32Zm.5-1.73H5a.61.61,0,0,0,.41-.13A.49.49,0,0,0,5.5,39a.5.5,0,0,0-.06-.24.46.46,0,0,0-.17-.17A.57.57,0,0,0,5,38.47h-.5Z"/><path class="cls-3" d="M6.5,41.15V38h2v.41H7v.87H8.22v.42H7v1h1.5v.41Z"/><path class="cls-3" d="M9.36,41.11a1.15,1.15,0,0,1-.45-.28l.24-.42,0,0,0,0a.24.24,0,0,0,0,.08.48.48,0,0,0,.08.1,1.25,1.25,0,0,0,.28.15.84.84,0,0,0,.35.07.88.88,0,0,0,.24,0l.18-.09a.36.36,0,0,0,.11-.14.34.34,0,0,0,0-.18.53.53,0,0,0,0-.13.24.24,0,0,0-.06-.11.29.29,0,0,0-.11-.11,1,1,0,0,0-.19-.12l-.27-.13a2,2,0,0,1-.51-.28.78.78,0,0,1-.27-.31A.73.73,0,0,1,9,38.8a.68.68,0,0,1,.12-.4.89.89,0,0,1,.35-.28A1.19,1.19,0,0,1,10,38a1.34,1.34,0,0,1,.35,0,1.46,1.46,0,0,1,.31.14.92.92,0,0,1,.26.22l-.29.34,0,0,0,0s0-.06,0-.08a.26.26,0,0,0-.07-.1.46.46,0,0,0-.22-.13.79.79,0,0,0-.28,0,.58.58,0,0,0-.19,0,.36.36,0,0,0-.15.08.31.31,0,0,0-.09.11.25.25,0,0,0,0,.14.51.51,0,0,0,0,.13.41.41,0,0,0,.06.11.44.44,0,0,0,.12.11l.19.12.3.13.39.2a1.1,1.1,0,0,1,.25.21A.59.59,0,0,1,11,40a.88.88,0,0,1,0,.29.83.83,0,0,1-.46.76,1.26,1.26,0,0,1-.62.14A1.48,1.48,0,0,1,9.36,41.11Z"/><path class="cls-3" d="M11.49,41.15V38h2v.41H12v.87h1.24v.42H12v1h1.5v.41Z"/><path class="cls-3" d="M13.91,38h.5l1.15,2.14,0-2.14H16v0a.08.08,0,0,0,0,.07.35.35,0,0,0,0,.12v2.88h-.44l-1.19-2.27v2.27h-.45Z"/><path class="cls-3" d="M17.2,41.11a1,1,0,0,1-.39-.29,1.16,1.16,0,0,1-.27-.49,2.13,2.13,0,0,1-.1-.71,2.88,2.88,0,0,1,.07-.63,1.77,1.77,0,0,1,.2-.46,1.18,1.18,0,0,1,.29-.3,1,1,0,0,1,.33-.16,1.06,1.06,0,0,1,.35,0,1.08,1.08,0,0,1,.6.16,1,1,0,0,1,.37.45l-.33.22,0,0,0,0a.11.11,0,0,0,0-.08l-.06-.1a.57.57,0,0,0-.23-.19.69.69,0,0,0-.56,0,.78.78,0,0,0-.25.23,1.15,1.15,0,0,0-.16.37,2,2,0,0,0-.06.51,2.57,2.57,0,0,0,.05.5,1.58,1.58,0,0,0,.16.37.69.69,0,0,0,.24.24.67.67,0,0,0,.3.08.85.85,0,0,0,.23,0,.59.59,0,0,0,.2-.12,1.08,1.08,0,0,0,.16-.2l.35.25a1.06,1.06,0,0,1-.4.39,1,1,0,0,1-.54.13A1.12,1.12,0,0,1,17.2,41.11Z"/><path class="cls-3" d="M19.07,41.15V38h2v.41H19.54v.87h1.25v.42H19.54v1H21v.41Z"/><polygon class="cls-3" points="38.76 31.15 35.37 33.11 35.35 29.19 38.75 27.23 38.76 31.15"/><line class="cls-4" x1="35.35" y1="29.19" x2="38.75" y2="27.23"/><line class="cls-4" x1="35.37" y1="33.11" x2="35.35" y2="29.19"/><line class="cls-4" x1="35.37" y1="33.11" x2="38.76" y2="31.15"/><line class="cls-4" x1="38.76" y1="31.15" x2="38.75" y2="27.23"/><line class="cls-5" x1="38.75" y1="27.23" x2="38.6" y2="28.72"/><line class="cls-5" x1="35.35" y1="29.19" x2="36.58" y2="29.89"/><line class="cls-5" x1="35.37" y1="33.11" x2="36.58" y2="32.23"/><line class="cls-5" x1="38.61" y1="31.06" x2="38.76" y2="31.15"/><polygon class="cls-3" points="45.11 29.88 45.13 34.82 40.84 37.29 40.83 32.35 45.11 29.88"/><polygon class="cls-3" points="45.11 29.88 40.83 32.35 36.56 29.88 40.85 27.41 45.11 29.88"/><polygon class="cls-3" points="40.83 32.35 40.84 37.29 36.58 34.82 36.56 29.88 40.83 32.35"/><line class="cls-4" x1="45.11" y1="29.88" x2="40.85" y2="27.41"/><line class="cls-4" x1="45.11" y1="29.88" x2="45.13" y2="34.82"/><line class="cls-4" x1="45.13" y1="34.82" x2="40.84" y2="37.29"/><line class="cls-4" x1="40.84" y1="37.29" x2="36.58" y2="34.82"/><line class="cls-4" x1="36.58" y1="34.82" x2="36.56" y2="29.88"/><line class="cls-4" x1="36.56" y1="29.88" x2="40.85" y2="27.41"/><line class="cls-5" x1="40.83" y1="32.35" x2="40.84" y2="37.29"/><line class="cls-5" x1="40.83" y1="32.35" x2="45.11" y2="29.88"/><line class="cls-5" x1="40.83" y1="32.35" x2="36.56" y2="29.88"/><rect class="cls-6" x="0.05" y="0.05" width="56.69" height="42.52"/><g class="cls-7"><g class="cls-8"><path class="cls-3" d="M25.73,23.21V21.56l1.43-.83v1.65l-1.44.83m-2.88,3.33,0-5,1.45-.83v5l-1.44.84M28.33,17l-6.67,3.86,0,7.67,6.68-3.85,0-7.68"/><path class="cls-9" d="M21.68,28.56l0-7.67L28.33,17l0,7.68-6.68,3.85m6.91-12.29-7.2,4.17a.57.57,0,0,0-.19.19.59.59,0,0,0-.08.27l0,8.28a.19.19,0,0,0,.09.17.17.17,0,0,0,.18,0l7.21-4.16a.61.61,0,0,0,.19-.2.52.52,0,0,0,.08-.26l-.27.15v0l.27-.15,0-8.28a.2.2,0,0,0-.07-.18.24.24,0,0,0-.2,0"/><polyline class="cls-9" points="24.28 20.73 22.84 21.57 22.85 26.54 24.29 25.7 24.28 20.73"/><polyline class="cls-9" points="27.16 20.73 25.73 21.56 25.73 23.21 27.17 22.38 27.16 20.73"/></g></g><polygon class="cls-10" points="16.33 12.04 24.96 17.04 24.98 24.45 33.68 19.43 33.65 12.02 25.01 7 16.33 12.04"/><line class="cls-11" x1="33.65" y1="12.02" x2="24.96" y2="17.04"/><g class="cls-7"><g class="cls-12"><polyline class="cls-9" points="36.66 9.1 36.3 9.3 36.32 15.11 36.68 14.9 36.66 9.1"/><polyline class="cls-9" points="36.48 7.09 35.42 9.81 36.3 9.3 36.66 9.1 37.54 8.59 36.48 7.09"/><polyline class="cls-9" points="37.56 14.39 36.68 14.9 36.32 15.11 35.44 15.62 36.51 17.12 37.56 14.39"/></g></g></g></g></svg>