<svg xmlns="http://www.w3.org/2000/svg" xmlns:xlink="http://www.w3.org/1999/xlink" viewBox="0 0 56.79 42.62"><defs><style>.cls-1,.cls-4,.cls-5,.cls-6{fill:none;}.cls-2{fill:#1c75bc;}.cls-11,.cls-3{fill:#fff;}.cls-11,.cls-4,.cls-5,.cls-6{stroke:#231f20;}.cls-11,.cls-4,.cls-5{stroke-linecap:round;}.cls-4,.cls-5,.cls-6{stroke-miterlimit:10;}.cls-4{stroke-width:0.5px;}.cls-11,.cls-5{stroke-width:0.2px;}.cls-6{stroke-width:0.1px;}.cls-7{isolation:isolate;}.cls-8{clip-path:url(#clip-path);}.cls-9{fill:#231f20;}.cls-10{clip-path:url(#clip-path-2);}.cls-11{fill-opacity:0.75;stroke-linejoin:round;}</style><clipPath id="clip-path"><polygon class="cls-1" points="17.77 26.29 17.74 15.79 26.88 10.52 26.91 21.01 17.77 26.29"/></clipPath><clipPath id="clip-path-2"><polygon class="cls-1" points="20.14 5.63 22.25 4.41 30.98 9.45 28.87 10.67 20.14 5.63"/></clipPath></defs><g id="Layer_2" data-name="Layer 2"><g id="Layer_1-2" data-name="Layer 1"><rect class="cls-2" x="0.05" y="36.62" width="22.42" height="5.95"/><path class="cls-3" d="M1.47,41.15V38h1a1.29,1.29,0,0,1,.59.12.75.75,0,0,1,.33.33.84.84,0,0,1,.11.45.93.93,0,0,1-.06.34.75.75,0,0,1-.18.28.71.71,0,0,1-.31.19,1.25,1.25,0,0,1-.45.07H2v1.33ZM2,39.41H2.5a.67.67,0,0,0,.3-.06A.37.37,0,0,0,3,39.18a.51.51,0,0,0,0-.48.49.49,0,0,0-.18-.17.67.67,0,0,0-.3-.06H2Z"/><path class="cls-3" d="M4,41.15V38h1a1.36,1.36,0,0,1,.61.11.72.72,0,0,1,.35.31,1,1,0,0,1,.11.48.87.87,0,0,1-.07.35.81.81,0,0,1-.21.3.83.83,0,0,1-.32.2l.69,1.36H5.56l-.65-1.32H4.46v1.32Zm.5-1.73H5a.61.61,0,0,0,.41-.13A.49.49,0,0,0,5.5,39a.5.5,0,0,0-.06-.24.46.46,0,0,0-.17-.17A.57.57,0,0,0,5,38.47h-.5Z"/><path class="cls-3" d="M6.5,41.15V38h2v.41H7v.87H8.22v.42H7v1h1.5v.41Z"/><path class="cls-3" d="M9.36,41.11a1.15,1.15,0,0,1-.45-.28l.24-.42,0,0,0,0a.24.24,0,0,0,0,.08.48.48,0,0,0,.08.1,1.25,1.25,0,0,0,.28.15.84.84,0,0,0,.35.07.88.88,0,0,0,.24,0l.18-.09a.36.36,0,0,0,.11-.14.34.34,0,0,0,0-.18.53.53,0,0,0,0-.13.24.24,0,0,0-.06-.11.29.29,0,0,0-.11-.11,1,1,0,0,0-.19-.12l-.27-.13a2,2,0,0,1-.51-.28.78.78,0,0,1-.27-.31A.86.86,0,0,1,9,38.8a.68.68,0,0,1,.12-.4.89.89,0,0,1,.35-.28A1.19,1.19,0,0,1,10,38a1.29,1.29,0,0,1,.35,0,1.46,1.46,0,0,1,.31.14.92.92,0,0,1,.26.22l-.29.34,0,0,0,0s0-.06,0-.08a.26.26,0,0,0-.07-.1.46.46,0,0,0-.22-.13.79.79,0,0,0-.28,0,.58.58,0,0,0-.19,0,.36.36,0,0,0-.15.08.31.31,0,0,0-.09.11.25.25,0,0,0,0,.14.51.51,0,0,0,0,.13.41.41,0,0,0,.06.11.44.44,0,0,0,.12.11l.19.12.3.13.39.2a1.1,1.1,0,0,1,.25.21A.59.59,0,0,1,11,40a.88.88,0,0,1,0,.29.83.83,0,0,1-.46.76,1.26,1.26,0,0,1-.62.14A1.48,1.48,0,0,1,9.36,41.11Z"/><path class="cls-3" d="M11.49,41.15V38h2v.41H12v.87h1.24v.42H12v1h1.5v.41Z"/><path class="cls-3" d="M13.91,38h.51l1.14,2.14,0-2.14H16v0a.08.08,0,0,0,0,.07.35.35,0,0,0,0,.12v2.88h-.44l-1.19-2.27v2.27h-.45Z"/><path class="cls-3" d="M17.2,41.11a1,1,0,0,1-.39-.29,1.16,1.16,0,0,1-.27-.49,2.13,2.13,0,0,1-.1-.71,2.88,2.88,0,0,1,.07-.63,1.77,1.77,0,0,1,.2-.46,1.38,1.38,0,0,1,.29-.3,1.12,1.12,0,0,1,.33-.16,1.22,1.22,0,0,1,1,.11,1,1,0,0,1,.37.45l-.33.22,0,0,0,0a.11.11,0,0,0,0-.08l-.06-.1a.57.57,0,0,0-.23-.19.6.6,0,0,0-.26,0,.63.63,0,0,0-.3.07.78.78,0,0,0-.25.23,1.15,1.15,0,0,0-.16.37,2,2,0,0,0-.06.51,2.57,2.57,0,0,0,.05.5,1.58,1.58,0,0,0,.16.37.69.69,0,0,0,.24.24.67.67,0,0,0,.3.08.85.85,0,0,0,.23,0,.59.59,0,0,0,.2-.12,1.08,1.08,0,0,0,.16-.2l.35.25a1,1,0,0,1-.4.39,1,1,0,0,1-.54.13A1.12,1.12,0,0,1,17.2,41.11Z"/><path class="cls-3" d="M19.07,41.15V38h2v.41H19.54v.87h1.25v.42H19.54v1H21v.41Z"/><polygon class="cls-3" points="33.8 27.32 37.21 25.36 37.22 29.27 33.82 31.24 33.8 27.32"/><line class="cls-4" x1="33.8" y1="27.32" x2="37.21" y2="25.36"/><line class="cls-4" x1="33.82" y1="31.24" x2="33.8" y2="27.32"/><line class="cls-4" x1="33.82" y1="31.24" x2="37.22" y2="29.27"/><line class="cls-4" x1="37.22" y1="29.27" x2="37.21" y2="25.36"/><line class="cls-5" x1="37.21" y1="25.36" x2="37.05" y2="26.85"/><line class="cls-5" x1="33.8" y1="27.32" x2="35.03" y2="28.02"/><line class="cls-5" x1="33.82" y1="31.24" x2="35.03" y2="30.36"/><line class="cls-5" x1="37.06" y1="29.19" x2="37.22" y2="29.27"/><polygon class="cls-3" points="43.56 28.01 43.59 32.95 39.3 35.42 39.28 30.48 43.56 28.01"/><polygon class="cls-3" points="43.56 28.01 39.28 30.48 35.02 28.01 39.31 25.54 43.56 28.01"/><polygon class="cls-3" points="39.28 30.48 39.3 35.42 35.03 32.95 35.02 28.01 39.28 30.48"/><line class="cls-4" x1="43.56" y1="28.01" x2="39.31" y2="25.53"/><line class="cls-4" x1="43.56" y1="28.01" x2="43.59" y2="32.94"/><line class="cls-4" x1="43.59" y1="32.94" x2="39.3" y2="35.42"/><line class="cls-4" x1="39.3" y1="35.42" x2="35.03" y2="32.94"/><line class="cls-4" x1="35.03" y1="32.94" x2="35.02" y2="28.01"/><line class="cls-4" x1="35.02" y1="28.01" x2="39.31" y2="25.53"/><line class="cls-5" x1="39.28" y1="30.48" x2="39.3" y2="35.42"/><line class="cls-5" x1="39.28" y1="30.48" x2="43.56" y2="28.01"/><line class="cls-5" x1="39.28" y1="30.48" x2="35.02" y2="28.01"/><rect class="cls-6" x="0.05" y="0.05" width="56.69" height="42.52"/><g class="cls-7"><g class="cls-8"><path class="cls-3" d="M23.18,18.9v-2l1.72-1v2l-1.73,1m-3.43,4,0-5.93,1.73-1v5.94l-1.72,1m6.6-11.43L18.27,16.1l0,9.28,8.07-4.67,0-9.28"/><path class="cls-9" d="M18.3,25.38l0-9.28,8.08-4.67,0,9.28L18.3,25.38m8.32-14.71-8.62,5a.51.51,0,0,0-.18.2.52.52,0,0,0-.08.25l0,9.9a.18.18,0,0,0,.08.17.17.17,0,0,0,.18,0l8.61-5a.46.46,0,0,0,.19-.2.52.52,0,0,0,.08-.26l-.27.16v0l.27-.16,0-9.89a.18.18,0,0,0-.08-.17.17.17,0,0,0-.18,0"/><polyline class="cls-9" points="21.46 15.93 19.73 16.93 19.75 22.86 21.47 21.87 21.46 15.93"/><polyline class="cls-9" points="24.9 15.93 23.18 16.92 23.18 18.9 24.91 17.9 24.9 15.93"/></g></g><g class="cls-7"><g class="cls-10"><polyline class="cls-9" points="28.26 8.9 23.21 5.98 22.86 6.18 27.91 9.1 28.26 8.9"/><polyline class="cls-9" points="29.14 8.38 28.26 8.9 27.91 9.1 27.03 9.61 29.92 10.06 29.14 8.38"/><polyline class="cls-9" points="24.09 5.47 21.2 5.02 21.98 6.7 22.86 6.18 23.21 5.98 24.09 5.47"/></g></g><polygon class="cls-11" points="20.44 17.31 20.47 29.06 30.68 23.16 30.65 11.41 20.44 17.31"/></g></g></svg>