<svg xmlns="http://www.w3.org/2000/svg" xmlns:xlink="http://www.w3.org/1999/xlink" viewBox="0 0 56.79 42.62"><defs><style>.cls-1,.cls-7,.cls-8,.cls-9{fill:none;}.cls-2{fill:#39b54a;}.cls-3{fill:#fff;}.cls-4{isolation:isolate;}.cls-5{clip-path:url(#clip-path);}.cls-6{fill:#231f20;}.cls-7,.cls-8,.cls-9{stroke:#231f20;stroke-miterlimit:10;}.cls-7,.cls-8{stroke-linecap:round;}.cls-7{stroke-width:0.5px;}.cls-8{stroke-width:0.2px;}.cls-9{stroke-width:0.1px;}</style><clipPath id="clip-path"><polygon class="cls-1" points="13.28 38.09 13.21 13.41 34.62 1.06 34.69 25.74 13.28 38.09"/></clipPath></defs><g id="Layer_2" data-name="Layer 2"><g id="Layer_1-2" data-name="Layer 1"><rect class="cls-2" x="0.05" y="36.62" width="22.14" height="5.95"/><path class="cls-3" d="M1.47,41.15V38h1a1.29,1.29,0,0,1,.59.12.75.75,0,0,1,.33.33.84.84,0,0,1,.11.45.93.93,0,0,1-.06.34.75.75,0,0,1-.18.28.71.71,0,0,1-.31.19,1.25,1.25,0,0,1-.45.07H2v1.33ZM2,39.41H2.5a.67.67,0,0,0,.3-.06A.37.37,0,0,0,3,39.18a.51.51,0,0,0,0-.48.4.4,0,0,0-.18-.16.56.56,0,0,0-.3-.07H2Z"/><path class="cls-3" d="M5,41.21A1,1,0,0,1,4.39,41,1,1,0,0,1,4,40.48a2.49,2.49,0,0,1-.13-.87A2.43,2.43,0,0,1,4,38.75a1,1,0,0,1,.38-.54A1,1,0,0,1,5,38a1,1,0,0,1,.63.19,1.12,1.12,0,0,1,.39.54,2.43,2.43,0,0,1,.13.86,2.49,2.49,0,0,1-.13.87,1.12,1.12,0,0,1-.39.54A1,1,0,0,1,5,41.21Zm0-.41a.49.49,0,0,0,.35-.13.9.9,0,0,0,.23-.4,2.51,2.51,0,0,0,.08-.67A2.3,2.3,0,0,0,5.6,39a1,1,0,0,0-.23-.41.51.51,0,0,0-.7,0,.89.89,0,0,0-.22.41,2.3,2.3,0,0,0-.08.63,2.51,2.51,0,0,0,.08.67.81.81,0,0,0,.22.4A.49.49,0,0,0,5,40.8Z"/><path class="cls-3" d="M6.89,41.11a1.18,1.18,0,0,1-.44-.28l.24-.42,0,0,0,0,0,.08a.48.48,0,0,0,.08.1,1.06,1.06,0,0,0,.28.15.81.81,0,0,0,.35.07.8.8,0,0,0,.23,0,.76.76,0,0,0,.18-.09A.53.53,0,0,0,8,40.53a.34.34,0,0,0,0-.18.51.51,0,0,0,0-.13.16.16,0,0,0,0-.11L7.88,40a1,1,0,0,0-.19-.12l-.28-.13a2.38,2.38,0,0,1-.51-.28,1,1,0,0,1-.27-.31.86.86,0,0,1-.08-.36.68.68,0,0,1,.13-.4A.82.82,0,0,1,7,38.12a1.16,1.16,0,0,1,.51-.1,1.34,1.34,0,0,1,.35,0,1.73,1.73,0,0,1,.31.14,1.09,1.09,0,0,1,.26.22l-.29.34,0,0,0,0s0-.06,0-.08a.26.26,0,0,0-.07-.1.46.46,0,0,0-.22-.13.79.79,0,0,0-.28,0,.58.58,0,0,0-.19,0,.36.36,0,0,0-.15.08.35.35,0,0,0-.1.11.35.35,0,0,0,0,.14.27.27,0,0,0,0,.13.34.34,0,0,0,0,.11l.12.11.2.12.3.13.39.2a1.38,1.38,0,0,1,.25.21.76.76,0,0,1,.13.23.88.88,0,0,1,0,.29,1,1,0,0,1-.11.43.89.89,0,0,1-.36.33,1.24,1.24,0,0,1-.62.14A1.56,1.56,0,0,1,6.89,41.11Z"/><path class="cls-3" d="M9,41.15v-.4h.61V38.44H9V38h1.66v.4h-.61v2.31h.64v.4Z"/><path class="cls-3" d="M12,41.15V38.46h-.85V38h2.22v.42h-.89v2.69Z"/><path class="cls-3" d="M13.88,41.15v-.4h.61V38.44h-.58V38h1.66v.4H15v2.31h.64v.4Z"/><path class="cls-3" d="M17.08,41.21a1,1,0,0,1-.63-.19,1,1,0,0,1-.38-.54,2.49,2.49,0,0,1-.13-.87,2.43,2.43,0,0,1,.13-.86,1,1,0,0,1,.38-.54,1.14,1.14,0,0,1,1.26,0,1.12,1.12,0,0,1,.39.54,2.43,2.43,0,0,1,.13.86,2.49,2.49,0,0,1-.13.87,1.12,1.12,0,0,1-.39.54A1,1,0,0,1,17.08,41.21Zm0-.41a.49.49,0,0,0,.35-.13.9.9,0,0,0,.23-.4,2.51,2.51,0,0,0,.08-.67,2.3,2.3,0,0,0-.08-.63,1,1,0,0,0-.23-.41.51.51,0,0,0-.7,0,1,1,0,0,0-.23.41,2.81,2.81,0,0,0-.07.63,3.06,3.06,0,0,0,.07.67.9.9,0,0,0,.23.4A.49.49,0,0,0,17.08,40.8Z"/><path class="cls-3" d="M18.65,38h.5l1.15,2.14,0-2.14h.49v0a.16.16,0,0,0,0,.07v3h-.44L19.1,38.88v2.27h-.45Z"/><g class="cls-4"><g class="cls-5"><path class="cls-3" d="M26.44,12.17l-2.81,7.29.08,0c2.05-1.19,3.84-.93,4.79.43l2.8-7.28-4.86-.4"/><path class="cls-6" d="M31.3,12.57l-2.8,7.28a.86.86,0,0,1,.1.16l2.87-7.46a.15.15,0,0,1-.09,0H31.3m-5-.43-2.87,7.45.21-.13,2.81-7.29h-.08a.09.09,0,0,1-.07,0"/><path class="cls-3" d="M30.65,9.09l-1-.07.57-1.48,1,.07-.57,1.48m1.57-1.4-1-.08.56-1.48,1,.08-.57,1.48M29.07,10.5l-1-.08L29.77,6l1,.08L29.07,10.5m.37-5.73L26.86,11.5l4.56.36L34,5.13l-4.57-.36"/><path class="cls-6" d="M31.42,11.86l-4.56-.36,2.58-6.73L34,5.13l-2.59,6.73M29.34,4.1l-.07.05a.56.56,0,0,0-.16.24L26.26,11.8a.49.49,0,0,0,0,.26.16.16,0,0,0,.06.08.09.09,0,0,0,.07,0h.08l4.86.4h.08a.15.15,0,0,0,.09,0l.05,0,.06,0a.53.53,0,0,0,.16-.23L34.6,4.83a.44.44,0,0,0,0-.25.12.12,0,0,0-.12-.11l-5-.41a.33.33,0,0,0-.14,0"/><polyline class="cls-6" points="29.77 5.97 28.07 10.42 29.07 10.5 30.78 6.05 29.77 5.97"/><polyline class="cls-6" points="31.78 6.13 31.22 7.61 32.22 7.69 32.79 6.21 31.78 6.13"/><polyline class="cls-6" points="30.21 7.54 29.64 9.02 30.65 9.09 31.22 7.61 30.21 7.54"/><path class="cls-3" d="M20.85,31a.2.2,0,0,1-.19,0,.18.18,0,0,1-.07-.17l0-6.64a.52.52,0,0,1,.26-.46l5.78-3.34a.22.22,0,0,1,.19,0,.2.2,0,0,1,.07.18l0,6.64a.47.47,0,0,1-.07.25.53.53,0,0,1-.19.2L20.85,31m2.86-11.19a10.46,10.46,0,0,0-3.62,3.83,10.43,10.43,0,0,0-1.5,5A3.56,3.56,0,0,0,20.11,32a3.61,3.61,0,0,0,3.64-.36,10.51,10.51,0,0,0,3.63-3.84,10.4,10.4,0,0,0,1.5-5l.17-.1-.17.1a3.59,3.59,0,0,0-1.52-3.3,3.66,3.66,0,0,0-3.65.37"/><path class="cls-6" d="M23.71,19.42l-.08,0-.21.13a12.16,12.16,0,0,0-5.19,9.32c0,3.49,2.49,4.89,5.52,3.14a12.06,12.06,0,0,0,5.48-9.49l-.18.1-.17.1a10.4,10.4,0,0,1-1.5,5,10.51,10.51,0,0,1-3.63,3.84,3.61,3.61,0,0,1-3.64.36,3.56,3.56,0,0,1-1.52-3.31,10.43,10.43,0,0,1,1.5-5,10.46,10.46,0,0,1,3.62-3.83,3.66,3.66,0,0,1,3.65-.37,3.59,3.59,0,0,1,1.52,3.3l.17-.1.18-.1A4.88,4.88,0,0,0,28.6,20a.86.86,0,0,0-.1-.16c-.95-1.36-2.74-1.62-4.79-.43"/><path class="cls-3" d="M24.31,26.07V24.74l1.15-.67V25.4l-1.16.67M22,28.73l0-4,1.16-.66v4L22,28.73m4.34-7.53-5.25,3v6l5.25-3v-6"/><path class="cls-6" d="M21.11,30.26v-6l5.25-3v6l-5.25,3m5.5-9.82-5.78,3.34a.52.52,0,0,0-.26.46l0,6.64a.18.18,0,0,0,.07.17.2.2,0,0,0,.19,0l5.78-3.33a.53.53,0,0,0,.19-.2.47.47,0,0,0,.07-.25l-.26.15v0l.26-.15,0-6.64a.2.2,0,0,0-.07-.18.22.22,0,0,0-.19,0"/><polyline class="cls-6" points="23.15 24.08 21.99 24.75 22 28.73 23.16 28.06 23.15 24.08"/><polyline class="cls-6" points="25.46 24.07 24.31 24.74 24.31 26.07 25.47 25.4 25.46 24.07"/><path class="cls-6" d="M22.64,14.09c-3.77,2.26-7.15,6.9-8.54,11.74l.35-.08c1.33-4.62,4.56-9.07,8.16-11.24l0-.42"/><polyline class="cls-6" points="22.71 13.03 22.64 14.09 22.61 14.51 22.54 15.56 24.46 13.41 22.71 13.03"/><polyline class="cls-6" points="13.25 26.05 13.77 28.11 15.29 25.53 14.45 25.75 14.1 25.83 13.25 26.05"/></g></g><polygon class="cls-3" points="33.47 29.12 36.87 27.15 36.88 31.07 33.48 33.03 33.47 29.12"/><line class="cls-7" x1="33.47" y1="29.12" x2="36.87" y2="27.15"/><line class="cls-7" x1="33.49" y1="33.04" x2="33.47" y2="29.12"/><line class="cls-7" x1="33.49" y1="33.04" x2="36.88" y2="31.07"/><line class="cls-7" x1="36.88" y1="31.07" x2="36.87" y2="27.15"/><line class="cls-8" x1="36.87" y1="27.15" x2="36.72" y2="28.64"/><line class="cls-8" x1="33.47" y1="29.12" x2="34.69" y2="29.81"/><line class="cls-8" x1="33.49" y1="33.04" x2="34.69" y2="32.15"/><line class="cls-8" x1="36.73" y1="30.98" x2="36.88" y2="31.07"/><polygon class="cls-3" points="43.23 29.81 43.25 34.74 38.96 37.22 38.95 32.28 43.23 29.81"/><polygon class="cls-3" points="43.23 29.81 38.95 32.28 34.68 29.81 38.97 27.33 43.23 29.81"/><polygon class="cls-3" points="38.95 32.28 38.96 37.22 34.7 34.74 34.68 29.81 38.95 32.28"/><line class="cls-7" x1="43.23" y1="29.81" x2="38.97" y2="27.33"/><line class="cls-7" x1="43.23" y1="29.81" x2="43.25" y2="34.74"/><line class="cls-7" x1="43.25" y1="34.74" x2="38.96" y2="37.22"/><line class="cls-7" x1="38.96" y1="37.22" x2="34.7" y2="34.74"/><line class="cls-7" x1="34.7" y1="34.74" x2="34.68" y2="29.81"/><line class="cls-7" x1="34.68" y1="29.81" x2="38.97" y2="27.33"/><line class="cls-8" x1="38.95" y1="32.28" x2="38.96" y2="37.22"/><line class="cls-8" x1="38.95" y1="32.28" x2="43.23" y2="29.81"/><line class="cls-8" x1="38.95" y1="32.28" x2="34.68" y2="29.81"/><rect class="cls-9" x="0.05" y="0.05" width="56.69" height="42.52"/></g></g></svg>