<svg xmlns="http://www.w3.org/2000/svg" xmlns:xlink="http://www.w3.org/1999/xlink" viewBox="0 0 56.79 42.62"><defs><style>.cls-1,.cls-10,.cls-11,.cls-12{fill:none;}.cls-2,.cls-5{fill:#fff;}.cls-10,.cls-11,.cls-12,.cls-2{stroke:#231f20;}.cls-10,.cls-11,.cls-2{stroke-linecap:round;}.cls-2{stroke-linejoin:round;stroke-width:0.25px;}.cls-3{isolation:isolate;}.cls-4{clip-path:url(#clip-path);}.cls-6{fill:#231f20;}.cls-7{clip-path:url(#clip-path-2);}.cls-8{clip-path:url(#clip-path-3);}.cls-9{fill:#1c75bc;}.cls-10,.cls-11,.cls-12{stroke-miterlimit:10;}.cls-10{stroke-width:0.5px;}.cls-11{stroke-width:0.2px;}.cls-12{stroke-width:0.1px;}</style><clipPath id="clip-path"><polygon class="cls-1" points="29.2 29.01 29.18 22.03 35.26 18.52 35.28 25.5 29.2 29.01"/></clipPath><clipPath id="clip-path-2"><polygon class="cls-1" points="8.18 25.34 8.2 18.36 14.28 21.87 14.26 28.85 8.18 25.34"/></clipPath><clipPath id="clip-path-3"><polygon class="cls-1" points="10.61 13.43 22.2 6.7 33.85 13.42 22.27 20.15 10.61 13.43"/></clipPath></defs><g id="Layer_2" data-name="Layer 2"><g id="Layer_1-2" data-name="Layer 1"><path class="cls-2" d="M7.77,14.21h0v8h0c-.07,2.13,1.33,4.28,4.15,5.91,5.52,3.2,14.44,3.2,19.93,0,2.8-1.63,4.16-3.78,4.08-5.91h0v-8h0"/><path class="cls-2" d="M31.77,8c-5.52-3.2-14.44-3.2-19.92,0C9,9.67,7.69,11.82,7.77,14a5.87,5.87,0,0,0,2,4,11.15,11.15,0,0,0,2.2,1.64c5.52,3.19,14.44,3.19,19.92,0A10.85,10.85,0,0,0,34,18a5.81,5.81,0,0,0,2-4C36,11.82,34.6,9.67,31.77,8Z"/><g class="cls-3"><g class="cls-4"><path class="cls-5" d="M32.79,24.08V22.81l1.11-.64v1.27l-1.11.64m-2.21,2.56V22.82l1.1-.64V26l-1.1.64m4.16-7.2-5,2.89,0,5.76,5-2.89V19.44"/><path class="cls-6" d="M29.74,28.09l0-5.76,5-2.89V25.2l-5,2.89M35,18.67l-5.55,3.2a.61.61,0,0,0-.19.2.72.72,0,0,0-.07.27v6.37a.21.21,0,0,0,.08.17.19.19,0,0,0,.19,0L35,25.65a.49.49,0,0,0,.19-.19.54.54,0,0,0,.07-.26l-.26.15v0l.26-.15,0-6.37a.2.2,0,0,0-.07-.18.22.22,0,0,0-.19,0"/><polyline class="cls-6" points="31.67 22.18 30.57 22.82 30.58 26.64 31.68 26 31.67 22.18"/><polyline class="cls-6" points="33.9 22.16 32.79 22.81 32.79 24.08 33.9 23.44 33.9 22.16"/></g></g><g class="cls-3"><g class="cls-7"><path class="cls-5" d="M9.56,24.55V20.73l1.11.64v3.82l-1.11-.64m2.23-1.26V22l1.11.64v1.28l-1.11-.64v1.27l-1.11-.64V22.64l1.12.65m2-1.12-5-2.89V25l5,2.9,0-5.76"/><path class="cls-6" d="M8.72,25V19.28l5,2.89,0,5.76-5-2.9M14,21.71l-5.55-3.2a.19.19,0,0,0-.19,0,.19.19,0,0,0-.08.17l0,6.37a.59.59,0,0,0,.08.27.61.61,0,0,0,.19.2L14,28.7a.2.2,0,0,0,.18,0,.21.21,0,0,0,.08-.18L14,28.39v0l.26.15,0-6.37a.56.56,0,0,0-.08-.26.59.59,0,0,0-.18-.2"/><polyline class="cls-6" points="10.68 21.37 9.57 20.73 9.56 24.55 10.67 25.19 10.68 21.37"/><polyline class="cls-6" points="12.9 22.65 11.79 22.01 11.79 23.29 12.9 23.93 12.9 22.65"/><polyline class="cls-6" points="11.79 23.29 10.68 22.64 10.67 23.92 11.78 24.56 11.79 23.29"/></g></g><g class="cls-3"><g class="cls-8"><path class="cls-6" d="M25.06,9.33a12.31,12.31,0,0,0-8.92.89c-3.05,1.77-3,4.64,0,6.41a12.36,12.36,0,0,0,8.93.88l-.29-.24a11.59,11.59,0,0,1-8.29-.84,3.68,3.68,0,0,1-2.16-3,3.62,3.62,0,0,1,2.13-3,11.54,11.54,0,0,1,8.28-.85l.29-.24"/><polyline class="cls-6" points="27.07 16.53 24.09 16.67 24.81 17.27 25.1 17.51 25.8 18.1 27.07 16.53"/><polyline class="cls-6" points="25.75 8.75 25.06 9.33 24.77 9.57 24.05 10.17 27.03 10.32 25.75 8.75"/></g></g><rect class="cls-9" x="0.05" y="36.62" width="22.42" height="5.95"/><path class="cls-5" d="M1.47,41.15V38h1a1.22,1.22,0,0,1,.58.12.73.73,0,0,1,.34.33,1,1,0,0,1,0,.79.75.75,0,0,1-.18.28.71.71,0,0,1-.31.19,1.25,1.25,0,0,1-.45.07H2v1.33ZM2,39.41H2.5a.67.67,0,0,0,.3-.06A.37.37,0,0,0,3,39.18a.51.51,0,0,0,0-.48.49.49,0,0,0-.18-.17.67.67,0,0,0-.3-.06H2Z"/><path class="cls-5" d="M4,41.15V38h1a1.36,1.36,0,0,1,.61.11.72.72,0,0,1,.35.31,1.06,1.06,0,0,1,.11.48.87.87,0,0,1-.07.35.81.81,0,0,1-.21.3.83.83,0,0,1-.32.2l.69,1.36H5.56l-.65-1.32H4.46v1.32Zm.5-1.73H5a.61.61,0,0,0,.41-.13A.49.49,0,0,0,5.5,39a.53.53,0,0,0-.06-.24.46.46,0,0,0-.17-.17A.57.57,0,0,0,5,38.47h-.5Z"/><path class="cls-5" d="M6.5,41.15V38h2v.41H7v.87H8.22v.42H7v1h1.5v.41Z"/><path class="cls-5" d="M9.36,41.11a1.15,1.15,0,0,1-.45-.28l.24-.42,0,0,0,0a.24.24,0,0,0,0,.08.48.48,0,0,0,.08.1,1.25,1.25,0,0,0,.28.15.84.84,0,0,0,.35.07.88.88,0,0,0,.24,0l.18-.09a.36.36,0,0,0,.11-.14.34.34,0,0,0,0-.18.53.53,0,0,0,0-.13.24.24,0,0,0-.06-.11.29.29,0,0,0-.11-.11,1,1,0,0,0-.19-.12l-.27-.13a2,2,0,0,1-.51-.28.78.78,0,0,1-.27-.31A.73.73,0,0,1,9,38.8a.68.68,0,0,1,.12-.4.89.89,0,0,1,.35-.28A1.19,1.19,0,0,1,10,38a1.29,1.29,0,0,1,.35,0,1.46,1.46,0,0,1,.31.14.92.92,0,0,1,.26.22l-.29.34,0,0,0,0s0-.06,0-.08a.26.26,0,0,0-.07-.1.46.46,0,0,0-.22-.13.79.79,0,0,0-.28,0,.58.58,0,0,0-.19,0,.36.36,0,0,0-.15.08.31.31,0,0,0-.09.11.25.25,0,0,0,0,.14.51.51,0,0,0,0,.13.41.41,0,0,0,.06.11.44.44,0,0,0,.12.11l.19.12.3.13.39.2a1.1,1.1,0,0,1,.25.21A.59.59,0,0,1,11,40a.88.88,0,0,1,0,.29.83.83,0,0,1-.46.76,1.26,1.26,0,0,1-.62.14A1.48,1.48,0,0,1,9.36,41.11Z"/><path class="cls-5" d="M11.49,41.15V38h2v.41H12v.87h1.24v.42H12v1h1.5v.41Z"/><path class="cls-5" d="M13.91,38h.51l1.14,2.14,0-2.14H16v0a.08.08,0,0,0,0,.07.35.35,0,0,0,0,.12v2.88h-.44l-1.19-2.27v2.27h-.45Z"/><path class="cls-5" d="M17.2,41.11a1,1,0,0,1-.39-.29,1.16,1.16,0,0,1-.27-.49,2.13,2.13,0,0,1-.1-.71,2.88,2.88,0,0,1,.07-.63,1.77,1.77,0,0,1,.2-.46,1.18,1.18,0,0,1,.29-.3,1,1,0,0,1,.33-.16,1.22,1.22,0,0,1,1,.11,1,1,0,0,1,.37.45l-.33.22,0,0,0,0a.11.11,0,0,0,0-.08l-.06-.1a.57.57,0,0,0-.23-.19.69.69,0,0,0-.56,0,.78.78,0,0,0-.25.23,1.15,1.15,0,0,0-.16.37,2,2,0,0,0-.06.51,2.57,2.57,0,0,0,.05.5,1.58,1.58,0,0,0,.16.37.69.69,0,0,0,.24.24.67.67,0,0,0,.3.08.85.85,0,0,0,.23,0,.59.59,0,0,0,.2-.12,1.08,1.08,0,0,0,.16-.2l.35.25a1,1,0,0,1-.4.39,1,1,0,0,1-.54.13A1.12,1.12,0,0,1,17.2,41.11Z"/><path class="cls-5" d="M19.07,41.15V38h2v.41H19.54v.87h1.25v.42H19.54v1H21v.41Z"/><polygon class="cls-5" points="41.75 27.23 41.76 31.15 38.37 33.11 38.35 29.19 41.75 27.23"/><line class="cls-10" x1="38.35" y1="29.19" x2="41.75" y2="27.23"/><line class="cls-10" x1="38.37" y1="33.11" x2="38.35" y2="29.19"/><line class="cls-10" x1="38.37" y1="33.11" x2="41.76" y2="31.15"/><line class="cls-10" x1="41.76" y1="31.15" x2="41.75" y2="27.23"/><line class="cls-11" x1="41.75" y1="27.23" x2="41.6" y2="28.72"/><line class="cls-11" x1="38.35" y1="29.19" x2="39.58" y2="29.89"/><line class="cls-11" x1="38.37" y1="33.11" x2="39.58" y2="32.23"/><line class="cls-11" x1="41.61" y1="31.06" x2="41.76" y2="31.15"/><polygon class="cls-5" points="48.11 29.88 48.13 34.82 43.84 37.29 43.83 32.35 48.11 29.88"/><polygon class="cls-5" points="48.11 29.88 43.83 32.35 39.56 29.88 43.85 27.41 48.11 29.88"/><polygon class="cls-5" points="43.83 32.35 43.84 37.29 39.58 34.82 39.56 29.88 43.83 32.35"/><line class="cls-10" x1="48.11" y1="29.88" x2="43.85" y2="27.41"/><line class="cls-10" x1="48.11" y1="29.88" x2="48.13" y2="34.82"/><line class="cls-10" x1="48.13" y1="34.82" x2="43.84" y2="37.29"/><line class="cls-10" x1="43.84" y1="37.29" x2="39.58" y2="34.82"/><line class="cls-10" x1="39.58" y1="34.82" x2="39.56" y2="29.88"/><line class="cls-10" x1="39.56" y1="29.88" x2="43.85" y2="27.41"/><line class="cls-11" x1="43.83" y1="32.35" x2="43.84" y2="37.29"/><line class="cls-11" x1="43.83" y1="32.35" x2="48.11" y2="29.88"/><line class="cls-11" x1="43.83" y1="32.35" x2="39.56" y2="29.88"/><rect class="cls-12" x="0.05" y="0.05" width="56.69" height="42.52"/></g></g></svg>