<svg xmlns="http://www.w3.org/2000/svg" xmlns:xlink="http://www.w3.org/1999/xlink" viewBox="0 0 56.79 42.62"><defs><style>.cls-1,.cls-7,.cls-8,.cls-9{fill:none;}.cls-2{fill:#f15a29;}.cls-3{fill:#fff;}.cls-4{isolation:isolate;}.cls-5{clip-path:url(#clip-path);}.cls-6{fill:#231f20;}.cls-7,.cls-8,.cls-9{stroke:#231f20;stroke-miterlimit:10;}.cls-7,.cls-8{stroke-linecap:round;}.cls-7{stroke-width:0.5px;}.cls-8{stroke-width:0.2px;}.cls-9{stroke-width:0.1px;}</style><clipPath id="clip-path" transform="translate(0 -0.23)"><polygon class="cls-1" points="14.24 37.66 14.16 11.52 34.12 0 34.2 26.13 14.24 37.66"/></clipPath></defs><g id="Layer_2" data-name="Layer 2"><g id="Layer_1-2" data-name="Layer 1"><rect class="cls-2" x="0.05" y="36.62" width="21.72" height="5.95"/><path class="cls-3" d="M1.47,41.39V38.27h1a1.51,1.51,0,0,1,.61.11.73.73,0,0,1,.35.32.9.9,0,0,1,.11.48.83.83,0,0,1-.07.34,1,1,0,0,1-.21.31.8.8,0,0,1-.32.19l.69,1.37H3.07l-.65-1.32H2v1.32ZM2,39.65h.5a.56.56,0,0,0,.41-.13A.45.45,0,0,0,3,39.19.48.48,0,0,0,3,39a.42.42,0,0,0-.17-.18.68.68,0,0,0-.31-.06H2Z" transform="translate(0 -0.23)"/><path class="cls-3" d="M5,41.44a1.05,1.05,0,0,1-.62-.18A1.07,1.07,0,0,1,4,40.71,2.94,2.94,0,0,1,4,39a1.08,1.08,0,0,1,.39-.54A1,1,0,0,1,5,38.25a1,1,0,0,1,.63.19A1.22,1.22,0,0,1,6,39a2.94,2.94,0,0,1,0,1.73,1.2,1.2,0,0,1-.39.55A1.07,1.07,0,0,1,5,41.44ZM5,41a.48.48,0,0,0,.35-.14.9.9,0,0,0,.23-.4,2.48,2.48,0,0,0,.08-.66,2.38,2.38,0,0,0-.08-.64,1,1,0,0,0-.23-.4A.45.45,0,0,0,5,38.66a.47.47,0,0,0-.35.14.85.85,0,0,0-.22.4,2.38,2.38,0,0,0-.08.64,2.48,2.48,0,0,0,.08.66.81.81,0,0,0,.22.4A.52.52,0,0,0,5,41Z" transform="translate(0 -0.23)"/><path class="cls-3" d="M7.19,41.39V38.7H6.34v-.43H8.57v.43H7.68v2.69Z" transform="translate(0 -0.23)"/><path class="cls-3" d="M9.66,39.21,9,41.39H8.48l1.09-3.14h.19l1.08,3.14h-.5Zm.57,1.39H9l.07-.35h1Z" transform="translate(0 -0.23)"/><path class="cls-3" d="M11.62,41.39V38.7h-.85v-.43H13v.43H12.1v2.69Z" transform="translate(0 -0.23)"/><path class="cls-3" d="M13.46,41.39V41h.61v-2.3h-.58v-.41h1.66v.41h-.61V41h.64v.4Z" transform="translate(0 -0.23)"/><path class="cls-3" d="M16.66,41.44a1.07,1.07,0,0,1-.63-.18,1.11,1.11,0,0,1-.38-.55,2.94,2.94,0,0,1,0-1.73,1.13,1.13,0,0,1,.38-.54,1.14,1.14,0,0,1,1.26,0,1.22,1.22,0,0,1,.39.54,2.94,2.94,0,0,1,0,1.73,1.2,1.2,0,0,1-.39.55A1.07,1.07,0,0,1,16.66,41.44Zm0-.4A.5.5,0,0,0,17,40.9a.9.9,0,0,0,.23-.4,2.48,2.48,0,0,0,.08-.66,2.38,2.38,0,0,0-.08-.64,1,1,0,0,0-.23-.4.51.51,0,0,0-.7,0,.85.85,0,0,0-.22.4,2.38,2.38,0,0,0-.08.64,2.48,2.48,0,0,0,.08.66.81.81,0,0,0,.22.4A.5.5,0,0,0,16.66,41Z" transform="translate(0 -0.23)"/><path class="cls-3" d="M18.23,38.27h.5l1.15,2.14,0-2.14h.49v0a.09.09,0,0,0,0,.06.35.35,0,0,0,0,.12v2.89h-.44l-1.19-2.27v2.27h-.45Z" transform="translate(0 -0.23)"/><g class="cls-4"><g class="cls-5"><path class="cls-6" d="M24.15,9c-5.51,3.18-10,10.9-9.94,17.24s4.5,8.89,10,5.7,10-10.89,9.94-17.22l-.17.1-.18.1A19.46,19.46,0,0,1,31,24.32a19.47,19.47,0,0,1-6.79,7.16c-2.66,1.54-5.07,1.69-6.82.7S14.57,29,14.56,26a19.47,19.47,0,0,1,2.8-9.46,19.74,19.74,0,0,1,6.79-7.17c2.67-1.53,5.07-1.68,6.82-.69s2.83,3.14,2.84,6.2l.18-.1.17-.1c0-6.34-4.5-8.9-10-5.72" transform="translate(0 -0.23)"/><path class="cls-3" d="M25,20.89V19l1.63-.95V20L25,20.89m-3.27,3.76V19l1.63-1,0,5.63-1.64.94M28,13.83l-7.64,4.41,0,8.78L28,22.61l0-8.78" transform="translate(0 -0.23)"/><path class="cls-6" d="M20.38,27l0-8.78L28,13.83l0,8.78L20.38,27m7.88-14-8.18,4.72a.59.59,0,0,0-.18.2.56.56,0,0,0-.08.26l0,9.39a.19.19,0,0,0,.08.17.17.17,0,0,0,.18,0l8.18-4.72a.47.47,0,0,0,.18-.19.59.59,0,0,0,.08-.27l-.27.16v0l.27-.16,0-9.38a.18.18,0,0,0-.09-.17.17.17,0,0,0-.18,0" transform="translate(0 -0.23)"/><polyline class="cls-6" points="23.36 17.85 21.73 18.79 21.74 24.42 23.38 23.48 23.36 17.85"/><polyline class="cls-6" points="26.63 17.84 25 18.78 25 20.66 26.64 19.72 26.63 17.84"/><path class="cls-6" d="M24.14,5.76a24.74,24.74,0,0,0-7.61,7.3l.23.18a24,24,0,0,1,7.38-7.07c2.61-1.5,5.21-2.07,7.4-1.46l.24-.45c-2.26-.63-5,0-7.64,1.5" transform="translate(0 -0.23)"/><polyline class="cls-6" points="32.34 2.94 31.77 4.03 31.55 4.47 30.97 5.59 33.05 4.83 32.34 2.94"/><polyline class="cls-6" points="15.96 12.4 15.26 15.1 17.35 13.45 16.76 13.01 16.53 12.83 15.96 12.4"/></g></g><polygon class="cls-3" points="40.06 25.74 40.07 29.66 36.67 31.62 36.65 27.7 40.06 25.74"/><line class="cls-7" x1="36.65" y1="27.7" x2="40.06" y2="25.74"/><line class="cls-7" x1="36.67" y1="31.62" x2="36.65" y2="27.7"/><line class="cls-7" x1="36.67" y1="31.62" x2="40.07" y2="29.66"/><line class="cls-7" x1="40.07" y1="29.66" x2="40.06" y2="25.74"/><line class="cls-8" x1="40.06" y1="25.74" x2="39.9" y2="27.23"/><line class="cls-8" x1="36.65" y1="27.7" x2="37.88" y2="28.4"/><line class="cls-8" x1="36.67" y1="31.62" x2="37.88" y2="30.74"/><line class="cls-8" x1="39.91" y1="29.57" x2="40.07" y2="29.66"/><polygon class="cls-3" points="46.41 28.39 46.44 33.33 42.15 35.8 42.13 30.87 46.41 28.39"/><polygon class="cls-3" points="46.41 28.39 42.13 30.87 37.87 28.39 42.16 25.92 46.41 28.39"/><polygon class="cls-3" points="42.13 30.87 42.15 35.8 37.88 33.33 37.87 28.39 42.13 30.87"/><line class="cls-7" x1="46.41" y1="28.39" x2="42.16" y2="25.92"/><line class="cls-7" x1="46.41" y1="28.39" x2="46.44" y2="33.33"/><line class="cls-7" x1="46.44" y1="33.33" x2="42.15" y2="35.8"/><line class="cls-7" x1="42.15" y1="35.8" x2="37.88" y2="33.33"/><line class="cls-7" x1="37.88" y1="33.33" x2="37.87" y2="28.39"/><line class="cls-7" x1="37.87" y1="28.39" x2="42.16" y2="25.92"/><line class="cls-8" x1="42.13" y1="30.87" x2="42.15" y2="35.8"/><line class="cls-8" x1="42.13" y1="30.87" x2="46.41" y2="28.39"/><line class="cls-8" x1="42.13" y1="30.87" x2="37.87" y2="28.39"/><rect class="cls-9" x="0.05" y="0.05" width="56.69" height="42.52"/></g></g></svg>