<svg xmlns="http://www.w3.org/2000/svg" xmlns:xlink="http://www.w3.org/1999/xlink" viewBox="0 0 56.79 42.62"><defs><style>.cls-1,.cls-4,.cls-5,.cls-6{fill:none;}.cls-2{fill:#39b54a;}.cls-3{fill:#fff;}.cls-4,.cls-5,.cls-6{stroke:#231f20;stroke-miterlimit:10;}.cls-4,.cls-5{stroke-linecap:round;}.cls-4{stroke-width:0.5px;}.cls-5{stroke-width:0.2px;}.cls-6{stroke-width:0.1px;}.cls-7{isolation:isolate;}.cls-8{clip-path:url(#clip-path);}.cls-9{fill:#231f20;}.cls-10{clip-path:url(#clip-path-2);}</style><clipPath id="clip-path"><polygon class="cls-1" points="20.52 26.77 20.48 15.82 30.02 10.31 30.05 21.27 20.52 26.77"/></clipPath><clipPath id="clip-path-2"><polygon class="cls-1" points="16.8 33.47 16.74 13.44 33.76 3.61 33.82 23.64 16.8 33.47"/></clipPath></defs><g id="Layer_2" data-name="Layer 2"><g id="Layer_1-2" data-name="Layer 1"><rect class="cls-2" x="0.05" y="36.62" width="22.14" height="5.95"/><path class="cls-3" d="M1.47,41.15V38h1a1.29,1.29,0,0,1,.59.12.75.75,0,0,1,.33.33.84.84,0,0,1,.11.45.93.93,0,0,1-.06.34.75.75,0,0,1-.18.28.71.71,0,0,1-.31.19,1.25,1.25,0,0,1-.45.07H2v1.33ZM2,39.41H2.5a.67.67,0,0,0,.3-.06A.37.37,0,0,0,3,39.18a.51.51,0,0,0,0-.48.4.4,0,0,0-.18-.16.56.56,0,0,0-.3-.07H2Z"/><path class="cls-3" d="M5,41.21A1,1,0,0,1,4.39,41,1,1,0,0,1,4,40.48a2.49,2.49,0,0,1-.13-.87A2.43,2.43,0,0,1,4,38.75a1,1,0,0,1,.38-.54A1,1,0,0,1,5,38a1,1,0,0,1,.63.19,1.12,1.12,0,0,1,.39.54,2.43,2.43,0,0,1,.13.86,2.49,2.49,0,0,1-.13.87,1.12,1.12,0,0,1-.39.54A1,1,0,0,1,5,41.21Zm0-.41a.49.49,0,0,0,.35-.13.9.9,0,0,0,.23-.4,2.51,2.51,0,0,0,.08-.67A2.3,2.3,0,0,0,5.6,39a1,1,0,0,0-.23-.41.51.51,0,0,0-.7,0,.89.89,0,0,0-.22.41,2.3,2.3,0,0,0-.08.63,2.51,2.51,0,0,0,.08.67.81.81,0,0,0,.22.4A.49.49,0,0,0,5,40.8Z"/><path class="cls-3" d="M6.89,41.11a1.18,1.18,0,0,1-.44-.28l.24-.42,0,0,0,0a.24.24,0,0,0,0,.08.48.48,0,0,0,.08.1,1.06,1.06,0,0,0,.28.15.81.81,0,0,0,.35.07.8.8,0,0,0,.23,0l.18-.09A.53.53,0,0,0,8,40.53a.34.34,0,0,0,0-.18.53.53,0,0,0,0-.13A.24.24,0,0,0,8,40.11L7.88,40a1,1,0,0,0-.19-.12l-.27-.13a2.25,2.25,0,0,1-.52-.28.83.83,0,0,1-.26-.31.73.73,0,0,1-.08-.36.68.68,0,0,1,.12-.4A.82.82,0,0,1,7,38.12a1.19,1.19,0,0,1,.51-.1,1.34,1.34,0,0,1,.35,0,1.73,1.73,0,0,1,.31.14,1.09,1.09,0,0,1,.26.22l-.29.34,0,0,0,0s0-.06,0-.08a.26.26,0,0,0-.07-.1.46.46,0,0,0-.22-.13.79.79,0,0,0-.28,0,.58.58,0,0,0-.19,0,.36.36,0,0,0-.15.08.35.35,0,0,0-.1.11.35.35,0,0,0,0,.14.51.51,0,0,0,0,.13l0,.11.12.11.2.12.3.13.39.2a1.38,1.38,0,0,1,.25.21.76.76,0,0,1,.13.23.88.88,0,0,1,0,.29,1,1,0,0,1-.11.43.93.93,0,0,1-.35.33,1.26,1.26,0,0,1-.62.14A1.57,1.57,0,0,1,6.89,41.11Z"/><path class="cls-3" d="M9,41.15v-.4h.61V38.44H9V38h1.66v.4h-.61v2.31h.64v.4Z"/><path class="cls-3" d="M12,41.15V38.46h-.85V38h2.22v.42h-.89v2.69Z"/><path class="cls-3" d="M13.88,41.15v-.4h.61V38.44h-.58V38h1.66v.4H15v2.31h.64v.4Z"/><path class="cls-3" d="M17.08,41.21a1,1,0,0,1-.63-.19,1,1,0,0,1-.38-.54,2.49,2.49,0,0,1-.13-.87,2.43,2.43,0,0,1,.13-.86,1,1,0,0,1,.38-.54,1.14,1.14,0,0,1,1.26,0,1.12,1.12,0,0,1,.39.54,2.43,2.43,0,0,1,.13.86,2.49,2.49,0,0,1-.13.87,1.12,1.12,0,0,1-.39.54A1,1,0,0,1,17.08,41.21Zm0-.41a.49.49,0,0,0,.35-.13.9.9,0,0,0,.23-.4,2.51,2.51,0,0,0,.08-.67,2.3,2.3,0,0,0-.08-.63,1,1,0,0,0-.23-.41.51.51,0,0,0-.7,0,.89.89,0,0,0-.22.41,2.3,2.3,0,0,0-.08.63,2.51,2.51,0,0,0,.08.67.81.81,0,0,0,.22.4A.49.49,0,0,0,17.08,40.8Z"/><path class="cls-3" d="M18.65,38h.5l1.15,2.14,0-2.14h.49v0a.16.16,0,0,0,0,.07v3h-.44L19.1,38.88v2.27h-.45Z"/><polygon class="cls-3" points="34.35 26.19 37.75 24.23 37.76 28.15 34.37 30.11 34.35 26.19"/><line class="cls-4" x1="34.35" y1="26.19" x2="37.75" y2="24.23"/><line class="cls-4" x1="34.37" y1="30.11" x2="34.35" y2="26.19"/><line class="cls-4" x1="34.37" y1="30.11" x2="37.76" y2="28.15"/><line class="cls-4" x1="37.76" y1="28.15" x2="37.75" y2="24.23"/><line class="cls-5" x1="37.75" y1="24.23" x2="37.6" y2="25.72"/><line class="cls-5" x1="34.35" y1="26.19" x2="35.58" y2="26.89"/><line class="cls-5" x1="34.37" y1="30.11" x2="35.58" y2="29.23"/><line class="cls-5" x1="37.61" y1="28.06" x2="37.76" y2="28.15"/><polygon class="cls-3" points="44.11 26.88 44.13 31.82 39.84 34.29 39.83 29.36 44.11 26.88"/><polygon class="cls-3" points="44.11 26.88 39.83 29.36 35.56 26.88 39.85 24.41 44.11 26.88"/><polygon class="cls-3" points="39.83 29.36 39.84 34.29 35.58 31.82 35.56 26.88 39.83 29.36"/><line class="cls-4" x1="44.11" y1="26.88" x2="39.85" y2="24.41"/><line class="cls-4" x1="44.11" y1="26.88" x2="44.13" y2="31.82"/><line class="cls-4" x1="44.13" y1="31.82" x2="39.84" y2="34.29"/><line class="cls-4" x1="39.84" y1="34.29" x2="35.58" y2="31.82"/><line class="cls-4" x1="35.58" y1="31.82" x2="35.56" y2="26.88"/><line class="cls-4" x1="35.56" y1="26.88" x2="39.85" y2="24.41"/><line class="cls-5" x1="39.83" y1="29.35" x2="39.84" y2="34.29"/><line class="cls-5" x1="39.83" y1="29.35" x2="44.11" y2="26.88"/><line class="cls-5" x1="39.83" y1="29.35" x2="35.56" y2="26.88"/><rect class="cls-6" x="0.05" y="0.05" width="56.69" height="42.52"/><g class="cls-7"><g class="cls-8"><path class="cls-3" d="M26.17,19.05V17l1.8-1V18l-1.8,1M22.58,23.2l0-6.21,1.8-1,0,6.21-1.8,1m6.91-12L21,16.12l0,9.74L29.52,21l0-9.73"/><path class="cls-9" d="M21,25.86l0-9.74,8.47-4.89,0,9.73L21,25.86m8.71-15.39-9,5.19a.53.53,0,0,0-.19.2.54.54,0,0,0-.07.26l0,10.34a.24.24,0,0,0,.08.18.22.22,0,0,0,.19,0l9-5.2a.59.59,0,0,0,.18-.2.52.52,0,0,0,.08-.26l-.26.15v0l.26-.15,0-10.35a.16.16,0,0,0-.27-.14"/><polyline class="cls-9" points="24.36 15.95 22.56 16.99 22.58 23.2 24.38 22.16 24.36 15.95"/><polyline class="cls-9" points="27.97 15.94 26.17 16.98 26.17 19.05 27.97 18.01 27.97 15.94"/></g></g><g class="cls-7"><g class="cls-10"><path class="cls-9" d="M21.55,12.75a8.26,8.26,0,0,0-3.44,4.69l.05.11.11-.13A7.88,7.88,0,0,1,21.55,13l.09-.16-.09-.05"/><path class="cls-9" d="M17.69,26.08l-.09.14a3.1,3.1,0,0,0,0,.42c0,1.48.68,2.43,1.71,2.59l.13-.1,0-.12c-1-.16-1.63-1.06-1.63-2.48,0-.12,0-.26,0-.39l-.08-.06"/><path class="cls-9" d="M31.46,21l-.12.1a7.69,7.69,0,0,1-3.05,3.79L28.2,25l.09.06a8,8,0,0,0,3.2-4l0-.12"/><path class="cls-9" d="M30.57,8.62l-.12.1,0,.12c1,.18,1.6,1.08,1.6,2.47,0,.13,0,.26,0,.4l.08.06.09-.14a3,3,0,0,0,0-.42c0-1.47-.66-2.41-1.69-2.59"/><path class="cls-9" d="M18.46,14.9a8.61,8.61,0,0,0-1.52,4.55v.21l.09,0,.08-.16v-.19A8.24,8.24,0,0,1,18.57,15l0-.16-.13.06"/><path class="cls-9" d="M18.55,30.15l-.13.07v.14a2.82,2.82,0,0,0,3-.23l.18-.12.09-.15-.09,0-.18.1a2.7,2.7,0,0,1-2.85.23"/><path class="cls-9" d="M32.8,18.15l-.08.15v.21a8,8,0,0,1-1.26,4v.15l.12-.07A8.37,8.37,0,0,0,32.9,18.4v-.21l-.1,0"/><path class="cls-9" d="M28.44,7.73l-.19.1L28.17,8l.1,0,.17-.11a2.65,2.65,0,0,1,3-.14l.13-.06V7.57a2.76,2.76,0,0,0-3.11.16"/><path class="cls-9" d="M21.09,10.93a9.91,9.91,0,0,0-4,5.2l0,.11.12-.11a9.51,9.51,0,0,1,3.87-5A3.07,3.07,0,0,1,21.4,11l.09-.15-.08-.06-.32.18"/><path class="cls-9" d="M16.81,31.14l0,.16a2.79,2.79,0,0,0,3.31.17l.09-.16-.08,0a2.68,2.68,0,0,1-3.18-.16l-.12,0"/><path class="cls-9" d="M33.72,19.21l-.09.15A9.76,9.76,0,0,1,31.11,25l0,.16.11,0a10.11,10.11,0,0,0,2.63-5.89l-.09-.06"/><path class="cls-9" d="M32.27,6.19l0,.15a3.33,3.33,0,0,1,.89,2.51v.34l.08.07.1-.15V8.74a3.4,3.4,0,0,0-.93-2.6l-.12.05"/></g></g></g></g></svg>