<svg xmlns="http://www.w3.org/2000/svg" xmlns:xlink="http://www.w3.org/1999/xlink" viewBox="0 0 56.79 42.62"><defs><style>.cls-1,.cls-7,.cls-8,.cls-9{fill:none;}.cls-2{fill:#39b54a;}.cls-3{fill:#fff;}.cls-4{isolation:isolate;}.cls-5{clip-path:url(#clip-path);}.cls-6{fill:#231f20;}.cls-7,.cls-8,.cls-9{stroke:#231f20;stroke-miterlimit:10;}.cls-7,.cls-8{stroke-linecap:round;}.cls-7{stroke-width:0.5px;}.cls-8{stroke-width:0.2px;}.cls-9{stroke-width:0.1px;}</style><clipPath id="clip-path"><polygon class="cls-1" points="8.59 33.77 8.56 23.04 42.54 3.42 42.57 14.15 8.59 33.77"/></clipPath></defs><g id="Layer_2" data-name="Layer 2"><g id="Layer_1-2" data-name="Layer 1"><rect class="cls-2" x="0.05" y="36.62" width="22.14" height="5.95"/><path class="cls-3" d="M1.47,41.15V38h1a1.29,1.29,0,0,1,.59.12.75.75,0,0,1,.33.33.84.84,0,0,1,.11.45.93.93,0,0,1-.06.34.75.75,0,0,1-.18.28.83.83,0,0,1-.31.2,1.53,1.53,0,0,1-.45.06H2v1.33ZM2,39.41H2.5a.67.67,0,0,0,.3-.06A.4.4,0,0,0,3,39.19.54.54,0,0,0,3,38.94.48.48,0,0,0,3,38.7a.4.4,0,0,0-.18-.16.56.56,0,0,0-.3-.07H2Z"/><path class="cls-3" d="M5,41.21A1,1,0,0,1,4.39,41,1,1,0,0,1,4,40.48a2.49,2.49,0,0,1-.13-.87A2.43,2.43,0,0,1,4,38.75a1.09,1.09,0,0,1,.38-.54A1,1,0,0,1,5,38a1,1,0,0,1,.63.19,1.17,1.17,0,0,1,.39.54,2.43,2.43,0,0,1,.13.86,2.49,2.49,0,0,1-.13.87,1.12,1.12,0,0,1-.39.54A1,1,0,0,1,5,41.21Zm0-.41a.49.49,0,0,0,.35-.13.9.9,0,0,0,.23-.4,2.51,2.51,0,0,0,.08-.67A2.35,2.35,0,0,0,5.6,39a1,1,0,0,0-.23-.41.51.51,0,0,0-.7,0,.89.89,0,0,0-.22.41,2.35,2.35,0,0,0-.08.63,2.51,2.51,0,0,0,.08.67.81.81,0,0,0,.22.4A.49.49,0,0,0,5,40.8Z"/><path class="cls-3" d="M6.89,41.11a1.18,1.18,0,0,1-.44-.28l.24-.42,0,0,0,0,0,.08a.48.48,0,0,0,.08.1,1.47,1.47,0,0,0,.28.16,1,1,0,0,0,.35.06.8.8,0,0,0,.23,0,.76.76,0,0,0,.18-.09A.53.53,0,0,0,8,40.53a.34.34,0,0,0,0-.18.51.51,0,0,0,0-.13.16.16,0,0,0,0-.11L7.88,40a1,1,0,0,0-.19-.12l-.27-.13a2.25,2.25,0,0,1-.52-.28,1,1,0,0,1-.27-.31.86.86,0,0,1-.08-.36.68.68,0,0,1,.13-.4A.82.82,0,0,1,7,38.12a1.16,1.16,0,0,1,.51-.1,1.34,1.34,0,0,1,.35,0,1.73,1.73,0,0,1,.31.14,1.09,1.09,0,0,1,.26.22l-.29.34,0,0,0,0s0-.06,0-.08a.26.26,0,0,0-.07-.1.46.46,0,0,0-.22-.13.79.79,0,0,0-.28,0,.58.58,0,0,0-.19,0,.36.36,0,0,0-.15.08.29.29,0,0,0-.1.12.35.35,0,0,0,0,.26.34.34,0,0,0,0,.11l.12.11.2.12.3.13a3.44,3.44,0,0,1,.39.21,1,1,0,0,1,.25.2.76.76,0,0,1,.13.23.88.88,0,0,1,0,.29,1,1,0,0,1-.11.43.93.93,0,0,1-.35.33,1.31,1.31,0,0,1-.63.14A1.56,1.56,0,0,1,6.89,41.11Z"/><path class="cls-3" d="M9,41.15v-.4h.61V38.44H9V38h1.66v.4h-.61v2.31h.64v.4Z"/><path class="cls-3" d="M12,41.15V38.46h-.85V38h2.22v.42h-.89v2.69Z"/><path class="cls-3" d="M13.88,41.15v-.4h.61V38.44h-.58V38h1.66v.4H15v2.31h.64v.4Z"/><path class="cls-3" d="M17.08,41.21a1,1,0,0,1-.63-.19,1,1,0,0,1-.38-.54,2.49,2.49,0,0,1-.13-.87,2.43,2.43,0,0,1,.13-.86,1.09,1.09,0,0,1,.38-.54,1.14,1.14,0,0,1,1.26,0,1.17,1.17,0,0,1,.39.54,2.43,2.43,0,0,1,.13.86,2.49,2.49,0,0,1-.13.87,1.12,1.12,0,0,1-.39.54A1,1,0,0,1,17.08,41.21Zm0-.41a.49.49,0,0,0,.35-.13.9.9,0,0,0,.23-.4,2.51,2.51,0,0,0,.08-.67,2.35,2.35,0,0,0-.08-.63,1,1,0,0,0-.23-.41.51.51,0,0,0-.7,0,1,1,0,0,0-.23.41,2.88,2.88,0,0,0-.07.63,3.06,3.06,0,0,0,.07.67.9.9,0,0,0,.23.4A.49.49,0,0,0,17.08,40.8Z"/><path class="cls-3" d="M18.65,38h.5l1.15,2.14,0-2.14h.49v0a.16.16,0,0,0,0,.07v3h-.44L19.1,38.88v2.27h-.45Z"/><g class="cls-4"><g class="cls-5"><path class="cls-6" d="M20.89,21.08,10.4,27.14v.41L20.9,21.49v-.41M40.71,9.64l-10.48,6v.41l10.48-6.05V9.64"/><polyline class="cls-6" points="10.4 26.13 8.57 28.4 10.41 28.56 10.41 27.55 10.4 27.14 10.4 26.13"/><polyline class="cls-6" points="40.71 8.63 40.71 9.64 40.71 10.05 40.72 11.06 42.55 8.78 40.71 8.63"/><path class="cls-3" d="M26.45,19.1v-2l1.76-1v2l-1.75,1m-3.52,4V17.09l1.75-1,0,6.06-1.76,1m6.75-11.69-8.26,4.77,0,9.49L29.71,21l0-9.49"/><path class="cls-6" d="M21.45,25.72l0-9.49,8.26-4.77,0,9.49-8.26,4.77m8.5-15-8.8,5.08A.56.56,0,0,0,21,16a.46.46,0,0,0-.08.25V26.34a.21.21,0,0,0,.08.18.22.22,0,0,0,.19,0L30,21.42a.5.5,0,0,0,.18-.2.59.59,0,0,0,.08-.27l-.26.16v0l.26-.16V10.84a.17.17,0,0,0-.09-.16.17.17,0,0,0-.18,0"/><polyline class="cls-6" points="24.67 16.07 22.92 17.09 22.93 23.14 24.69 22.13 24.67 16.07"/><polyline class="cls-6" points="28.2 16.06 26.44 17.07 26.45 19.1 28.2 18.08 28.2 16.06"/></g></g><polygon class="cls-3" points="38.75 26.23 38.76 30.15 35.37 32.11 35.35 28.19 38.75 26.23"/><line class="cls-7" x1="35.35" y1="28.19" x2="38.75" y2="26.23"/><line class="cls-7" x1="35.37" y1="32.11" x2="35.35" y2="28.19"/><line class="cls-7" x1="35.37" y1="32.11" x2="38.76" y2="30.15"/><line class="cls-7" x1="38.76" y1="30.15" x2="38.75" y2="26.23"/><line class="cls-8" x1="38.75" y1="26.23" x2="38.6" y2="27.72"/><line class="cls-8" x1="35.35" y1="28.19" x2="36.58" y2="28.89"/><line class="cls-8" x1="35.37" y1="32.11" x2="36.58" y2="31.23"/><line class="cls-8" x1="38.61" y1="30.06" x2="38.76" y2="30.15"/><polygon class="cls-3" points="45.11 28.88 45.13 33.82 40.84 36.29 40.83 31.36 45.11 28.88"/><polygon class="cls-3" points="45.11 28.88 40.83 31.36 36.56 28.88 40.85 26.41 45.11 28.88"/><polygon class="cls-3" points="40.83 31.36 40.84 36.29 36.58 33.82 36.56 28.88 40.83 31.36"/><line class="cls-7" x1="45.11" y1="28.88" x2="40.85" y2="26.41"/><line class="cls-7" x1="45.11" y1="28.88" x2="45.13" y2="33.82"/><line class="cls-7" x1="45.13" y1="33.82" x2="40.84" y2="36.29"/><line class="cls-7" x1="40.84" y1="36.29" x2="36.58" y2="33.82"/><line class="cls-7" x1="36.58" y1="33.82" x2="36.56" y2="28.88"/><line class="cls-7" x1="36.56" y1="28.88" x2="40.85" y2="26.41"/><line class="cls-8" x1="40.83" y1="31.35" x2="40.84" y2="36.29"/><line class="cls-8" x1="40.83" y1="31.35" x2="45.11" y2="28.88"/><line class="cls-8" x1="40.83" y1="31.35" x2="36.56" y2="28.88"/><rect class="cls-9" x="0.05" y="0.05" width="56.69" height="42.52"/></g></g></svg>