<svg xmlns="http://www.w3.org/2000/svg" xmlns:xlink="http://www.w3.org/1999/xlink" viewBox="0 0 56.79 42.62"><defs><style>.cls-1,.cls-3,.cls-4,.cls-6{fill:none;}.cls-2{fill:#fff;}.cls-3,.cls-4,.cls-6{stroke:#231f20;stroke-miterlimit:10;}.cls-3,.cls-4{stroke-linecap:round;}.cls-3{stroke-width:0.5px;}.cls-4{stroke-width:0.2px;}.cls-5{fill:#1c75bc;}.cls-6{stroke-width:0.1px;}.cls-7{isolation:isolate;}.cls-8{clip-path:url(#clip-path);}.cls-9{fill:#231f20;}.cls-10{clip-path:url(#clip-path-2);}</style><clipPath id="clip-path"><polygon class="cls-1" points="11.4 32.89 11.38 24.71 39.72 8.35 39.75 16.52 11.4 32.89"/></clipPath><clipPath id="clip-path-2"><polygon class="cls-1" points="8.59 36.47 8.55 21.14 42.53 1.52 42.58 16.85 8.59 36.47"/></clipPath></defs><g id="Layer_2" data-name="Layer 2"><g id="Layer_1-2" data-name="Layer 1"><polygon class="cls-2" points="35.37 32 35.35 28.08 38.75 26.12 38.76 30.04 35.37 32"/><line class="cls-3" x1="35.35" y1="28.08" x2="38.75" y2="26.12"/><line class="cls-3" x1="35.37" y1="32" x2="35.35" y2="28.08"/><line class="cls-3" x1="35.37" y1="32" x2="38.76" y2="30.03"/><line class="cls-3" x1="38.76" y1="30.03" x2="38.75" y2="26.12"/><line class="cls-4" x1="38.75" y1="26.12" x2="38.6" y2="27.61"/><line class="cls-4" x1="35.35" y1="28.08" x2="36.58" y2="28.78"/><line class="cls-4" x1="35.37" y1="32" x2="36.58" y2="31.12"/><line class="cls-4" x1="38.61" y1="29.95" x2="38.76" y2="30.03"/><polygon class="cls-2" points="45.11 28.77 45.13 33.7 40.84 36.18 40.83 31.24 45.11 28.77"/><polygon class="cls-2" points="45.11 28.77 40.83 31.24 36.56 28.77 40.85 26.3 45.11 28.77"/><polygon class="cls-2" points="40.83 31.24 40.84 36.18 36.58 33.7 36.56 28.77 40.83 31.24"/><line class="cls-3" x1="45.11" y1="28.77" x2="40.85" y2="26.3"/><line class="cls-3" x1="45.11" y1="28.77" x2="45.13" y2="33.71"/><line class="cls-3" x1="45.13" y1="33.71" x2="40.84" y2="36.18"/><line class="cls-3" x1="40.84" y1="36.18" x2="36.58" y2="33.71"/><line class="cls-3" x1="36.58" y1="33.71" x2="36.56" y2="28.77"/><line class="cls-3" x1="36.56" y1="28.77" x2="40.85" y2="26.3"/><line class="cls-4" x1="40.83" y1="31.24" x2="40.84" y2="36.18"/><line class="cls-4" x1="40.83" y1="31.24" x2="45.11" y2="28.77"/><line class="cls-4" x1="40.83" y1="31.24" x2="36.56" y2="28.77"/><rect class="cls-5" x="0.05" y="36.62" width="22.42" height="5.95"/><path class="cls-2" d="M1.47,41.15V38h1a1.22,1.22,0,0,1,.58.12.73.73,0,0,1,.34.33,1,1,0,0,1,0,.79.75.75,0,0,1-.18.28.71.71,0,0,1-.31.19,1.25,1.25,0,0,1-.45.07H2v1.33ZM2,39.41H2.5a.67.67,0,0,0,.3-.06A.37.37,0,0,0,3,39.18a.51.51,0,0,0,0-.48.4.4,0,0,0-.18-.16.56.56,0,0,0-.3-.07H2Z"/><path class="cls-2" d="M4,41.15V38h1a1.51,1.51,0,0,1,.61.11.72.72,0,0,1,.35.31,1.06,1.06,0,0,1,.11.48.87.87,0,0,1-.07.35.81.81,0,0,1-.21.3.83.83,0,0,1-.32.2l.69,1.36H5.56l-.65-1.32H4.46v1.32Zm.5-1.73H5a.61.61,0,0,0,.41-.13A.48.48,0,0,0,5.5,39a.53.53,0,0,0-.06-.24.46.46,0,0,0-.17-.17A.57.57,0,0,0,5,38.47h-.5Z"/><path class="cls-2" d="M6.5,41.15V38h2v.41H7v.87H8.22v.42H7v1h1.5v.41Z"/><path class="cls-2" d="M9.36,41.11a1.15,1.15,0,0,1-.45-.28l.24-.42,0,0,0,0a.24.24,0,0,0,0,.08.48.48,0,0,0,.08.1,1.25,1.25,0,0,0,.28.15.84.84,0,0,0,.35.07.88.88,0,0,0,.24,0l.18-.09a.36.36,0,0,0,.11-.14.34.34,0,0,0,0-.18.53.53,0,0,0,0-.13.24.24,0,0,0-.06-.11.38.38,0,0,0-.11-.11,1,1,0,0,0-.19-.12l-.27-.13a2,2,0,0,1-.51-.28.78.78,0,0,1-.27-.31A.73.73,0,0,1,9,38.8a.68.68,0,0,1,.12-.4.89.89,0,0,1,.35-.28A1.19,1.19,0,0,1,10,38a1.29,1.29,0,0,1,.35,0,1.46,1.46,0,0,1,.31.14.92.92,0,0,1,.26.22l-.29.34,0,0,0,0s0-.06,0-.08a.26.26,0,0,0-.07-.1.46.46,0,0,0-.22-.13.79.79,0,0,0-.28,0,.58.58,0,0,0-.19,0,.36.36,0,0,0-.15.08.31.31,0,0,0-.09.11.25.25,0,0,0,0,.14.51.51,0,0,0,0,.13.41.41,0,0,0,.06.11.44.44,0,0,0,.12.11,2.2,2.2,0,0,0,.19.12l.3.13.39.2a1.1,1.1,0,0,1,.25.21A.59.59,0,0,1,11,40a.88.88,0,0,1,0,.29.84.84,0,0,1-.11.43.86.86,0,0,1-.35.33,1.26,1.26,0,0,1-.62.14A1.48,1.48,0,0,1,9.36,41.11Z"/><path class="cls-2" d="M11.49,41.15V38h2v.41H12v.87h1.24v.42H12v1h1.5v.41Z"/><path class="cls-2" d="M13.91,38h.51l1.14,2.14,0-2.14H16v0a.08.08,0,0,0,0,.07.35.35,0,0,0,0,.12v2.88h-.44l-1.19-2.27v2.27h-.45Z"/><path class="cls-2" d="M17.2,41.11a1.08,1.08,0,0,1-.39-.28,1.26,1.26,0,0,1-.27-.5,2.13,2.13,0,0,1-.1-.71,2.88,2.88,0,0,1,.07-.63,1.77,1.77,0,0,1,.2-.46,1.18,1.18,0,0,1,.29-.3,1,1,0,0,1,.33-.16,1.41,1.41,0,0,1,.35,0,1.05,1.05,0,0,1,.6.16,1,1,0,0,1,.37.45l-.33.22,0,0,0,0a.11.11,0,0,0,0-.08l-.06-.1a.57.57,0,0,0-.23-.19.69.69,0,0,0-.56,0,.78.78,0,0,0-.25.23,1.15,1.15,0,0,0-.16.37,2,2,0,0,0-.06.51,2.57,2.57,0,0,0,.05.5,1.58,1.58,0,0,0,.16.37.69.69,0,0,0,.24.24.67.67,0,0,0,.3.08.85.85,0,0,0,.23,0,.59.59,0,0,0,.2-.12,1.08,1.08,0,0,0,.16-.2l.35.25a1,1,0,0,1-.4.39,1,1,0,0,1-.54.13A1.12,1.12,0,0,1,17.2,41.11Z"/><path class="cls-2" d="M19.07,41.15V38h2v.41H19.54v.87h1.25v.42H19.54v1H21v.41Z"/><rect class="cls-6" x="0.05" y="0.05" width="56.69" height="42.52"/><g class="cls-7"><g class="cls-8"><path class="cls-2" d="M26.27,21V19.41l1.41-.82v1.62L26.27,21m-2.81,3.25V19.41l1.4-.81,0,4.86-1.41.81m5.4-9.6-.28.16,0,.06-.35.2h0l-.28.16,0,.06-.36.2,0,0-.28.16,0,.06-.35.2h0l-.28.16,0,.06-.35.2h0l-.28.16,0,.05-.35.21,0,0-.28.16,0,.06-.36.2h0l-.28.16,0,.06-.35.2,0,0-.28.16,0,.06-.36.21,0,0-.28.16,0,.06-.35.2h0l-.28.16,0,.05-.14.08v.17l0,.06v.33l0,0v.4l0,.06V20l0,0v.41l0,.06v.33h0v.4l0,.07v.32l0,0V22l0,.07v.32l0,0v.41l0,.05v.33l0,0v.4l0,.06V24l0,0v.4l0,.06v.32l0,0v.41l0,.06v.33h0v.4l0,.07v.32l0,0v.17l.14-.08h0l.28-.16,0-.06.36-.2h0l.29-.16,0-.05.35-.21,0,0L24,25.6l0-.06.35-.2h0l.28-.16,0-.05.36-.21,0,0,.28-.16,0-.06.35-.21,0,0,.28-.16,0-.06.35-.2,0,0,.28-.17,0,0,.36-.21,0,0,.29-.16,0-.06.35-.2h0l.28-.16,0-.05.35-.21,0,0,.28-.17,0-.05.14-.09v-.16l0-.06v-.32l0,0v-.4l0-.06v-.32l0,0v-.41l0-.06v-.32l0,0V20l0-.06v-.32l0,0v-.4l0-.06v-.33l0,0V18.4l0,0V18l0,0v-.4l0-.06v-.32l0,0v-.4l0-.06v-.32l0,0V16l0-.06V15.6l0,0v-.4l0-.07v-.32l0,0V14.6l-.14.08h0"/><polyline class="cls-9" points="29.09 22.39 29.06 22.45 29.06 22.61 28.92 22.7 28.88 22.75 28.92 22.78 29.09 22.68 29.12 22.65 29.13 22.61 29.13 22.41 29.09 22.39"/><path class="cls-9" d="M22.94,26.15l-.36.2,0,.06,0,0,.36-.2,0-.07h0m.7-.41-.35.21,0,.05,0,0,.35-.21,0-.06,0,0m.7-.4-.35.2,0,.06,0,0,.35-.2,0-.07h0m.71-.41-.36.21,0,.05,0,0,.36-.21,0-.06,0,0m.7-.41-.35.21,0,.06,0,0,.35-.21,0-.06,0,0m.7-.4-.35.2,0,.06,0,0,.35-.2,0-.06,0,0m.71-.41-.36.21,0,0,0,0,.35-.21,0-.06,0,0m.7-.4-.35.2,0,.06,0,0,.35-.2,0-.07h0m.7-.41-.35.21,0,.05,0,0,.35-.21,0-.06,0,0"/><polyline class="cls-9" points="22.05 26.45 22.02 26.51 22.02 26.72 22.03 26.74 22.05 26.74 22.23 26.64 22.27 26.57 22.23 26.55 22.09 26.64 22.09 26.47 22.05 26.45"/><path class="cls-9" d="M22.05,25.65l0,.05v.41l0,0,0-.07v-.4h0m0-.82,0,.07v.4l0,0,0-.06v-.41l0,0m0-.81,0,.07v.4l0,0,0-.06v-.4l0,0m0-.8,0,.06v.41h0l0-.06v-.4l0,0m0-.81,0,.06v.41h0l0-.05v-.41l0,0m0-.81,0,.06v.41l0,0,0-.07v-.4l0,0m0-.8,0,.06v.4l0,0,0-.07v-.4h0M22,20l0,.07v.4l0,0,0-.06V20l0,0m0-.8,0,.06v.4l0,0,0-.06v-.4l0,0"/><polyline class="cls-9" points="22.21 18.46 22.03 18.57 22.01 18.6 21.99 18.63 21.99 18.84 22.03 18.85 22.07 18.79 22.07 18.63 22.21 18.54 22.24 18.49 22.21 18.46"/><path class="cls-9" d="M22.91,18.06l-.35.2,0,.07h0l.35-.2,0-.06,0,0m.7-.41-.35.2,0,.07,0,0,.36-.21,0-.06,0,0m.71-.4-.35.2,0,.06,0,0,.35-.2,0-.06,0,0m.71-.41-.36.2,0,.07h0l.36-.2,0-.06,0,0m.7-.41-.35.2,0,.07,0,0,.35-.21,0-.05,0,0m.7-.4-.35.2,0,.07h0l.35-.2,0-.06,0,0m.7-.41-.35.2,0,.07h0l.35-.2,0-.06,0,0m.71-.4-.36.2,0,.06,0,0,.36-.2,0-.06,0,0m.7-.41-.35.2,0,.07h0l.35-.2,0-.06,0,0"/><polyline class="cls-9" points="29.07 14.5 28.89 14.6 28.86 14.67 28.89 14.68 29.04 14.6 29.04 14.77 29.07 14.79 29.11 14.73 29.11 14.53 29.09 14.5 29.07 14.5"/><path class="cls-9" d="M29.09,21.58l0,.06V22l0,0,0-.07v-.4l0,0m0-.81,0,.06v.41l0,0,0-.07v-.4l0,0m0-.81,0,.06v.41l0,0,0-.06V20l0,0m0-.8,0,.06v.4l0,0,0-.06v-.4l0,0m0-.81,0,0v.41l0,0,0-.06v-.41h0m0-.81,0,.06V18l0,0,0-.07v-.4l0,0m0-.81,0,.06v.4l0,0,0-.07v-.4l0,0m0-.81L29,16v.41l0,0,0-.06v-.41l0,0m0-.81,0,.07v.4l0,0,0-.06v-.41l0,0"/><polyline class="cls-9" points="24.85 18.6 23.45 19.41 23.46 24.27 24.87 23.46 24.85 18.6"/><polyline class="cls-9" points="27.67 18.59 26.26 19.41 26.27 21.02 27.68 20.21 27.67 18.59"/><path class="cls-2" d="M34.07,18.14V13.28l1.41-.81v4.86l-1.41.81m2.81-4.86V11.66l1.42-.82v1.62l-1.41.82m2.59-4.74-.28.16,0,.06L38.8,9h0l-.28.16,0,.06-.35.2,0,0-.27.16,0,.06-.35.2h0l-.28.16,0,.06-.35.2h0l-.28.16,0,.05-.36.21,0,0-.28.16,0,.06-.35.2h0l-.28.16,0,.06-.36.2,0,0-.28.16,0,.06-.35.21,0,0-.28.16,0,.06-.35.2h0l-.28.16,0,.05-.15.09v.17l0,.05v.33l0,0v.4l0,.06v.32l0,0v.4l0,.06v.33h0v.41l0,.06v.32l0,0v.41l0,.06v.32l0,0v.41l0,.05v.33l0,0v.41l0,.05v.32l0,0v.4l0,.06v.32l0,0v.4l0,.06v.33h0v.41l0,.06v.32l0,0v.17l.15-.08h0l.28-.16,0-.06.35-.2,0,0,.28-.16,0-.06.36-.21,0,0,.28-.16,0-.06.35-.2h0l.28-.16,0,0,.35-.21,0,0,.28-.16,0-.06.35-.21,0,0,.28-.16,0-.06.35-.2,0,0,.28-.17,0-.05.35-.21,0,0,.28-.16,0-.06.36-.2h0L38.8,17l0-.06.35-.2,0,0,.28-.17,0-.05.15-.09v-.16l0-.06v-.32l0,0v-.4l0-.06v-.32l0,0V14.7l0-.06v-.32l0,0v-.41l0-.06v-.32l0,0v-.4l0-.06V12.7l0,0v-.41l0,0V11.9l0,0v-.4l0-.06v-.32l0,0v-.4l0-.06v-.32l0,0V9.85l0-.06V9.47l0,0v-.4l0-.07V8.66l0,0V8.47l-.14.09,0,0"/><polyline class="cls-9" points="39.71 16.26 39.68 16.32 39.68 16.48 39.53 16.57 39.5 16.62 39.53 16.65 39.71 16.55 39.73 16.52 39.75 16.48 39.75 16.27 39.71 16.26"/><path class="cls-9" d="M33.55,20l-.35.2,0,.06,0,0,.35-.2,0-.06,0,0m.71-.41-.36.21,0,.06,0,0,.36-.21,0-.06,0,0m.7-.4-.35.2,0,.06,0,0,.35-.2,0-.07h0m.7-.41-.35.21,0,0,0,0,.35-.21,0-.06,0,0m.71-.41L36,18.6l0,.06,0,0,.35-.21,0-.06,0,0m.7-.4-.35.2,0,.06,0,0,.35-.2,0-.06,0,0m.7-.41-.35.21,0,.05,0,0,.35-.21,0-.06,0,0m.71-.4-.36.2,0,.06,0,0,.35-.2,0-.07h0m.7-.41-.35.2,0,.06,0,0,.35-.21,0-.06,0,0"/><polyline class="cls-9" points="32.67 20.32 32.63 20.38 32.63 20.59 32.65 20.61 32.67 20.61 32.85 20.51 32.88 20.44 32.85 20.43 32.7 20.51 32.7 20.34 32.67 20.32"/><path class="cls-9" d="M32.67,19.52l0,.05V20l0,0,0-.06v-.41h0m0-.82,0,.07v.4l0,0,0-.06v-.4l0,0m0-.81,0,.07v.4l0,0,0-.06v-.4l0,0m0-.8,0,.06v.41h0l0-.05v-.41l0,0m0-.81,0,.06v.41h0l0-.05V16.3l0,0m0-.81,0,.06v.41l0,0,0-.06v-.41l0,0m0-.8,0,.06v.4l0,0,0-.06v-.41h0m0-.82,0,.07v.4l0,0,0-.06v-.4l0,0m0-.8,0,.06v.4l0,0,0-.06v-.4l0,0"/><polyline class="cls-9" points="32.83 12.33 32.65 12.44 32.62 12.46 32.61 12.5 32.61 12.71 32.65 12.72 32.68 12.67 32.68 12.5 32.83 12.41 32.86 12.36 32.83 12.33"/><path class="cls-9" d="M33.53,11.93l-.35.2,0,.07h0l.35-.2,0-.06,0,0m.7-.41-.35.2,0,.07,0,0,.35-.21,0-.06,0,0m.7-.4-.35.2,0,.06,0,0,.36-.2,0-.06,0,0m.71-.41-.35.2,0,.07h0l.35-.2,0-.06,0,0m.71-.41-.36.21,0,.06,0,0,.36-.21,0-.05,0,0m.7-.4-.35.2,0,.07h0l.35-.2,0-.06,0,0m.7-.41-.35.2,0,.07h0l.35-.2,0-.06,0,0m.7-.4-.35.2,0,.06,0,0,.35-.2,0-.06,0,0m.71-.41-.36.2,0,.07h0l.36-.2,0-.06,0,0"/><polyline class="cls-9" points="39.69 8.37 39.51 8.48 39.48 8.54 39.51 8.56 39.65 8.47 39.65 8.64 39.69 8.66 39.72 8.6 39.72 8.4 39.71 8.37 39.69 8.37"/><path class="cls-9" d="M39.71,15.45l0,.06v.4l0,0,0-.07v-.4l0,0m0-.81,0,.06v.41l0,0,0-.07v-.4l0,0m0-.81,0,.06v.41l0,0,0-.06v-.41l0,0m0-.8,0,.06v.4l0,0,0-.06v-.4l0,0m0-.81,0,0v.41l0,0,0-.06v-.41h0m0-.81,0,.06v.4l0,0,0-.07v-.4l0,0m0-.81,0,.06v.4l0,0,0-.07v-.4l0,0m0-.81,0,.06v.41l0,0,0-.06V9.81l0,0m0-.81,0,.07v.4l0,0,0-.06V9l0,0"/><polyline class="cls-9" points="35.47 12.47 34.06 13.28 34.07 18.14 35.48 17.32 35.47 12.47"/><polyline class="cls-9" points="38.28 10.84 36.87 11.66 36.88 13.28 38.29 12.46 38.28 10.84"/><path class="cls-2" d="M15.66,28.77V25.54l1.4-.82V28l-1.4.81M12.84,30.4V25.54l1.4-.81,0,4.86-1.41.81m5.4-9.6L18,21l0,.06-.35.2h0l-.28.16,0,.05-.35.21,0,0-.28.16,0,.06-.36.2h0l-.28.16,0,.06-.35.2h0l-.27.15,0,.06-.35.21,0,0-.28.16,0,.06-.35.2h0l-.28.16,0,.05-.36.21,0,0L13,23.8l0,.06-.35.21,0,0-.28.16,0,.06-.36.2,0,0-.28.17,0,.05-.14.08v.17l0,.06v.33l0,0v.4l0,.06v.32l0,0v.41l0,.06v.33h0v.4l0,.07v.32l0,0v.4l0,.07v.32l0,0V29l0,.05v.33l0,0v.4l0,.06v.32l0,0v.4l0,.06V31l0,0v.41l0,.06v.33h0v.4l0,.07v.32l0,0v.17l.14-.08h0l.29-.16,0-.06.35-.2h0l.28-.16,0-.05.35-.21,0,0,.28-.16,0-.06.36-.2h0l.28-.16,0-.06.35-.2,0,0,.28-.16,0-.06.35-.21,0,0,.28-.16,0-.06.36-.2h0l.29-.16,0-.05.35-.21,0,0,.28-.16,0-.06.36-.21,0,0,.28-.16,0-.06L18,29l0,0,.28-.17,0-.05.14-.09v-.16l0-.06v-.33l0,0v-.4l0-.06v-.32l0,0V27l0-.06v-.33h0v-.4l0-.07v-.32l0,0v-.4l0-.07V25l0,0v-.41l0-.06v-.32l0,0v-.4l0-.06v-.32l0,0v-.4l0-.06v-.32l0,0v-.41l0-.06v-.33h0v-.4l0-.07v-.32l0,0v-.17l-.14.08h0"/><polyline class="cls-9" points="18.48 28.52 18.44 28.58 18.44 28.75 18.3 28.83 18.26 28.89 18.3 28.91 18.48 28.8 18.5 28.77 18.51 28.74 18.51 28.54 18.48 28.52"/><path class="cls-9" d="M12.32,32.28l-.35.2,0,.06,0,0,.35-.2,0-.07h0m.7-.41-.35.21,0,.05,0,0L13,32l0-.07,0,0m.71-.4-.36.2,0,.06,0,0,.36-.2,0-.07h0m.7-.41-.35.2,0,.06,0,0,.35-.2,0-.06,0,0m.7-.41-.35.21,0,.06,0,0,.35-.21,0-.06,0,0m.71-.4-.36.2,0,.06,0,0,.36-.2,0-.07h0m.7-.41-.35.21,0,.05,0,0,.35-.21,0-.06,0,0m.71-.41-.36.21,0,.06,0,0,.36-.21,0-.06,0,0M18,29l-.35.2,0,.06,0,0,.35-.2,0-.06,0,0"/><polyline class="cls-9" points="11.44 32.58 11.4 32.64 11.4 32.84 11.41 32.87 11.44 32.87 11.62 32.77 11.65 32.7 11.62 32.69 11.47 32.77 11.47 32.6 11.44 32.58"/><path class="cls-9" d="M11.43,31.78l0,0v.4l0,0,0-.07v-.4h0m0-.82,0,.06v.41l0,0,0-.06V31l0,0m0-.81,0,.07v.4l0,0,0-.06v-.4l0,0m0-.8,0,.06v.4l0,0,0-.06v-.4l0,0m0-.81,0,.06V29h0l0-.05v-.41l0,0m0-.81,0,.06v.4l0,0,0-.07v-.4l0,0m0-.8,0,.05v.41l0,0,0-.07v-.4h0m0-.82,0,.06v.41l0,0,0-.06v-.41l0,0m0-.8,0,.06v.4l0,0,0-.06v-.4l0,0"/><polyline class="cls-9" points="11.59 24.59 11.41 24.7 11.39 24.73 11.38 24.76 11.38 24.96 11.41 24.98 11.45 24.92 11.45 24.75 11.59 24.67 11.63 24.61 11.59 24.59"/><path class="cls-9" d="M12.3,24.19l-.36.2,0,.06,0,0,.36-.2,0-.06,0,0m.7-.41-.35.21,0,.06,0,0,.35-.21,0-.06,0,0m.71-.41-.36.21,0,.06,0,0,.36-.21,0-.05,0,0m.7-.4-.35.2,0,.07h0l.35-.2,0-.06,0,0m.7-.41-.35.2,0,.07,0,0,.35-.21,0-.06,0,0m.7-.4-.35.2,0,.07h0l.35-.2,0-.06,0,0m.71-.41-.36.2,0,.07h0l.36-.2,0-.06,0,0m.7-.41-.35.21,0,.06,0,0,.35-.21,0-.05,0,0m.71-.4-.35.2,0,.07h0l.35-.2L18,21l0,0"/><polyline class="cls-9" points="18.46 20.63 18.28 20.73 18.24 20.8 18.28 20.81 18.42 20.73 18.42 20.9 18.46 20.92 18.49 20.86 18.49 20.66 18.48 20.63 18.46 20.63"/><path class="cls-9" d="M18.48,27.71l0,.06v.4l0,0,0-.06v-.4l0,0m0-.81,0,.06v.41l0,0,0-.07v-.4l0,0m0-.81,0,.07v.4h0l0-.05v-.41l0,0m0-.81,0,.07v.4l0,0,0-.06v-.4l0,0m0-.81,0,.06v.41l0,0,0-.06v-.41l0,0m0-.8,0,.06v.4l0,0,0-.06v-.4l0,0m0-.81,0,.06v.4l0,0,0-.07v-.4l0,0m0-.81,0,.06v.41l0,0,0-.06v-.41l0,0m0-.81,0,.07v.4h0l0,0v-.41l0,0"/><polyline class="cls-9" points="14.23 24.73 12.83 25.54 12.84 30.4 14.25 29.59 14.23 24.73"/><polyline class="cls-9" points="17.05 24.73 15.65 25.54 15.66 28.77 17.06 27.96 17.05 24.73"/></g></g><g class="cls-7"><g class="cls-10"><path class="cls-9" d="M21.16,28.8c-.18.11-.33,0-.33-.18l0-10.17a.71.71,0,0,1,.33-.56L30,12.78c.17-.11.32,0,.32.18l0,10.17a.7.7,0,0,1-.32.56L21.16,28.8M30,12.37l-8.84,5.11a1.5,1.5,0,0,0-.68,1.17l0,10.17c0,.43.3.61.68.39L30,24.11a1.53,1.53,0,0,0,.68-1.18l0-10.17c0-.43-.31-.6-.69-.39"/><polyline class="cls-9" points="40.7 3.6 10.39 21.09 10.39 21.5 40.7 4.01 40.7 3.6"/><polyline class="cls-9" points="10.39 20.08 8.55 22.36 10.4 22.52 10.39 21.5 10.39 21.09 10.39 20.08"/><polyline class="cls-9" points="40.7 2.58 40.7 3.6 40.7 4.01 40.7 5.02 42.54 2.74 40.7 2.58"/></g></g></g></g></svg>