<svg xmlns="http://www.w3.org/2000/svg" xmlns:xlink="http://www.w3.org/1999/xlink" viewBox="0 0 56.79 42.62"><defs><style>.cls-1,.cls-7,.cls-8,.cls-9{fill:none;}.cls-2{isolation:isolate;}.cls-3{clip-path:url(#clip-path);}.cls-4{fill:#fff;}.cls-5{fill:#231f20;}.cls-6{fill:#1c75bc;}.cls-7,.cls-8,.cls-9{stroke:#231f20;stroke-miterlimit:10;}.cls-7{stroke-width:0.1px;}.cls-8,.cls-9{stroke-linecap:round;}.cls-8{stroke-width:0.5px;}.cls-9{stroke-width:0.2px;}.cls-10{clip-path:url(#clip-path-2);}.cls-11{clip-path:url(#clip-path-3);}.cls-12{clip-path:url(#clip-path-4);}.cls-13{clip-path:url(#clip-path-5);}</style><clipPath id="clip-path"><polygon class="cls-1" points="20.17 36.14 20.11 17.74 36.12 8.5 36.17 26.9 20.17 36.14"/></clipPath><clipPath id="clip-path-2"><polygon class="cls-1" points="20.11 29.89 20.07 17.84 30.56 11.79 30.6 23.83 20.11 29.89"/></clipPath><clipPath id="clip-path-3"><polygon class="cls-1" points="2.72 15.49 16.9 7.25 23.43 11.01 9.24 19.26 2.72 15.49"/></clipPath><clipPath id="clip-path-4"><polygon class="cls-1" points="9.79 19.57 9.83 3.17 16.36 6.93 16.31 23.34 9.79 19.57"/></clipPath><clipPath id="clip-path-5"><polygon class="cls-1" points="29.09 31.19 29.06 22.43 36.7 18.02 36.72 26.78 29.09 31.19"/></clipPath></defs><g id="Layer_2" data-name="Layer 2"><g id="Layer_1-2" data-name="Layer 1"><g class="cls-2"><g class="cls-3"><path class="cls-4" d="M23.07,25.77v-1l.88-.51v1l-.88.51m-1.78,2V24.75l.89-.51v3.05l-.89.52m3.27-5.66-3.9,2.25,0,4.48,3.9-2.26,0-4.47"/><path class="cls-5" d="M20.68,28.88l0-4.48,3.9-2.25,0,4.47-3.9,2.26m4.14-7.49L20.39,24a.47.47,0,0,0-.18.19.56.56,0,0,0-.08.26l0,5.09a.2.2,0,0,0,.07.18.22.22,0,0,0,.19,0l4.43-2.56a.61.61,0,0,0,.19-.2.56.56,0,0,0,.08-.26l-.27.15v0l.27-.15,0-5.1c0-.08,0-.14-.07-.16a.21.21,0,0,0-.2,0"/><polyline class="cls-5" points="22.17 24.24 21.29 24.75 21.29 27.81 22.18 27.29 22.17 24.24"/><polyline class="cls-5" points="23.94 24.24 23.06 24.75 23.07 25.77 23.95 25.26 23.94 24.24"/><path class="cls-4" d="M32.35,21.43V18.37l.88-.5v3.05l-.88.51m1.76-3.06v-1l.88-.51v1l-.89.51m1.5-2.6L31.72,18V22.5l3.89-2.25V15.77"/><path class="cls-5" d="M31.73,22.5V18l3.89-2.25v4.48L31.73,22.5M35.88,15l-4.43,2.56a.71.71,0,0,0-.2.19.68.68,0,0,0-.07.26v5.09a.24.24,0,0,0,.08.18.22.22,0,0,0,.19,0l4.43-2.56a.61.61,0,0,0,.19-.2.54.54,0,0,0,.07-.26l-.26.15v0l.26-.15V15.16a.19.19,0,0,0-.08-.17.17.17,0,0,0-.18,0"/><polyline class="cls-5" points="33.22 17.86 32.34 18.37 32.34 21.43 33.23 20.92 33.22 17.86"/><polyline class="cls-5" points="34.99 16.84 34.1 17.35 34.11 18.37 35 17.86 34.99 16.84"/><path class="cls-4" d="M28.57,16.23v-1l.88-.52v1l-.89.51m-1.77,2v-3l.89-.51v3.05l-.89.51m.88-2.54v-1l.88-.51v1l-.89.51m2.39-3.12-3.9,2.26v4.47l3.9-2.25V12.61"/><path class="cls-5" d="M26.18,19.34V14.87l3.9-2.26v4.48l-3.9,2.25m4.15-7.49L25.9,14.4a.56.56,0,0,0-.19.21.47.47,0,0,0-.07.25V20a.16.16,0,0,0,.08.16.19.19,0,0,0,.19,0l4.43-2.56a.53.53,0,0,0,.19-.2.51.51,0,0,0,.07-.26l-.27.16v0l.27-.16V12a.18.18,0,0,0-.08-.17.19.19,0,0,0-.19,0"/><polyline class="cls-5" points="27.68 14.71 26.79 15.22 26.8 18.27 27.69 17.76 27.68 14.71"/><polyline class="cls-5" points="29.45 14.7 28.57 15.21 28.57 16.23 29.46 15.71 29.45 14.7"/><polyline class="cls-5" points="28.57 14.2 27.68 14.71 27.68 15.73 28.57 15.21 28.57 14.2"/><path class="cls-4" d="M28.61,28.93v-1l.89-.52v2l-.89.51v-1m-1.78,2V27.91l.88-.51v3.05l-.89.51m3.28-5.65L26.2,27.56l0,4.48,3.9-2.25V25.31"/><path class="cls-5" d="M26.22,32l0-4.48,3.91-2.25v4.48L26.22,32m4.15-7.49L25.94,27.1a.53.53,0,0,0-.19.2.56.56,0,0,0-.08.26l0,5.09a.17.17,0,0,0,.08.17.19.19,0,0,0,.19,0l4.42-2.55a.53.53,0,0,0,.19-.2.59.59,0,0,0,.08-.27l-.27.16v0l.27-.16,0-5.09a.19.19,0,0,0-.07-.17.2.2,0,0,0-.19,0"/><polyline class="cls-5" points="27.71 27.4 26.82 27.91 26.83 30.96 27.72 30.45 27.71 27.4"/><polyline class="cls-5" points="29.49 27.39 28.6 27.91 28.61 28.93 29.49 28.41 29.49 27.39"/><polyline class="cls-5" points="29.49 28.41 28.61 28.93 28.61 29.94 29.5 29.43 29.49 28.41"/></g></g><rect class="cls-6" x="0.05" y="36.62" width="22.42" height="5.95"/><path class="cls-4" d="M1.47,41.15V38h1a1.29,1.29,0,0,1,.59.12.75.75,0,0,1,.33.33.84.84,0,0,1,.11.45.93.93,0,0,1-.06.34.75.75,0,0,1-.18.28.71.71,0,0,1-.31.19,1.25,1.25,0,0,1-.45.07H2v1.33ZM2,39.41H2.5a.67.67,0,0,0,.3-.06A.37.37,0,0,0,3,39.18a.51.51,0,0,0,0-.48.49.49,0,0,0-.18-.17.67.67,0,0,0-.3-.06H2Z"/><path class="cls-4" d="M4,41.15V38h1a1.36,1.36,0,0,1,.61.11.72.72,0,0,1,.35.31,1,1,0,0,1,.11.48.87.87,0,0,1-.07.35.9.9,0,0,1-.21.3.83.83,0,0,1-.32.2l.69,1.36H5.56l-.65-1.32H4.46v1.32Zm.5-1.73H5a.61.61,0,0,0,.41-.13A.49.49,0,0,0,5.5,39a.5.5,0,0,0-.06-.24.46.46,0,0,0-.17-.17A.57.57,0,0,0,5,38.47h-.5Z"/><path class="cls-4" d="M6.5,41.15V38h2v.41H7v.87H8.22v.42H7v1h1.5v.41Z"/><path class="cls-4" d="M9.36,41.11a1.15,1.15,0,0,1-.45-.28l.24-.42,0,0,0,0a.24.24,0,0,0,0,.08.48.48,0,0,0,.08.1,1.25,1.25,0,0,0,.28.15.84.84,0,0,0,.35.07.88.88,0,0,0,.24,0l.18-.09a.36.36,0,0,0,.11-.14.34.34,0,0,0,0-.18.53.53,0,0,0,0-.13.24.24,0,0,0-.06-.11.29.29,0,0,0-.11-.11,1,1,0,0,0-.19-.12l-.27-.13a2,2,0,0,1-.51-.28.78.78,0,0,1-.27-.31A.86.86,0,0,1,9,38.8a.68.68,0,0,1,.12-.4.89.89,0,0,1,.35-.28A1.19,1.19,0,0,1,10,38a1.29,1.29,0,0,1,.35,0,1.46,1.46,0,0,1,.31.14.92.92,0,0,1,.26.22l-.29.34,0,0,0,0s0-.06,0-.08a.26.26,0,0,0-.07-.1.46.46,0,0,0-.22-.13.79.79,0,0,0-.28,0,.58.58,0,0,0-.19,0,.36.36,0,0,0-.15.08.31.31,0,0,0-.09.11.25.25,0,0,0,0,.14.51.51,0,0,0,0,.13.41.41,0,0,0,.06.11.44.44,0,0,0,.12.11l.19.12.3.13.39.2a1.1,1.1,0,0,1,.25.21A.59.59,0,0,1,11,40a.88.88,0,0,1,0,.29.83.83,0,0,1-.46.76,1.26,1.26,0,0,1-.62.14A1.48,1.48,0,0,1,9.36,41.11Z"/><path class="cls-4" d="M11.49,41.15V38h2v.41H12v.87h1.24v.42H12v1h1.5v.41Z"/><path class="cls-4" d="M13.91,38h.51l1.14,2.14,0-2.14H16v0a.08.08,0,0,0,0,.07.35.35,0,0,0,0,.12v2.88h-.44l-1.19-2.27v2.27h-.45Z"/><path class="cls-4" d="M17.2,41.11a1,1,0,0,1-.39-.29,1.16,1.16,0,0,1-.27-.49,2.13,2.13,0,0,1-.1-.71,2.88,2.88,0,0,1,.07-.63,1.77,1.77,0,0,1,.2-.46,1.38,1.38,0,0,1,.29-.3,1.12,1.12,0,0,1,.33-.16,1.22,1.22,0,0,1,1,.11,1,1,0,0,1,.37.45l-.33.22,0,0,0,0a.11.11,0,0,0,0-.08l-.06-.1a.57.57,0,0,0-.23-.19.6.6,0,0,0-.26,0,.63.63,0,0,0-.3.07.78.78,0,0,0-.25.23,1.15,1.15,0,0,0-.16.37,1.93,1.93,0,0,0-.06.51,2.57,2.57,0,0,0,.05.5,1.58,1.58,0,0,0,.16.37.69.69,0,0,0,.24.24.67.67,0,0,0,.3.08.85.85,0,0,0,.23,0,.59.59,0,0,0,.2-.12,1.08,1.08,0,0,0,.16-.2l.35.25a1,1,0,0,1-.4.39,1,1,0,0,1-.54.13A1.12,1.12,0,0,1,17.2,41.11Z"/><path class="cls-4" d="M19.07,41.15V38h2v.41H19.54v.87h1.25v.42H19.54v1H21v.41Z"/><rect class="cls-7" x="0.05" y="0.05" width="56.69" height="42.52"/><polygon class="cls-4" points="34.32 22.81 34.32 25.52 31.97 26.88 31.96 24.17 34.32 22.81"/><polygon class="cls-4" points="34.32 22.81 31.96 24.17 14.9 14.42 17.26 13.06 34.32 22.81"/><polygon class="cls-4" points="31.96 24.17 31.97 26.88 14.91 17.13 14.9 14.42 31.96 24.17"/><line class="cls-8" x1="34.32" y1="22.81" x2="17.26" y2="13.06"/><line class="cls-8" x1="34.32" y1="22.81" x2="34.32" y2="25.52"/><line class="cls-8" x1="34.32" y1="25.52" x2="31.97" y2="26.88"/><line class="cls-8" x1="31.97" y1="26.88" x2="14.91" y2="17.13"/><line class="cls-8" x1="14.91" y1="17.13" x2="14.9" y2="14.42"/><line class="cls-8" x1="14.9" y1="14.42" x2="17.26" y2="13.06"/><line class="cls-9" x1="31.96" y1="24.17" x2="31.97" y2="26.88"/><line class="cls-9" x1="31.96" y1="24.17" x2="34.32" y2="22.81"/><line class="cls-9" x1="31.96" y1="24.17" x2="14.9" y2="14.42"/><g class="cls-2"><g class="cls-10"><path class="cls-4" d="M23,25.86v-1l.89-.51v1l-.89.51m-1.76,2V24.84l.88-.51v3.06l-.88.51m3.26-5.66-3.89,2.25V29l3.9-2.25,0-4.48"/><path class="cls-5" d="M20.64,29V24.49l3.89-2.25,0,4.48L20.64,29m4.15-7.49L20.36,24a.73.73,0,0,0-.19.2.59.59,0,0,0-.08.27l0,5.08a.25.25,0,0,0,.07.18.21.21,0,0,0,.2,0l4.43-2.56A.51.51,0,0,0,25,27a.56.56,0,0,0,.08-.26l-.26.15v0l.26-.15,0-5.09a.18.18,0,0,0-.07-.17.19.19,0,0,0-.19,0"/><polyline class="cls-5" points="22.13 24.33 21.25 24.84 21.26 27.9 22.14 27.39 22.13 24.33"/><polyline class="cls-5" points="23.91 24.33 23.02 24.84 23.02 25.86 23.91 25.35 23.91 24.33"/><path class="cls-4" d="M28.53,16.33v-1l.88-.52v1l-.89.52m-1.77,2v-3l.88-.51v3.05l-.89.51m.89-2.54v-1l.88-.51v1l-.88.51M30,12.71,26.13,15l0,4.49L30,17.19V12.71"/><path class="cls-5" d="M26.15,19.44l0-4.49L30,12.71v4.48l-3.89,2.25m4.14-7.5L25.86,14.5a.44.44,0,0,0-.18.2.5.5,0,0,0-.08.26v5.09a.19.19,0,0,0,.08.17.22.22,0,0,0,.19,0l4.43-2.56a.69.69,0,0,0,.19-.19.59.59,0,0,0,.08-.27l-.27.15v0l.27-.15,0-5.09a.19.19,0,0,0-.08-.17s-.11,0-.19,0"/><polyline class="cls-5" points="27.64 14.8 26.75 15.31 26.76 18.36 27.65 17.85 27.64 14.8"/><polyline class="cls-5" points="29.41 14.79 28.53 15.31 28.53 16.33 29.42 15.81 29.41 14.79"/><polyline class="cls-5" points="28.52 14.29 27.64 14.8 27.64 15.82 28.53 15.31 28.52 14.29"/></g></g><g class="cls-2"><g class="cls-11"><path class="cls-5" d="M20.71,10.46a14.54,14.54,0,0,0-10.9.91c-2.94,1.71-3.45,4.29-1.53,6.31l.4-.17c-1.77-1.9-1.28-4.33,1.49-5.94a13.79,13.79,0,0,1,10.24-.88l.3-.23"/><polyline class="cls-5" points="9.66 17.08 8.68 17.51 8.28 17.68 7.28 18.12 10.03 18.8 9.66 17.08"/><polyline class="cls-5" points="21.46 9.88 20.71 10.46 20.41 10.69 19.67 11.27 22.64 11.47 21.46 9.88"/></g></g><g class="cls-2"><g class="cls-12"><path class="cls-5" d="M14.51,6.88c-2.7-.65-4.68,1.08-4.7,4.49a14.56,14.56,0,0,0,4.66,9.89l.06-.38a13.71,13.71,0,0,1-4.36-9.31c0-3.19,1.86-4.83,4.39-4.26l-.05-.43"/><polyline class="cls-5" points="14.65 19.96 14.53 20.88 14.47 21.26 14.35 22.2 16.31 22.43 14.65 19.96"/><polyline class="cls-5" points="14.39 5.8 14.51 6.88 14.56 7.32 14.69 8.38 16.36 7.84 14.39 5.8"/></g></g><polygon class="cls-4" points="37.35 29.19 40.75 27.23 40.76 31.15 37.37 33.11 37.35 29.19"/><line class="cls-8" x1="37.35" y1="29.19" x2="40.75" y2="27.23"/><line class="cls-8" x1="37.37" y1="33.11" x2="37.35" y2="29.19"/><line class="cls-8" x1="37.37" y1="33.11" x2="40.76" y2="31.15"/><line class="cls-8" x1="40.76" y1="31.15" x2="40.75" y2="27.23"/><line class="cls-9" x1="40.75" y1="27.23" x2="40.6" y2="28.72"/><line class="cls-9" x1="37.35" y1="29.19" x2="38.58" y2="29.89"/><line class="cls-9" x1="37.37" y1="33.11" x2="38.58" y2="32.23"/><line class="cls-9" x1="40.61" y1="31.06" x2="40.76" y2="31.15"/><polygon class="cls-4" points="47.11 29.88 47.13 34.82 42.84 37.29 42.83 32.35 47.11 29.88"/><polygon class="cls-4" points="47.11 29.88 42.83 32.35 38.56 29.88 42.85 27.41 47.11 29.88"/><polygon class="cls-4" points="42.83 32.35 42.84 37.29 38.58 34.82 38.56 29.88 42.83 32.35"/><line class="cls-8" x1="47.11" y1="29.88" x2="42.85" y2="27.41"/><line class="cls-8" x1="47.11" y1="29.88" x2="47.13" y2="34.82"/><line class="cls-8" x1="47.13" y1="34.82" x2="42.84" y2="37.29"/><line class="cls-8" x1="42.84" y1="37.29" x2="38.58" y2="34.82"/><line class="cls-8" x1="38.58" y1="34.82" x2="38.56" y2="29.88"/><line class="cls-8" x1="38.56" y1="29.88" x2="42.85" y2="27.41"/><line class="cls-9" x1="42.83" y1="32.35" x2="42.84" y2="37.29"/><line class="cls-9" x1="42.83" y1="32.35" x2="47.11" y2="29.88"/><line class="cls-9" x1="42.83" y1="32.35" x2="38.56" y2="29.88"/><g class="cls-2"><g class="cls-13"><path class="cls-4" d="M32.88,20.62a7.61,7.61,0,0,0-3.45,6,2.4,2.4,0,0,0,1,2.23,2.44,2.44,0,0,0,2.45-.24A7.06,7.06,0,0,0,35.34,26a7,7,0,0,0,1-3.41l.18-.1-.18.1a2.4,2.4,0,0,0-1-2.22,2.44,2.44,0,0,0-2.45.24"/><path class="cls-5" d="M32.88,20.22a8.4,8.4,0,0,0-3.81,6.59c0,2.42,1.73,3.39,3.83,2.18a8.37,8.37,0,0,0,3.81-6.59l-.18.1-.18.1a7,7,0,0,1-1,3.41,7.06,7.06,0,0,1-2.44,2.58,2.44,2.44,0,0,1-2.45.24,2.4,2.4,0,0,1-1-2.23,7.61,7.61,0,0,1,3.45-6,2.44,2.44,0,0,1,2.45-.24,2.4,2.4,0,0,1,1,2.22l.18-.1.18-.1C36.7,20,35,19,32.88,20.22"/></g></g></g></g></svg>