<svg xmlns="http://www.w3.org/2000/svg" xmlns:xlink="http://www.w3.org/1999/xlink" viewBox="0 0 56.79 42.62"><defs><style>.cls-1,.cls-3,.cls-4,.cls-9{fill:none;}.cls-2{fill:#fff;}.cls-3,.cls-4,.cls-9{stroke:#231f20;stroke-miterlimit:10;}.cls-3,.cls-4{stroke-linecap:round;}.cls-3{stroke-width:0.5px;}.cls-4{stroke-width:0.2px;}.cls-5{fill:#39b54a;}.cls-6{isolation:isolate;}.cls-7{clip-path:url(#clip-path);}.cls-8{fill:#231f20;}.cls-9{stroke-width:0.1px;}.cls-10{clip-path:url(#clip-path-2);}.cls-11{clip-path:url(#clip-path-3);}</style><clipPath id="clip-path"><polygon class="cls-1" points="24.79 28.73 24.77 20.17 32.23 15.86 32.25 24.42 24.79 28.73"/></clipPath><clipPath id="clip-path-2"><polygon class="cls-1" points="3.92 15.84 18.11 7.59 24.63 11.36 10.44 19.6 3.92 15.84"/></clipPath><clipPath id="clip-path-3"><polygon class="cls-1" points="10.99 19.92 11.04 3.51 17.56 7.28 17.51 23.68 10.99 19.92"/></clipPath></defs><g id="Layer_2" data-name="Layer 2"><g id="Layer_1-2" data-name="Layer 1"><polygon class="cls-2" points="27.98 19.3 27.98 22.01 25.63 23.37 25.62 20.66 27.98 19.3"/><polygon class="cls-2" points="27.98 19.3 25.62 20.66 14.4 14.28 16.75 12.92 27.98 19.3"/><polygon class="cls-2" points="25.62 20.66 25.63 23.37 14.4 16.99 14.4 14.28 25.62 20.66"/><line class="cls-3" x1="27.98" y1="19.3" x2="16.75" y2="12.92"/><line class="cls-3" x1="27.98" y1="19.3" x2="27.98" y2="22.01"/><line class="cls-3" x1="27.98" y1="22.01" x2="25.63" y2="23.37"/><line class="cls-3" x1="25.63" y1="23.37" x2="14.4" y2="16.99"/><line class="cls-3" x1="14.4" y1="16.99" x2="14.4" y2="14.28"/><line class="cls-3" x1="14.4" y1="14.28" x2="16.75" y2="12.92"/><line class="cls-4" x1="25.62" y1="20.66" x2="25.63" y2="23.37"/><line class="cls-4" x1="25.62" y1="20.66" x2="27.98" y2="19.3"/><line class="cls-4" x1="25.62" y1="20.66" x2="14.4" y2="14.28"/><polygon class="cls-2" points="32.53 15.43 32.55 24.66 24.55 29.28 24.51 20.06 32.53 15.43"/><polygon class="cls-2" points="32.53 15.43 24.51 20.06 22.96 19.17 30.98 14.54 32.53 15.43"/><polygon class="cls-2" points="24.51 20.06 24.55 29.28 22.98 28.39 22.96 19.17 24.51 20.06"/><line class="cls-3" x1="32.53" y1="15.43" x2="30.98" y2="14.54"/><line class="cls-3" x1="32.53" y1="15.43" x2="32.55" y2="24.66"/><line class="cls-3" x1="32.55" y1="24.66" x2="24.55" y2="29.28"/><line class="cls-3" x1="24.55" y1="29.28" x2="22.98" y2="28.39"/><line class="cls-3" x1="22.98" y1="28.39" x2="22.96" y2="19.17"/><line class="cls-3" x1="22.96" y1="19.17" x2="30.98" y2="14.54"/><line class="cls-4" x1="24.51" y1="20.06" x2="24.55" y2="29.28"/><line class="cls-4" x1="24.51" y1="20.06" x2="32.53" y2="15.43"/><line class="cls-4" x1="24.51" y1="20.06" x2="22.96" y2="19.17"/><rect class="cls-5" x="0.05" y="36.62" width="22.14" height="5.95"/><path class="cls-2" d="M1.47,41.15V38h1a1.29,1.29,0,0,1,.59.12.75.75,0,0,1,.33.33.84.84,0,0,1,.11.45.93.93,0,0,1-.06.34.75.75,0,0,1-.18.28.83.83,0,0,1-.31.2,1.53,1.53,0,0,1-.45.06H2v1.33ZM2,39.41H2.5a.67.67,0,0,0,.3-.06A.4.4,0,0,0,3,39.19.54.54,0,0,0,3,38.94.48.48,0,0,0,3,38.7a.4.4,0,0,0-.18-.16.56.56,0,0,0-.3-.07H2Z"/><path class="cls-2" d="M5,41.21A1,1,0,0,1,4.39,41,1,1,0,0,1,4,40.48a2.49,2.49,0,0,1-.13-.87A2.43,2.43,0,0,1,4,38.75a1.09,1.09,0,0,1,.38-.54A1,1,0,0,1,5,38a1,1,0,0,1,.63.19,1.17,1.17,0,0,1,.39.54,2.43,2.43,0,0,1,.13.86,2.49,2.49,0,0,1-.13.87,1.12,1.12,0,0,1-.39.54A1,1,0,0,1,5,41.21Zm0-.41a.49.49,0,0,0,.35-.13.9.9,0,0,0,.23-.4,2.51,2.51,0,0,0,.08-.67A2.35,2.35,0,0,0,5.6,39a1,1,0,0,0-.23-.41.51.51,0,0,0-.7,0,.89.89,0,0,0-.22.41,2.35,2.35,0,0,0-.08.63,2.51,2.51,0,0,0,.08.67.81.81,0,0,0,.22.4A.49.49,0,0,0,5,40.8Z"/><path class="cls-2" d="M6.89,41.11a1.18,1.18,0,0,1-.44-.28l.24-.42,0,0,0,0a.24.24,0,0,0,0,.08.48.48,0,0,0,.08.1,1.47,1.47,0,0,0,.28.16,1,1,0,0,0,.35.06.8.8,0,0,0,.23,0,.76.76,0,0,0,.18-.09A.53.53,0,0,0,8,40.53a.34.34,0,0,0,0-.18c0-.05,0-.09,0-.13A.24.24,0,0,0,8,40.11L7.88,40a1,1,0,0,0-.19-.12l-.27-.13a2.25,2.25,0,0,1-.52-.28,1,1,0,0,1-.27-.31.86.86,0,0,1-.08-.36.68.68,0,0,1,.13-.4A.82.82,0,0,1,7,38.12a1.16,1.16,0,0,1,.51-.1,1.34,1.34,0,0,1,.35,0,1.73,1.73,0,0,1,.31.14,1.09,1.09,0,0,1,.26.22l-.29.34,0,0,0,0s0-.06,0-.08a.26.26,0,0,0-.07-.1.46.46,0,0,0-.22-.13.79.79,0,0,0-.28,0,.58.58,0,0,0-.19,0,.36.36,0,0,0-.15.08.29.29,0,0,0-.1.12.35.35,0,0,0,0,.26.34.34,0,0,0,0,.11l.12.11.2.12.3.13a3.44,3.44,0,0,1,.39.21,1,1,0,0,1,.25.2.76.76,0,0,1,.13.23.88.88,0,0,1,0,.29,1,1,0,0,1-.11.43.93.93,0,0,1-.35.33,1.29,1.29,0,0,1-.62.14A1.57,1.57,0,0,1,6.89,41.11Z"/><path class="cls-2" d="M9,41.15v-.4h.61V38.44H9V38h1.66v.4h-.61v2.31h.64v.4Z"/><path class="cls-2" d="M12,41.15V38.46h-.85V38h2.22v.42h-.89v2.69Z"/><path class="cls-2" d="M13.88,41.15v-.4h.61V38.44h-.58V38h1.66v.4H15v2.31h.64v.4Z"/><path class="cls-2" d="M17.08,41.21a1,1,0,0,1-.63-.19,1,1,0,0,1-.38-.54,2.49,2.49,0,0,1-.13-.87,2.43,2.43,0,0,1,.13-.86,1.09,1.09,0,0,1,.38-.54,1.14,1.14,0,0,1,1.26,0,1.17,1.17,0,0,1,.39.54,2.43,2.43,0,0,1,.13.86,2.49,2.49,0,0,1-.13.87,1.12,1.12,0,0,1-.39.54A1,1,0,0,1,17.08,41.21Zm0-.41a.49.49,0,0,0,.35-.13.9.9,0,0,0,.23-.4,2.51,2.51,0,0,0,.08-.67,2.35,2.35,0,0,0-.08-.63,1,1,0,0,0-.23-.41.51.51,0,0,0-.7,0,.89.89,0,0,0-.22.41,2.35,2.35,0,0,0-.08.63,2.51,2.51,0,0,0,.08.67.81.81,0,0,0,.22.4A.49.49,0,0,0,17.08,40.8Z"/><path class="cls-2" d="M18.65,38h.5l1.15,2.14,0-2.14h.49v0a.16.16,0,0,0,0,.07v3h-.44L19.1,38.88v2.27h-.45Z"/><g class="cls-6"><g class="cls-7"><path class="cls-2" d="M29.2,22.69V21.1l1.38-.8v1.59l-1.39.8m-2.76,3.19V21.11l1.38-.8,0,4.77-1.39.8m5.25-9.1-6.38,3.69,0,7.34,6.38-3.68,0-7.35"/><path class="cls-8" d="M25.33,27.81l0-7.34,6.38-3.69,0,7.35-6.38,3.68M32,16,25,20a.63.63,0,0,0-.2.2.72.72,0,0,0-.07.27l0,8a.2.2,0,0,0,.08.17.17.17,0,0,0,.19,0l6.92-4a.6.6,0,0,0,.27-.46l-.27.16v0l.27-.16,0-7.95a.21.21,0,0,0-.08-.17A.19.19,0,0,0,32,16"/><polyline class="cls-8" points="27.81 20.31 26.43 21.11 26.44 25.88 27.83 25.08 27.81 20.31"/><polyline class="cls-8" points="30.58 20.3 29.2 21.1 29.2 22.69 30.59 21.89 30.58 20.3"/></g></g><polygon class="cls-2" points="37.37 33.11 37.35 29.19 40.75 27.23 40.76 31.15 37.37 33.11"/><line class="cls-3" x1="37.35" y1="29.19" x2="40.75" y2="27.23"/><line class="cls-3" x1="37.37" y1="33.11" x2="37.35" y2="29.19"/><line class="cls-3" x1="37.37" y1="33.11" x2="40.76" y2="31.15"/><line class="cls-3" x1="40.76" y1="31.15" x2="40.75" y2="27.23"/><line class="cls-4" x1="40.75" y1="27.23" x2="40.6" y2="28.72"/><line class="cls-4" x1="37.35" y1="29.19" x2="38.58" y2="29.89"/><line class="cls-4" x1="37.37" y1="33.11" x2="38.58" y2="32.23"/><line class="cls-4" x1="40.61" y1="31.06" x2="40.76" y2="31.15"/><polygon class="cls-2" points="47.11 29.88 47.13 34.82 42.84 37.29 42.83 32.35 47.11 29.88"/><polygon class="cls-2" points="47.11 29.88 42.83 32.35 38.56 29.88 42.85 27.41 47.11 29.88"/><polygon class="cls-2" points="42.83 32.35 42.84 37.29 38.58 34.82 38.56 29.88 42.83 32.35"/><line class="cls-3" x1="47.11" y1="29.88" x2="42.85" y2="27.41"/><line class="cls-3" x1="47.11" y1="29.88" x2="47.13" y2="34.82"/><line class="cls-3" x1="47.13" y1="34.82" x2="42.84" y2="37.29"/><line class="cls-3" x1="42.84" y1="37.29" x2="38.58" y2="34.82"/><line class="cls-3" x1="38.58" y1="34.82" x2="38.56" y2="29.88"/><line class="cls-3" x1="38.56" y1="29.88" x2="42.85" y2="27.41"/><line class="cls-4" x1="42.83" y1="32.35" x2="42.84" y2="37.29"/><line class="cls-4" x1="42.83" y1="32.35" x2="47.11" y2="29.88"/><line class="cls-4" x1="42.83" y1="32.35" x2="38.56" y2="29.88"/><rect class="cls-9" x="0.05" y="0.05" width="56.69" height="42.52"/><g class="cls-6"><g class="cls-10"><path class="cls-8" d="M21.91,10.81A14.46,14.46,0,0,0,11,11.72C8.07,13.43,7.56,16,9.48,18l.4-.18C8.11,16,8.6,13.53,11.37,11.92A13.7,13.7,0,0,1,21.61,11l.3-.23"/><polyline class="cls-8" points="10.86 17.43 9.88 17.85 9.48 18.03 8.48 18.47 11.23 19.14 10.86 17.43"/><polyline class="cls-8" points="22.66 10.22 21.91 10.8 21.61 11.04 20.87 11.61 23.84 11.82 22.66 10.22"/></g></g><g class="cls-6"><g class="cls-11"><path class="cls-8" d="M15.71,7.23C13,6.58,11,8.31,11,11.72a14.51,14.51,0,0,0,4.65,9.89l.06-.38a13.67,13.67,0,0,1-4.36-9.31c0-3.2,1.86-4.84,4.39-4.25l0-.44"/><polyline class="cls-8" points="15.85 20.31 15.72 21.23 15.67 21.61 15.54 22.55 17.51 22.77 15.85 20.31"/><polyline class="cls-8" points="15.59 6.14 15.71 7.23 15.76 7.67 15.88 8.73 17.55 8.19 15.59 6.14"/></g></g></g></g></svg>